/* XPM */
static char * msvia_xpm[] = {
"32 32 3 1",
" 	c None",
".	c #000000",
"+	c #FF0000",
"                                ",
"                                ",
"                                ",
"                                ",
"                                ",
"                                ",
"                                ",
"                                ",
"                                ",
"                                ",
"                                ",
"              .....             ",
"       +     .     .            ",
"      + +.....     .            ",
"       +     .     .            ",
"              .....             ",
"             .     .            ",
"             .     .            ",
"             .     .            ",
"             .     .            ",
"             .     .            ",
"             .     .            ",
"             .     .            ",
"          .............         ",
"                                ",
"            .........           ",
"                                ",
"              .....             ",
"                                ",
"                                ",
"                                ",
"                                "};
