/* XPM */
static char * resistor_us_xpm[] = {
"32 32 3 1",
" 	c None",
".	c #000000",
"+	c #FF0000",
"                                ",
"                                ",
"                                ",
"                                ",
"                                ",
"                                ",
"                                ",
"                                ",
"                                ",
"                                ",
"                                ",
"                                ",
"                                ",
"                                ",
"          .   .   .             ",
"   +      .   .   .         +   ",
"  + +..... . . . . . ......+ +  ",
"   +       . . . . . .      +   ",
"            .   .   .           ",
"            .   .   .           ",
"                                ",
"                                ",
"                                ",
"                                ",
"                                ",
"                                ",
"                                ",
"                                ",
"                                ",
"                                ",
"                                ",
"                                "};
