<?xml version="1.0" encoding="UTF-8" standalone="no"?>
<svg
   xmlns:dc="http://purl.org/dc/elements/1.1/"
   xmlns:cc="http://creativecommons.org/ns#"
   xmlns:rdf="http://www.w3.org/1999/02/22-rdf-syntax-ns#"
   xmlns:svg="http://www.w3.org/2000/svg"
   xmlns="http://www.w3.org/2000/svg"
   xmlns:sodipodi="http://sodipodi.sourceforge.net/DTD/sodipodi-0.dtd"
   xmlns:inkscape="http://www.inkscape.org/namespaces/inkscape"
   width="280"
   height="220"
   version="1.2"
   id="svg2"
   inkscape:version="0.48.4 r9939"
   sodipodi:docname="CCoupled_Lines_Microstrip.svg">
  <metadata
     id="metadata346">
    <rdf:RDF>
      <cc:Work
         rdf:about="">
        <dc:format>image/svg+xml</dc:format>
        <dc:type
           rdf:resource="http://purl.org/dc/dcmitype/StillImage" />
      </cc:Work>
    </rdf:RDF>
  </metadata>
  <sodipodi:namedview
     pagecolor="#ffffff"
     bordercolor="#666666"
     borderopacity="1"
     objecttolerance="10"
     gridtolerance="10"
     guidetolerance="10"
     inkscape:pageopacity="0"
     inkscape:pageshadow="2"
     inkscape:window-width="640"
     inkscape:window-height="480"
     id="namedview344"
     showgrid="false"
     inkscape:zoom="1.1137677"
     inkscape:cx="152.98883"
     inkscape:cy="141.70959"
     inkscape:window-x="0"
     inkscape:window-y="27"
     inkscape:window-maximized="0"
     inkscape:current-layer="svg2" />
  <title
     id="title4">Qt Svg Document</title>
  <desc
     id="desc6">Generated with Qt</desc>
  <defs
     id="defs8" />
  <g
     style="font-size:12px;font-style:normal;font-weight:400;fill:none;stroke:#000080;stroke-width:2;stroke-linecap:square;stroke-linejoin:bevel;stroke-opacity:1;font-family:Helvetica"
     id="g16"
     font-style="normal"
     font-weight="400"
     font-size="12"
     transform="matrix(0.36419001,0,0,0.40946786,10.170008,7.1246782)">
    <polyline
       style="fill:none"
       id="polyline18"
       points="571,276 583,276 "
       vector-effect="none" />
    <polyline
       style="fill:none"
       id="polyline20"
       points="588,284 614,284 "
       vector-effect="none" />
    <polyline
       style="fill:none"
       id="polyline22"
       points="578,268 604,268 "
       vector-effect="none" />
    <polyline
       style="fill:none"
       id="polyline24"
       points="588,284 578,268 "
       vector-effect="none" />
    <polyline
       style="fill:none"
       id="polyline26"
       points="614,284 604,268 "
       vector-effect="none" />
  </g>
  <g
     style="font-size:12px;font-style:normal;font-weight:400;fill:none;stroke:#000080;stroke-width:2;stroke-linecap:square;stroke-linejoin:bevel;stroke-opacity:1;font-family:Helvetica"
     id="g28"
     font-style="normal"
     font-weight="400"
     font-size="12"
     transform="matrix(0.36419001,0,0,0.40946786,10.170008,7.1246782)" />
  <g
     style="font-size:12px;font-style:normal;font-weight:400;fill:none;stroke:#000080;stroke-width:2;stroke-linecap:square;stroke-linejoin:bevel;stroke-opacity:1;font-family:Helvetica"
     id="g30"
     font-style="normal"
     font-weight="400"
     font-size="12"
     transform="matrix(0.36419001,0,0,0.40946786,10.170008,7.1246782)">
    <polyline
       style="fill:none"
       id="polyline32"
       points="511,294 525,294 "
       vector-effect="none" />
    <polyline
       style="fill:none"
       id="polyline34"
       points="511,276 511,294 "
       vector-effect="none" />
    <polyline
       style="fill:none"
       id="polyline36"
       points="561,294 571,294 "
       vector-effect="none" />
    <polyline
       style="fill:none"
       id="polyline38"
       points="571,276 571,294 "
       vector-effect="none" />
    <polyline
       style="fill:none"
       id="polyline40"
       points="530,286 566,286 "
       vector-effect="none" />
    <polyline
       style="fill:none"
       id="polyline42"
       points="520,302 556,302 "
       vector-effect="none" />
    <polyline
       style="fill:none"
       id="polyline44"
       points="530,286 520,302 "
       vector-effect="none" />
    <polyline
       style="fill:none"
       id="polyline46"
       points="566,286 556,302 "
       vector-effect="none" />
    <polyline
       style="fill:none"
       id="polyline48"
       points="511,318 521,318 "
       vector-effect="none" />
    <polyline
       style="fill:none"
       id="polyline50"
       points="511,336 511,318 "
       vector-effect="none" />
    <polyline
       style="fill:none"
       id="polyline52"
       points="557,318 571,318 "
       vector-effect="none" />
    <polyline
       style="fill:none"
       id="polyline54"
       points="571,336 571,318 "
       vector-effect="none" />
    <polyline
       style="fill:none"
       id="polyline56"
       points="526,310 562,310 "
       vector-effect="none" />
    <polyline
       style="fill:none"
       id="polyline58"
       points="516,326 552,326 "
       vector-effect="none" />
    <polyline
       style="fill:none"
       id="polyline60"
       points="526,310 516,326 "
       vector-effect="none" />
    <polyline
       style="fill:none"
       id="polyline62"
       points="562,310 552,326 "
       vector-effect="none" />
  </g>
  <g
     style="font-size:12px;font-style:normal;font-weight:400;fill:none;stroke:#000080;stroke-width:2;stroke-linecap:square;stroke-linejoin:bevel;stroke-opacity:1;font-family:Helvetica"
     id="g64"
     font-style="normal"
     font-weight="400"
     font-size="12"
     transform="matrix(0.36419001,0,0,0.40946786,10.170008,7.1246782)" />
  <g
     style="font-size:12px;font-style:normal;font-weight:400;fill:none;stroke:#000080;stroke-width:2;stroke-linecap:square;stroke-linejoin:bevel;stroke-opacity:1;font-family:Helvetica"
     id="g66"
     font-style="normal"
     font-weight="400"
     font-size="12"
     transform="matrix(0.36419001,0,0,0.40946786,10.170008,7.1246782)">
    <polyline
       style="fill:none"
       id="polyline68"
       points="511,336 499,336 "
       vector-effect="none" />
    <polyline
       style="fill:none"
       id="polyline70"
       points="494,328 468,328 "
       vector-effect="none" />
    <polyline
       style="fill:none"
       id="polyline72"
       points="504,344 478,344 "
       vector-effect="none" />
    <polyline
       style="fill:none"
       id="polyline74"
       points="494,328 504,344 "
       vector-effect="none" />
    <polyline
       style="fill:none"
       id="polyline76"
       points="468,328 478,344 "
       vector-effect="none" />
  </g>
  <g
     style="font-size:12px;font-style:normal;font-weight:400;fill:none;stroke:#000080;stroke-width:2;stroke-linecap:square;stroke-linejoin:bevel;stroke-opacity:1;font-family:Helvetica"
     id="g78"
     font-style="normal"
     font-weight="400"
     font-size="12"
     transform="matrix(0.36419001,0,0,0.40946786,10.170008,7.1246782)" />
  <g
     style="font-size:12px;font-style:normal;font-weight:400;fill:none;stroke:#000080;stroke-width:2;stroke-linecap:square;stroke-linejoin:bevel;stroke-opacity:1;font-family:Helvetica"
     id="g80"
     font-style="normal"
     font-weight="400"
     font-size="12"
     transform="matrix(0.36419001,0,0,0.40946786,10.170008,7.1246782)">
    <polyline
       style="fill:none"
       id="polyline82"
       points="421,216 433,216 "
       vector-effect="none" />
    <polyline
       style="fill:none"
       id="polyline84"
       points="438,224 464,224 "
       vector-effect="none" />
    <polyline
       style="fill:none"
       id="polyline86"
       points="428,208 454,208 "
       vector-effect="none" />
    <polyline
       style="fill:none"
       id="polyline88"
       points="438,224 428,208 "
       vector-effect="none" />
    <polyline
       style="fill:none"
       id="polyline90"
       points="464,224 454,208 "
       vector-effect="none" />
  </g>
  <g
     style="font-size:12px;font-style:normal;font-weight:400;fill:none;stroke:#000080;stroke-width:2;stroke-linecap:square;stroke-linejoin:bevel;stroke-opacity:1;font-family:Helvetica"
     id="g92"
     font-style="normal"
     font-weight="400"
     font-size="12"
     transform="matrix(0.36419001,0,0,0.40946786,10.170008,7.1246782)" />
  <g
     style="font-size:12px;font-style:normal;font-weight:400;fill:none;stroke:#000080;stroke-width:2;stroke-linecap:square;stroke-linejoin:bevel;stroke-opacity:1;font-family:Helvetica"
     id="g94"
     font-style="normal"
     font-weight="400"
     font-size="12"
     transform="matrix(0.36419001,0,0,0.40946786,10.170008,7.1246782)">
    <polyline
       style="fill:none"
       id="polyline96"
       points="361,234 375,234 "
       vector-effect="none" />
    <polyline
       style="fill:none"
       id="polyline98"
       points="361,216 361,234 "
       vector-effect="none" />
    <polyline
       style="fill:none"
       id="polyline100"
       points="411,234 421,234 "
       vector-effect="none" />
    <polyline
       style="fill:none"
       id="polyline102"
       points="421,216 421,234 "
       vector-effect="none" />
    <polyline
       style="fill:none"
       id="polyline104"
       points="380,226 416,226 "
       vector-effect="none" />
    <polyline
       style="fill:none"
       id="polyline106"
       points="370,242 406,242 "
       vector-effect="none" />
    <polyline
       style="fill:none"
       id="polyline108"
       points="380,226 370,242 "
       vector-effect="none" />
    <polyline
       style="fill:none"
       id="polyline110"
       points="416,226 406,242 "
       vector-effect="none" />
    <polyline
       style="fill:none"
       id="polyline112"
       points="361,258 371,258 "
       vector-effect="none" />
    <polyline
       style="fill:none"
       id="polyline114"
       points="361,276 361,258 "
       vector-effect="none" />
    <polyline
       style="fill:none"
       id="polyline116"
       points="407,258 421,258 "
       vector-effect="none" />
    <polyline
       style="fill:none"
       id="polyline118"
       points="421,276 421,258 "
       vector-effect="none" />
    <polyline
       style="fill:none"
       id="polyline120"
       points="376,250 412,250 "
       vector-effect="none" />
    <polyline
       style="fill:none"
       id="polyline122"
       points="366,266 402,266 "
       vector-effect="none" />
    <polyline
       style="fill:none"
       id="polyline124"
       points="376,250 366,266 "
       vector-effect="none" />
    <polyline
       style="fill:none"
       id="polyline126"
       points="412,250 402,266 "
       vector-effect="none" />
  </g>
  <g
     style="font-size:12px;font-style:normal;font-weight:400;fill:none;stroke:#000080;stroke-width:2;stroke-linecap:square;stroke-linejoin:bevel;stroke-opacity:1;font-family:Helvetica"
     id="g128"
     font-style="normal"
     font-weight="400"
     font-size="12"
     transform="matrix(0.36419001,0,0,0.40946786,10.170008,7.1246782)" />
  <g
     style="font-size:12px;font-style:normal;font-weight:400;fill:none;stroke:#000080;stroke-width:2;stroke-linecap:square;stroke-linejoin:bevel;stroke-opacity:1;font-family:Helvetica"
     id="g130"
     font-style="normal"
     font-weight="400"
     font-size="12"
     transform="matrix(0.36419001,0,0,0.40946786,10.170008,7.1246782)">
    <polyline
       style="fill:none"
       id="polyline132"
       points="361,276 349,276 "
       vector-effect="none" />
    <polyline
       style="fill:none"
       id="polyline134"
       points="344,268 318,268 "
       vector-effect="none" />
    <polyline
       style="fill:none"
       id="polyline136"
       points="354,284 328,284 "
       vector-effect="none" />
    <polyline
       style="fill:none"
       id="polyline138"
       points="344,268 354,284 "
       vector-effect="none" />
    <polyline
       style="fill:none"
       id="polyline140"
       points="318,268 328,284 "
       vector-effect="none" />
  </g>
  <g
     style="font-size:12px;font-style:normal;font-weight:400;fill:none;stroke:#000080;stroke-width:2;stroke-linecap:square;stroke-linejoin:bevel;stroke-opacity:1;font-family:Helvetica"
     id="g142"
     font-style="normal"
     font-weight="400"
     font-size="12"
     transform="matrix(0.36419001,0,0,0.40946786,10.170008,7.1246782)" />
  <g
     style="font-size:12px;font-style:normal;font-weight:400;fill:none;stroke:#000080;stroke-width:2;stroke-linecap:square;stroke-linejoin:bevel;stroke-opacity:1;font-family:Helvetica"
     id="g144"
     font-style="normal"
     font-weight="400"
     font-size="12"
     transform="matrix(0.36419001,0,0,0.40946786,10.170008,7.1246782)">
    <polyline
       style="fill:none"
       id="polyline146"
       points="211,174 225,174 "
       vector-effect="none" />
    <polyline
       style="fill:none"
       id="polyline148"
       points="211,156 211,174 "
       vector-effect="none" />
    <polyline
       style="fill:none"
       id="polyline150"
       points="261,174 271,174 "
       vector-effect="none" />
    <polyline
       style="fill:none"
       id="polyline152"
       points="271,156 271,174 "
       vector-effect="none" />
    <polyline
       style="fill:none"
       id="polyline154"
       points="230,166 266,166 "
       vector-effect="none" />
    <polyline
       style="fill:none"
       id="polyline156"
       points="220,182 256,182 "
       vector-effect="none" />
    <polyline
       style="fill:none"
       id="polyline158"
       points="230,166 220,182 "
       vector-effect="none" />
    <polyline
       style="fill:none"
       id="polyline160"
       points="266,166 256,182 "
       vector-effect="none" />
    <polyline
       style="fill:none"
       id="polyline162"
       points="211,198 221,198 "
       vector-effect="none" />
    <polyline
       style="fill:none"
       id="polyline164"
       points="211,216 211,198 "
       vector-effect="none" />
    <polyline
       style="fill:none"
       id="polyline166"
       points="257,198 271,198 "
       vector-effect="none" />
    <polyline
       style="fill:none"
       id="polyline168"
       points="271,216 271,198 "
       vector-effect="none" />
    <polyline
       style="fill:none"
       id="polyline170"
       points="226,190 262,190 "
       vector-effect="none" />
    <polyline
       style="fill:none"
       id="polyline172"
       points="216,206 252,206 "
       vector-effect="none" />
    <polyline
       style="fill:none"
       id="polyline174"
       points="226,190 216,206 "
       vector-effect="none" />
    <polyline
       style="fill:none"
       id="polyline176"
       points="262,190 252,206 "
       vector-effect="none" />
  </g>
  <g
     style="font-size:12px;font-style:normal;font-weight:400;fill:none;stroke:#000080;stroke-width:2;stroke-linecap:square;stroke-linejoin:bevel;stroke-opacity:1;font-family:Helvetica"
     id="g178"
     font-style="normal"
     font-weight="400"
     font-size="12"
     transform="matrix(0.36419001,0,0,0.40946786,10.170008,7.1246782)" />
  <g
     style="font-size:12px;font-style:normal;font-weight:400;fill:none;stroke:#000080;stroke-width:2;stroke-linecap:square;stroke-linejoin:bevel;stroke-opacity:1;font-family:Helvetica"
     id="g180"
     font-style="normal"
     font-weight="400"
     font-size="12"
     transform="matrix(0.36419001,0,0,0.40946786,10.170008,7.1246782)">
    <polyline
       style="fill:none"
       id="polyline182"
       points="271,156 283,156 "
       vector-effect="none" />
    <polyline
       style="fill:none"
       id="polyline184"
       points="288,164 314,164 "
       vector-effect="none" />
    <polyline
       style="fill:none"
       id="polyline186"
       points="278,148 304,148 "
       vector-effect="none" />
    <polyline
       style="fill:none"
       id="polyline188"
       points="288,164 278,148 "
       vector-effect="none" />
    <polyline
       style="fill:none"
       id="polyline190"
       points="314,164 304,148 "
       vector-effect="none" />
  </g>
  <g
     style="font-size:12px;font-style:normal;font-weight:400;fill:none;stroke:#000080;stroke-width:2;stroke-linecap:square;stroke-linejoin:bevel;stroke-opacity:1;font-family:Helvetica"
     id="g192"
     font-style="normal"
     font-weight="400"
     font-size="12"
     transform="matrix(0.36419001,0,0,0.40946786,10.170008,7.1246782)" />
  <g
     style="font-size:12px;font-style:normal;font-weight:400;fill:none;stroke:#000080;stroke-width:2;stroke-linecap:square;stroke-linejoin:bevel;stroke-opacity:1;font-family:Helvetica"
     id="g194"
     font-style="normal"
     font-weight="400"
     font-size="12"
     transform="matrix(0.36419001,0,0,0.40946786,10.170008,7.1246782)">
    <polyline
       style="fill:none"
       id="polyline196"
       points="211,216 199,216 "
       vector-effect="none" />
    <polyline
       style="fill:none"
       id="polyline198"
       points="194,208 168,208 "
       vector-effect="none" />
    <polyline
       style="fill:none"
       id="polyline200"
       points="204,224 178,224 "
       vector-effect="none" />
    <polyline
       style="fill:none"
       id="polyline202"
       points="194,208 204,224 "
       vector-effect="none" />
    <polyline
       style="fill:none"
       id="polyline204"
       points="168,208 178,224 "
       vector-effect="none" />
  </g>
  <g
     style="font-size:12px;font-style:normal;font-weight:400;fill:none;stroke:#000080;stroke-width:2;stroke-linecap:square;stroke-linejoin:bevel;stroke-opacity:1;font-family:Helvetica"
     id="g206"
     font-style="normal"
     font-weight="400"
     font-size="12"
     transform="matrix(0.36419001,0,0,0.40946786,10.170008,7.1246782)" />
  <g
     style="font-size:12px;font-style:normal;font-weight:400;fill:none;stroke:#000080;stroke-width:2;stroke-linecap:square;stroke-linejoin:bevel;stroke-opacity:1;font-family:Helvetica"
     id="g208"
     font-style="normal"
     font-weight="400"
     font-size="12"
     transform="matrix(0.36419001,0,0,0.40946786,10.170008,7.1246782)">
    <polyline
       style="fill:none"
       id="polyline210"
       points="121,96 133,96 "
       vector-effect="none" />
    <polyline
       style="fill:none"
       id="polyline212"
       points="138,104 164,104 "
       vector-effect="none" />
    <polyline
       style="fill:none"
       id="polyline214"
       points="128,88 154,88 "
       vector-effect="none" />
    <polyline
       style="fill:none"
       id="polyline216"
       points="138,104 128,88 "
       vector-effect="none" />
    <polyline
       style="fill:none"
       id="polyline218"
       points="164,104 154,88 "
       vector-effect="none" />
  </g>
  <g
     style="font-size:12px;font-style:normal;font-weight:400;fill:none;stroke:#000080;stroke-width:2;stroke-linecap:square;stroke-linejoin:bevel;stroke-opacity:1;font-family:Helvetica"
     id="g220"
     font-style="normal"
     font-weight="400"
     font-size="12"
     transform="matrix(0.36419001,0,0,0.40946786,10.170008,7.1246782)" />
  <g
     style="font-size:12px;font-style:normal;font-weight:400;fill:none;stroke:#000080;stroke-width:2;stroke-linecap:square;stroke-linejoin:bevel;stroke-opacity:1;font-family:Helvetica"
     id="g222"
     font-style="normal"
     font-weight="400"
     font-size="12"
     transform="matrix(0.36419001,0,0,0.40946786,10.170008,7.1246782)">
    <polyline
       style="fill:none"
       id="polyline224"
       points="61,114 75,114 "
       vector-effect="none" />
    <polyline
       style="fill:none"
       id="polyline226"
       points="61,96 61,114 "
       vector-effect="none" />
    <polyline
       style="fill:none"
       id="polyline228"
       points="111,114 121,114 "
       vector-effect="none" />
    <polyline
       style="fill:none"
       id="polyline230"
       points="121,96 121,114 "
       vector-effect="none" />
    <polyline
       style="fill:none"
       id="polyline232"
       points="80,106 116,106 "
       vector-effect="none" />
    <polyline
       style="fill:none"
       id="polyline234"
       points="70,122 106,122 "
       vector-effect="none" />
    <polyline
       style="fill:none"
       id="polyline236"
       points="80,106 70,122 "
       vector-effect="none" />
    <polyline
       style="fill:none"
       id="polyline238"
       points="116,106 106,122 "
       vector-effect="none" />
    <polyline
       style="fill:none"
       id="polyline240"
       points="61,138 71,138 "
       vector-effect="none" />
    <polyline
       style="fill:none"
       id="polyline242"
       points="61,156 61,138 "
       vector-effect="none" />
    <polyline
       style="fill:none"
       id="polyline244"
       points="107,138 121,138 "
       vector-effect="none" />
    <polyline
       style="fill:none"
       id="polyline246"
       points="121,156 121,138 "
       vector-effect="none" />
    <polyline
       style="fill:none"
       id="polyline248"
       points="76,130 112,130 "
       vector-effect="none" />
    <polyline
       style="fill:none"
       id="polyline250"
       points="66,146 102,146 "
       vector-effect="none" />
    <polyline
       style="fill:none"
       id="polyline252"
       points="76,130 66,146 "
       vector-effect="none" />
    <polyline
       style="fill:none"
       id="polyline254"
       points="112,130 102,146 "
       vector-effect="none" />
  </g>
  <g
     style="font-size:12px;font-style:normal;font-weight:400;fill:none;stroke:#000080;stroke-width:2;stroke-linecap:square;stroke-linejoin:bevel;stroke-opacity:1;font-family:Helvetica"
     id="g256"
     font-style="normal"
     font-weight="400"
     font-size="12"
     transform="matrix(0.36419001,0,0,0.40946786,10.170008,7.1246782)" />
  <g
     style="font-size:12px;font-style:normal;font-weight:400;fill:none;stroke:#000080;stroke-width:2;stroke-linecap:square;stroke-linejoin:bevel;stroke-opacity:1;font-family:Helvetica"
     id="g258"
     font-style="normal"
     font-weight="400"
     font-size="12"
     transform="matrix(0.36419001,0,0,0.40946786,10.170008,7.1246782)">
    <polyline
       style="fill:none"
       id="polyline260"
       points="61,156 49,156 "
       vector-effect="none" />
    <polyline
       style="fill:none"
       id="polyline262"
       points="44,148 18,148 "
       vector-effect="none" />
    <polyline
       style="fill:none"
       id="polyline264"
       points="54,164 28,164 "
       vector-effect="none" />
    <polyline
       style="fill:none"
       id="polyline266"
       points="44,148 54,164 "
       vector-effect="none" />
    <polyline
       style="fill:none"
       id="polyline268"
       points="18,148 28,164 "
       vector-effect="none" />
  </g>
  <g
     style="font-size:12px;font-style:normal;font-weight:400;fill:none;stroke:#000080;stroke-width:2;stroke-linecap:square;stroke-linejoin:bevel;stroke-opacity:1;font-family:Helvetica"
     id="g270"
     font-style="normal"
     font-weight="400"
     font-size="12"
     transform="matrix(0.36419001,0,0,0.40946786,10.170008,7.1246782)" />
  <g
     style="font-size:12px;font-style:normal;font-weight:400;fill:none;stroke:#000080;stroke-width:2;stroke-linecap:square;stroke-linejoin:bevel;stroke-opacity:1;font-family:Helvetica"
     id="g272"
     font-style="normal"
     font-weight="400"
     font-size="12"
     transform="matrix(0.36419001,0,0,0.40946786,10.170008,7.1246782)">
    <polyline
       style="fill:none"
       id="polyline274"
       points="121,156 211,156 "
       vector-effect="none" />
    <polyline
       style="fill:none"
       id="polyline276"
       points="271,216 361,216 "
       vector-effect="none" />
    <polyline
       style="fill:none"
       id="polyline278"
       points="421,276 511,276 "
       vector-effect="none" />
  </g>
  <g
     style="font-size:12px;font-style:normal;font-weight:400;fill:none;stroke:#ff0000;stroke-width:1;stroke-linecap:square;stroke-linejoin:bevel;stroke-opacity:1;font-family:Helvetica"
     id="g280"
     font-style="normal"
     font-weight="400"
     font-size="12"
     transform="matrix(0.36419001,0,0,0.40946786,10.170008,7.1246782)">
    <path
       inkscape:connector-curvature="0"
       id="path282"
       d="m 65,96 c 0,2.2091 -1.7909,4 -4,4 -2.2091,0 -4,-1.7909 -4,-4 0,-2.2091 1.7909,-4 4,-4 2.2091,0 4,1.7909 4,4"
       vector-effect="none" />
  </g>
  <g
     style="font-size:12px;font-style:normal;font-weight:400;fill:#000080;fill-opacity:1;stroke:none;font-family:Helvetica"
     id="g284"
     font-style="normal"
     font-weight="400"
     font-size="12"
     transform="matrix(0.36419001,0,0,0.40946786,10.170008,7.1246782)">
    <path
       style="fill-rule:evenodd"
       inkscape:connector-curvature="0"
       id="path286"
       d="m 119,94 4,0 0,4 -4,0 0,-4"
       vector-effect="non-scaling-stroke" />
  </g>
  <g
     style="font-size:12px;font-style:normal;font-weight:400;fill:#000080;fill-opacity:1;stroke:none;font-family:Helvetica"
     id="g288"
     font-style="normal"
     font-weight="400"
     font-size="12"
     transform="matrix(0.36419001,0,0,0.40946786,10.170008,7.1246782)">
    <path
       style="fill-rule:evenodd"
       inkscape:connector-curvature="0"
       id="path290"
       d="m 119,154 4,0 0,4 -4,0 0,-4"
       vector-effect="non-scaling-stroke" />
  </g>
  <g
     style="font-size:12px;font-style:normal;font-weight:400;fill:#000080;fill-opacity:1;stroke:none;font-family:Helvetica"
     id="g292"
     font-style="normal"
     font-weight="400"
     font-size="12"
     transform="matrix(0.36419001,0,0,0.40946786,10.170008,7.1246782)">
    <path
       style="fill-rule:evenodd"
       inkscape:connector-curvature="0"
       id="path294"
       d="m 59,154 4,0 0,4 -4,0 0,-4"
       vector-effect="non-scaling-stroke" />
  </g>
  <g
     style="font-size:12px;font-style:normal;font-weight:400;fill:#000080;fill-opacity:1;stroke:none;font-family:Helvetica"
     id="g296"
     font-style="normal"
     font-weight="400"
     font-size="12"
     transform="matrix(0.36419001,0,0,0.40946786,10.170008,7.1246782)">
    <path
       style="fill-rule:evenodd"
       inkscape:connector-curvature="0"
       id="path298"
       d="m 209,154 4,0 0,4 -4,0 0,-4"
       vector-effect="non-scaling-stroke" />
  </g>
  <g
     style="font-size:12px;font-style:normal;font-weight:400;fill:#000080;fill-opacity:1;stroke:none;font-family:Helvetica"
     id="g300"
     font-style="normal"
     font-weight="400"
     font-size="12"
     transform="matrix(0.36419001,0,0,0.40946786,10.170008,7.1246782)">
    <path
       style="fill-rule:evenodd"
       inkscape:connector-curvature="0"
       id="path302"
       d="m 269,154 4,0 0,4 -4,0 0,-4"
       vector-effect="non-scaling-stroke" />
  </g>
  <g
     style="font-size:12px;font-style:normal;font-weight:400;fill:#000080;fill-opacity:1;stroke:none;font-family:Helvetica"
     id="g304"
     font-style="normal"
     font-weight="400"
     font-size="12"
     transform="matrix(0.36419001,0,0,0.40946786,10.170008,7.1246782)">
    <path
       style="fill-rule:evenodd"
       inkscape:connector-curvature="0"
       id="path306"
       d="m 269,214 4,0 0,4 -4,0 0,-4"
       vector-effect="non-scaling-stroke" />
  </g>
  <g
     style="font-size:12px;font-style:normal;font-weight:400;fill:#000080;fill-opacity:1;stroke:none;font-family:Helvetica"
     id="g308"
     font-style="normal"
     font-weight="400"
     font-size="12"
     transform="matrix(0.36419001,0,0,0.40946786,10.170008,7.1246782)">
    <path
       style="fill-rule:evenodd"
       inkscape:connector-curvature="0"
       id="path310"
       d="m 209,214 4,0 0,4 -4,0 0,-4"
       vector-effect="non-scaling-stroke" />
  </g>
  <g
     style="font-size:12px;font-style:normal;font-weight:400;fill:#000080;fill-opacity:1;stroke:none;font-family:Helvetica"
     id="g312"
     font-style="normal"
     font-weight="400"
     font-size="12"
     transform="matrix(0.36419001,0,0,0.40946786,10.170008,7.1246782)">
    <path
       style="fill-rule:evenodd"
       inkscape:connector-curvature="0"
       id="path314"
       d="m 359,214 4,0 0,4 -4,0 0,-4"
       vector-effect="non-scaling-stroke" />
  </g>
  <g
     style="font-size:12px;font-style:normal;font-weight:400;fill:#000080;fill-opacity:1;stroke:none;font-family:Helvetica"
     id="g316"
     font-style="normal"
     font-weight="400"
     font-size="12"
     transform="matrix(0.36419001,0,0,0.40946786,10.170008,7.1246782)">
    <path
       style="fill-rule:evenodd"
       inkscape:connector-curvature="0"
       id="path318"
       d="m 419,214 4,0 0,4 -4,0 0,-4"
       vector-effect="non-scaling-stroke" />
  </g>
  <g
     style="font-size:12px;font-style:normal;font-weight:400;fill:#000080;fill-opacity:1;stroke:none;font-family:Helvetica"
     id="g320"
     font-style="normal"
     font-weight="400"
     font-size="12"
     transform="matrix(0.36419001,0,0,0.40946786,10.170008,7.1246782)">
    <path
       style="fill-rule:evenodd"
       inkscape:connector-curvature="0"
       id="path322"
       d="m 419,274 4,0 0,4 -4,0 0,-4"
       vector-effect="non-scaling-stroke" />
  </g>
  <g
     style="font-size:12px;font-style:normal;font-weight:400;fill:#000080;fill-opacity:1;stroke:none;font-family:Helvetica"
     id="g324"
     font-style="normal"
     font-weight="400"
     font-size="12"
     transform="matrix(0.36419001,0,0,0.40946786,10.170008,7.1246782)">
    <path
       style="fill-rule:evenodd"
       inkscape:connector-curvature="0"
       id="path326"
       d="m 359,274 4,0 0,4 -4,0 0,-4"
       vector-effect="non-scaling-stroke" />
  </g>
  <g
     style="font-size:12px;font-style:normal;font-weight:400;fill:#000080;fill-opacity:1;stroke:none;font-family:Helvetica"
     id="g328"
     font-style="normal"
     font-weight="400"
     font-size="12"
     transform="matrix(0.36419001,0,0,0.40946786,10.170008,7.1246782)">
    <path
       style="fill-rule:evenodd"
       inkscape:connector-curvature="0"
       id="path330"
       d="m 509,274 4,0 0,4 -4,0 0,-4"
       vector-effect="non-scaling-stroke" />
  </g>
  <g
     style="font-size:12px;font-style:normal;font-weight:400;fill:#000080;fill-opacity:1;stroke:none;font-family:Helvetica"
     id="g332"
     font-style="normal"
     font-weight="400"
     font-size="12"
     transform="matrix(0.36419001,0,0,0.40946786,10.170008,7.1246782)">
    <path
       style="fill-rule:evenodd"
       inkscape:connector-curvature="0"
       id="path334"
       d="m 569,274 4,0 0,4 -4,0 0,-4"
       vector-effect="non-scaling-stroke" />
  </g>
  <g
     style="font-size:12px;font-style:normal;font-weight:400;fill:none;stroke:#ff0000;stroke-width:1;stroke-linecap:square;stroke-linejoin:bevel;stroke-opacity:1;font-family:Helvetica"
     id="g336"
     font-style="normal"
     font-weight="400"
     font-size="12"
     transform="matrix(0.36419001,0,0,0.40946786,10.170008,7.1246782)">
    <path
       inkscape:connector-curvature="0"
       id="path338"
       d="m 575,336 c 0,2.209 -1.791,4 -4,4 -2.209,0 -4,-1.791 -4,-4 0,-2.209 1.791,-4 4,-4 2.209,0 4,1.791 4,4"
       vector-effect="none" />
  </g>
  <g
     style="font-size:12px;font-style:normal;font-weight:400;fill:#000080;fill-opacity:1;stroke:none;font-family:Helvetica"
     id="g340"
     font-style="normal"
     font-weight="400"
     font-size="12"
     transform="matrix(0.36419001,0,0,0.40946786,10.170008,7.1246782)">
    <path
       style="fill-rule:evenodd"
       inkscape:connector-curvature="0"
       id="path342"
       d="m 509,334 4,0 0,4 -4,0 0,-4"
       vector-effect="non-scaling-stroke" />
  </g>
</svg>
