<?xml version="1.0" encoding="UTF-8" standalone="no"?>
<svg
   xmlns:dc="http://purl.org/dc/elements/1.1/"
   xmlns:cc="http://creativecommons.org/ns#"
   xmlns:rdf="http://www.w3.org/1999/02/22-rdf-syntax-ns#"
   xmlns:svg="http://www.w3.org/2000/svg"
   xmlns="http://www.w3.org/2000/svg"
   xmlns:sodipodi="http://sodipodi.sourceforge.net/DTD/sodipodi-0.dtd"
   xmlns:inkscape="http://www.inkscape.org/namespaces/inkscape"
   width="280"
   height="220"
   version="1.2"
   id="svg2"
   inkscape:version="0.48.4 r9939"
   sodipodi:docname="LC_cauer_lowpass.svg">
  <metadata
     id="metadata168">
    <rdf:RDF>
      <cc:Work
         rdf:about="">
        <dc:format>image/svg+xml</dc:format>
        <dc:type
           rdf:resource="http://purl.org/dc/dcmitype/StillImage" />
      </cc:Work>
    </rdf:RDF>
  </metadata>
  <sodipodi:namedview
     pagecolor="#ffffff"
     bordercolor="#666666"
     borderopacity="1"
     objecttolerance="10"
     gridtolerance="10"
     guidetolerance="10"
     inkscape:pageopacity="0"
     inkscape:pageshadow="2"
     inkscape:window-width="640"
     inkscape:window-height="480"
     id="namedview166"
     showgrid="false"
     inkscape:zoom="1.2770651"
     inkscape:cx="105.72328"
     inkscape:cy="90.521329"
     inkscape:window-x="0"
     inkscape:window-y="27"
     inkscape:window-maximized="0"
     inkscape:current-layer="svg2" />
  <title
     id="title4">Qt Svg Document</title>
  <desc
     id="desc6">Generated with Qt</desc>
  <defs
     id="defs8" />
  <g
     style="font-size:12px;font-style:normal;font-weight:400;fill:none;stroke:#000080;stroke-width:2;stroke-linecap:square;stroke-linejoin:bevel;stroke-opacity:1;font-family:Helvetica"
     id="g16"
     font-style="normal"
     font-weight="400"
     font-size="12"
     transform="matrix(0.66602893,0,0,0.59550072,-0.01753301,8.9824421)">
    <polyline
       style="fill:none"
       id="polyline18"
       points="125,204 125,214 "
       vector-effect="none" />
  </g>
  <g
     style="font-size:12px;font-style:normal;font-weight:400;fill:none;stroke:#000080;stroke-width:3;stroke-linecap:square;stroke-linejoin:bevel;stroke-opacity:1;font-family:Helvetica"
     id="g20"
     font-style="normal"
     font-weight="400"
     font-size="12"
     transform="matrix(0.66602893,0,0,0.59550072,-0.01753301,8.9824421)">
    <polyline
       style="fill:none"
       id="polyline22"
       points="114,214 136,214 "
       vector-effect="none" />
    <polyline
       style="fill:none"
       id="polyline24"
       points="118,220 132,220 "
       vector-effect="none" />
    <polyline
       style="fill:none"
       id="polyline26"
       points="122,226 128,226 "
       vector-effect="none" />
  </g>
  <g
     style="font-size:12px;font-style:normal;font-weight:400;fill:none;stroke:#000080;stroke-width:3;stroke-linecap:square;stroke-linejoin:bevel;stroke-opacity:1;font-family:Helvetica"
     id="g28"
     font-style="normal"
     font-weight="400"
     font-size="12"
     transform="matrix(0.66602893,0,0,0.59550072,-0.01753301,8.9824421)" />
  <g
     style="font-size:12px;font-style:normal;font-weight:400;fill:none;stroke:#000080;stroke-width:2;stroke-linecap:square;stroke-linejoin:bevel;stroke-opacity:1;font-family:Helvetica"
     id="g30"
     font-style="normal"
     font-weight="400"
     font-size="12"
     transform="matrix(0.66602893,0,0,0.59550072,-0.01753301,8.9824421)">
    <polyline
       style="fill:none"
       id="polyline32"
       points="265,204 265,214 "
       vector-effect="none" />
  </g>
  <g
     style="font-size:12px;font-style:normal;font-weight:400;fill:none;stroke:#000080;stroke-width:3;stroke-linecap:square;stroke-linejoin:bevel;stroke-opacity:1;font-family:Helvetica"
     id="g34"
     font-style="normal"
     font-weight="400"
     font-size="12"
     transform="matrix(0.66602893,0,0,0.59550072,-0.01753301,8.9824421)">
    <polyline
       style="fill:none"
       id="polyline36"
       points="254,214 276,214 "
       vector-effect="none" />
    <polyline
       style="fill:none"
       id="polyline38"
       points="258,220 272,220 "
       vector-effect="none" />
    <polyline
       style="fill:none"
       id="polyline40"
       points="262,226 268,226 "
       vector-effect="none" />
  </g>
  <g
     style="font-size:12px;font-style:normal;font-weight:400;fill:none;stroke:#000080;stroke-width:3;stroke-linecap:square;stroke-linejoin:bevel;stroke-opacity:1;font-family:Helvetica"
     id="g42"
     font-style="normal"
     font-weight="400"
     font-size="12"
     transform="matrix(0.66602893,0,0,0.59550072,-0.01753301,8.9824421)" />
  <g
     style="font-size:12px;font-style:normal;font-weight:400;fill:none;stroke:#000080;stroke-width:4;stroke-linecap:square;stroke-linejoin:bevel;stroke-opacity:1;font-family:Helvetica"
     id="g44"
     font-style="normal"
     font-weight="400"
     font-size="12"
     transform="matrix(0.66602893,0,0,0.59550072,-0.01753301,8.9824421)">
    <polyline
       style="fill:none"
       id="polyline46"
       points="114,178 136,178 "
       vector-effect="none" />
    <polyline
       style="fill:none"
       id="polyline48"
       points="114,170 136,170 "
       vector-effect="none" />
  </g>
  <g
     style="font-size:12px;font-style:normal;font-weight:400;fill:none;stroke:#000080;stroke-width:2;stroke-linecap:square;stroke-linejoin:bevel;stroke-opacity:1;font-family:Helvetica"
     id="g50"
     font-style="normal"
     font-weight="400"
     font-size="12"
     transform="matrix(0.66602893,0,0,0.59550072,-0.01753301,8.9824421)">
    <polyline
       style="fill:none"
       id="polyline52"
       points="125,204 125,178 "
       vector-effect="none" />
    <polyline
       style="fill:none"
       id="polyline54"
       points="125,170 125,144 "
       vector-effect="none" />
  </g>
  <g
     style="font-size:12px;font-style:normal;font-weight:400;fill:none;stroke:#000080;stroke-width:2;stroke-linecap:square;stroke-linejoin:bevel;stroke-opacity:1;font-family:Helvetica"
     id="g56"
     font-style="normal"
     font-weight="400"
     font-size="12"
     transform="matrix(0.66602893,0,0,0.59550072,-0.01753301,8.9824421)" />
  <g
     style="font-size:12px;font-style:normal;font-weight:400;fill:none;stroke:#000080;stroke-width:4;stroke-linecap:square;stroke-linejoin:bevel;stroke-opacity:1;font-family:Helvetica"
     id="g58"
     font-style="normal"
     font-weight="400"
     font-size="12"
     transform="matrix(0.66602893,0,0,0.59550072,-0.01753301,8.9824421)">
    <polyline
       style="fill:none"
       id="polyline60"
       points="254,178 276,178 "
       vector-effect="none" />
    <polyline
       style="fill:none"
       id="polyline62"
       points="254,170 276,170 "
       vector-effect="none" />
  </g>
  <g
     style="font-size:12px;font-style:normal;font-weight:400;fill:none;stroke:#000080;stroke-width:2;stroke-linecap:square;stroke-linejoin:bevel;stroke-opacity:1;font-family:Helvetica"
     id="g64"
     font-style="normal"
     font-weight="400"
     font-size="12"
     transform="matrix(0.66602893,0,0,0.59550072,-0.01753301,8.9824421)">
    <polyline
       style="fill:none"
       id="polyline66"
       points="265,204 265,178 "
       vector-effect="none" />
    <polyline
       style="fill:none"
       id="polyline68"
       points="265,170 265,144 "
       vector-effect="none" />
  </g>
  <g
     style="font-size:12px;font-style:normal;font-weight:400;fill:none;stroke:#000080;stroke-width:2;stroke-linecap:square;stroke-linejoin:bevel;stroke-opacity:1;font-family:Helvetica"
     id="g70"
     font-style="normal"
     font-weight="400"
     font-size="12"
     transform="matrix(0.66602893,0,0,0.59550072,-0.01753301,8.9824421)" />
  <g
     style="font-size:12px;font-style:normal;font-weight:400;fill:none;stroke:#000080;stroke-width:4;stroke-linecap:square;stroke-linejoin:bevel;stroke-opacity:1;font-family:Helvetica"
     id="g72"
     font-style="normal"
     font-weight="400"
     font-size="12"
     transform="matrix(0.66602893,0,0,0.59550072,-0.01753301,8.9824421)">
    <polyline
       style="fill:none"
       id="polyline74"
       points="191,83 191,105 "
       vector-effect="none" />
    <polyline
       style="fill:none"
       id="polyline76"
       points="199,83 199,105 "
       vector-effect="none" />
  </g>
  <g
     style="font-size:12px;font-style:normal;font-weight:400;fill:none;stroke:#000080;stroke-width:2;stroke-linecap:square;stroke-linejoin:bevel;stroke-opacity:1;font-family:Helvetica"
     id="g78"
     font-style="normal"
     font-weight="400"
     font-size="12"
     transform="matrix(0.66602893,0,0,0.59550072,-0.01753301,8.9824421)">
    <polyline
       style="fill:none"
       id="polyline80"
       points="165,94 191,94 "
       vector-effect="none" />
    <polyline
       style="fill:none"
       id="polyline82"
       points="199,94 225,94 "
       vector-effect="none" />
  </g>
  <g
     style="font-size:12px;font-style:normal;font-weight:400;fill:none;stroke:#000080;stroke-width:2;stroke-linecap:square;stroke-linejoin:bevel;stroke-opacity:1;font-family:Helvetica"
     id="g84"
     font-style="normal"
     font-weight="400"
     font-size="12"
     transform="matrix(0.66602893,0,0,0.59550072,-0.01753301,8.9824421)" />
  <g
     style="font-size:12px;font-style:normal;font-weight:400;fill:none;stroke:#000080;stroke-width:2;stroke-linecap:square;stroke-linejoin:bevel;stroke-opacity:1;font-family:Helvetica"
     id="g86"
     font-style="normal"
     font-weight="400"
     font-size="12"
     transform="matrix(0.66602893,0,0,0.59550072,-0.01753301,8.9824421)">
    <polyline
       style="fill:none"
       id="polyline88"
       points="165,59 177,59 "
       vector-effect="none" />
    <polyline
       style="fill:none"
       id="polyline90"
       points="213,59 225,59 "
       vector-effect="none" />
    <path
       inkscape:connector-curvature="0"
       id="path92"
       d="m 189,59 c 0,-3.3137 -2.686,-6 -6,-6 -3.314,0 -6,2.6863 -6,6"
       vector-effect="none" />
    <path
       inkscape:connector-curvature="0"
       id="path94"
       d="m 201,59 c 0,-3.3137 -2.686,-6 -6,-6 -3.314,0 -6,2.6863 -6,6"
       vector-effect="none" />
    <path
       inkscape:connector-curvature="0"
       id="path96"
       d="m 213,59 c 0,-3.3137 -2.686,-6 -6,-6 -3.314,0 -6,2.6863 -6,6"
       vector-effect="none" />
  </g>
  <g
     style="font-size:12px;font-style:normal;font-weight:400;fill:none;stroke:#000080;stroke-width:2;stroke-linecap:square;stroke-linejoin:bevel;stroke-opacity:1;font-family:Helvetica"
     id="g98"
     font-style="normal"
     font-weight="400"
     font-size="12"
     transform="matrix(0.66602893,0,0,0.59550072,-0.01753301,8.9824421)" />
  <g
     style="font-size:12px;font-style:normal;font-weight:400;fill:none;stroke:#000080;stroke-width:2;stroke-linecap:square;stroke-linejoin:bevel;stroke-opacity:1;font-family:Helvetica"
     id="g100"
     font-style="normal"
     font-weight="400"
     font-size="12"
     transform="matrix(0.66602893,0,0,0.59550072,-0.01753301,8.9824421)">
    <polyline
       style="fill:none"
       id="polyline102"
       points="15,94 125,94 "
       vector-effect="none" />
    <polyline
       style="fill:none"
       id="polyline104"
       points="125,94 125,144 "
       vector-effect="none" />
    <polyline
       style="fill:none"
       id="polyline106"
       points="125,94 165,94 "
       vector-effect="none" />
    <polyline
       style="fill:none"
       id="polyline108"
       points="225,94 265,94 "
       vector-effect="none" />
    <polyline
       style="fill:none"
       id="polyline110"
       points="165,59 165,94 "
       vector-effect="none" />
    <polyline
       style="fill:none"
       id="polyline112"
       points="225,59 225,94 "
       vector-effect="none" />
    <polyline
       style="fill:none"
       id="polyline114"
       points="265,94 375,94 "
       vector-effect="none" />
    <polyline
       style="fill:none"
       id="polyline116"
       points="265,94 265,144 "
       vector-effect="none" />
  </g>
  <g
     style="font-size:12px;font-style:normal;font-weight:400;fill:#000080;fill-opacity:1;stroke:none;font-family:Helvetica"
     id="g118"
     font-style="normal"
     font-weight="400"
     font-size="12"
     transform="matrix(0.66602893,0,0,0.59550072,-0.01753301,8.9824421)">
    <path
       style="fill-rule:evenodd"
       inkscape:connector-curvature="0"
       id="path120"
       d="m 123,202 4,0 0,4 -4,0 0,-4"
       vector-effect="non-scaling-stroke" />
  </g>
  <g
     style="font-size:12px;font-style:normal;font-weight:400;fill:#000080;fill-opacity:1;stroke:none;font-family:Helvetica"
     id="g122"
     font-style="normal"
     font-weight="400"
     font-size="12"
     transform="matrix(0.66602893,0,0,0.59550072,-0.01753301,8.9824421)">
    <path
       style="fill-rule:evenodd"
       inkscape:connector-curvature="0"
       id="path124"
       d="m 123,142 4,0 0,4 -4,0 0,-4"
       vector-effect="non-scaling-stroke" />
  </g>
  <g
     style="font-size:12px;font-style:normal;font-weight:400;fill:#000080;fill-opacity:1;stroke:#000080;stroke-width:1;stroke-linecap:square;stroke-linejoin:bevel;stroke-opacity:1;font-family:Helvetica"
     id="g126"
     font-style="normal"
     font-weight="400"
     font-size="12"
     transform="matrix(0.66602893,0,0,0.59550072,-0.01753301,8.9824421)">
    <path
       style="fill-rule:evenodd"
       inkscape:connector-curvature="0"
       id="path128"
       d="m 168,94 c 0,1.6569 -1.343,3 -3,3 -1.657,0 -3,-1.3431 -3,-3 0,-1.6569 1.343,-3 3,-3 1.657,0 3,1.3431 3,3"
       vector-effect="none" />
  </g>
  <g
     style="font-size:12px;font-style:normal;font-weight:400;fill:#000080;fill-opacity:1;stroke:#000080;stroke-width:1;stroke-linecap:square;stroke-linejoin:bevel;stroke-opacity:1;font-family:Helvetica"
     id="g130"
     font-style="normal"
     font-weight="400"
     font-size="12"
     transform="matrix(0.66602893,0,0,0.59550072,-0.01753301,8.9824421)">
    <path
       style="fill-rule:evenodd"
       inkscape:connector-curvature="0"
       id="path132"
       d="m 228,94 c 0,1.6569 -1.343,3 -3,3 -1.657,0 -3,-1.3431 -3,-3 0,-1.6569 1.343,-3 3,-3 1.657,0 3,1.3431 3,3"
       vector-effect="none" />
  </g>
  <g
     style="font-size:12px;font-style:normal;font-weight:400;fill:#000080;fill-opacity:1;stroke:none;font-family:Helvetica"
     id="g134"
     font-style="normal"
     font-weight="400"
     font-size="12"
     transform="matrix(0.66602893,0,0,0.59550072,-0.01753301,8.9824421)">
    <path
       style="fill-rule:evenodd"
       inkscape:connector-curvature="0"
       id="path136"
       d="m 163,57 4,0 0,4 -4,0 0,-4"
       vector-effect="non-scaling-stroke" />
  </g>
  <g
     style="font-size:12px;font-style:normal;font-weight:400;fill:#000080;fill-opacity:1;stroke:none;font-family:Helvetica"
     id="g138"
     font-style="normal"
     font-weight="400"
     font-size="12"
     transform="matrix(0.66602893,0,0,0.59550072,-0.01753301,8.9824421)">
    <path
       style="fill-rule:evenodd"
       inkscape:connector-curvature="0"
       id="path140"
       d="m 223,57 4,0 0,4 -4,0 0,-4"
       vector-effect="non-scaling-stroke" />
  </g>
  <g
     style="font-size:12px;font-style:normal;font-weight:400;fill:#000080;fill-opacity:1;stroke:none;font-family:Helvetica"
     id="g142"
     font-style="normal"
     font-weight="400"
     font-size="12"
     transform="matrix(0.66602893,0,0,0.59550072,-0.01753301,8.9824421)">
    <path
       style="fill-rule:evenodd"
       inkscape:connector-curvature="0"
       id="path144"
       d="m 263,202 4,0 0,4 -4,0 0,-4"
       vector-effect="non-scaling-stroke" />
  </g>
  <g
     style="font-size:12px;font-style:normal;font-weight:400;fill:none;stroke:#ff0000;stroke-width:1;stroke-linecap:square;stroke-linejoin:bevel;stroke-opacity:1;font-family:Helvetica"
     id="g146"
     font-style="normal"
     font-weight="400"
     font-size="12"
     transform="matrix(0.66602893,0,0,0.59550072,-0.01753301,8.9824421)">
    <path
       inkscape:connector-curvature="0"
       id="path148"
       d="m 19,94 c 0,2.2091 -1.7909,4 -4,4 -2.2091,0 -4,-1.7909 -4,-4 0,-2.2091 1.7909,-4 4,-4 2.2091,0 4,1.7909 4,4"
       vector-effect="none" />
  </g>
  <g
     style="font-size:12px;font-style:normal;font-weight:400;fill:#000080;fill-opacity:1;stroke:#000080;stroke-width:1;stroke-linecap:square;stroke-linejoin:bevel;stroke-opacity:1;font-family:Helvetica"
     id="g150"
     font-style="normal"
     font-weight="400"
     font-size="12"
     transform="matrix(0.66602893,0,0,0.59550072,-0.01753301,8.9824421)">
    <path
       style="fill-rule:evenodd"
       inkscape:connector-curvature="0"
       id="path152"
       d="m 128,94 c 0,1.6569 -1.343,3 -3,3 -1.657,0 -3,-1.3431 -3,-3 0,-1.6569 1.343,-3 3,-3 1.657,0 3,1.3431 3,3"
       vector-effect="none" />
  </g>
  <g
     style="font-size:12px;font-style:normal;font-weight:400;fill:#000080;fill-opacity:1;stroke:#000080;stroke-width:1;stroke-linecap:square;stroke-linejoin:bevel;stroke-opacity:1;font-family:Helvetica"
     id="g154"
     font-style="normal"
     font-weight="400"
     font-size="12"
     transform="matrix(0.66602893,0,0,0.59550072,-0.01753301,8.9824421)">
    <path
       style="fill-rule:evenodd"
       inkscape:connector-curvature="0"
       id="path156"
       d="m 268,94 c 0,1.6569 -1.343,3 -3,3 -1.657,0 -3,-1.3431 -3,-3 0,-1.6569 1.343,-3 3,-3 1.657,0 3,1.3431 3,3"
       vector-effect="none" />
  </g>
  <g
     style="font-size:12px;font-style:normal;font-weight:400;fill:none;stroke:#ff0000;stroke-width:1;stroke-linecap:square;stroke-linejoin:bevel;stroke-opacity:1;font-family:Helvetica"
     id="g158"
     font-style="normal"
     font-weight="400"
     font-size="12"
     transform="matrix(0.66602893,0,0,0.59550072,-0.01753301,8.9824421)">
    <path
       inkscape:connector-curvature="0"
       id="path160"
       d="m 379,94 c 0,2.2091 -1.791,4 -4,4 -2.209,0 -4,-1.7909 -4,-4 0,-2.2091 1.791,-4 4,-4 2.209,0 4,1.7909 4,4"
       vector-effect="none" />
  </g>
  <g
     style="font-size:12px;font-style:normal;font-weight:400;fill:#000080;fill-opacity:1;stroke:none;font-family:Helvetica"
     id="g162"
     font-style="normal"
     font-weight="400"
     font-size="12"
     transform="matrix(0.66602893,0,0,0.59550072,-0.01753301,8.9824421)">
    <path
       style="fill-rule:evenodd"
       inkscape:connector-curvature="0"
       id="path164"
       d="m 263,142 4,0 0,4 -4,0 0,-4"
       vector-effect="non-scaling-stroke" />
  </g>
</svg>
