<?xml version="1.0" encoding="UTF-8" standalone="no"?>
<svg
   xmlns:dc="http://purl.org/dc/elements/1.1/"
   xmlns:cc="http://creativecommons.org/ns#"
   xmlns:rdf="http://www.w3.org/1999/02/22-rdf-syntax-ns#"
   xmlns:svg="http://www.w3.org/2000/svg"
   xmlns="http://www.w3.org/2000/svg"
   xmlns:sodipodi="http://sodipodi.sourceforge.net/DTD/sodipodi-0.dtd"
   xmlns:inkscape="http://www.inkscape.org/namespaces/inkscape"
   width="118.533mm"
   height="103.717mm"
   version="1.2"
   id="svg2"
   inkscape:version="0.48.4 r9939"
   sodipodi:docname="LC_Ladder_Tee_Notch.svg">
  <metadata
     id="metadata226">
    <rdf:RDF>
      <cc:Work
         rdf:about="">
        <dc:format>image/svg+xml</dc:format>
        <dc:type
           rdf:resource="http://purl.org/dc/dcmitype/StillImage" />
      </cc:Work>
    </rdf:RDF>
  </metadata>
  <sodipodi:namedview
     pagecolor="#ffffff"
     bordercolor="#666666"
     borderopacity="1"
     objecttolerance="10"
     gridtolerance="10"
     guidetolerance="10"
     inkscape:pageopacity="0"
     inkscape:pageshadow="2"
     inkscape:window-width="640"
     inkscape:window-height="480"
     id="namedview224"
     showgrid="false"
     inkscape:zoom="0.64217479"
     inkscape:cx="209.9994"
     inkscape:cy="183.7506"
     inkscape:window-x="0"
     inkscape:window-y="27"
     inkscape:window-maximized="0"
     inkscape:current-layer="svg2" />
  <title
     id="title4">Qt Svg Document</title>
  <desc
     id="desc6">Generated with Qt</desc>
  <defs
     id="defs8" />
  <g
     style="font-size:12px;font-style:normal;font-weight:400;fill:none;stroke:#000080;stroke-width:2;stroke-linecap:square;stroke-linejoin:bevel;stroke-opacity:1;font-family:Helvetica"
     id="g16"
     font-style="normal"
     font-weight="400"
     font-size="12"
     transform="translate(24.915335,17.129293)">
    <polyline
       style="fill:none"
       id="polyline18"
       points="155,254 155,264 "
       vector-effect="none" />
  </g>
  <g
     style="font-size:12px;font-style:normal;font-weight:400;fill:none;stroke:#000080;stroke-width:3;stroke-linecap:square;stroke-linejoin:bevel;stroke-opacity:1;font-family:Helvetica"
     id="g20"
     font-style="normal"
     font-weight="400"
     font-size="12"
     transform="translate(24.915335,17.129293)">
    <polyline
       style="fill:none"
       id="polyline22"
       points="144,264 166,264 "
       vector-effect="none" />
    <polyline
       style="fill:none"
       id="polyline24"
       points="148,270 162,270 "
       vector-effect="none" />
    <polyline
       style="fill:none"
       id="polyline26"
       points="152,276 158,276 "
       vector-effect="none" />
  </g>
  <g
     style="font-size:12px;font-style:normal;font-weight:400;fill:none;stroke:#000080;stroke-width:3;stroke-linecap:square;stroke-linejoin:bevel;stroke-opacity:1;font-family:Helvetica"
     id="g28"
     font-style="normal"
     font-weight="400"
     font-size="12"
     transform="translate(24.915335,17.129293)" />
  <g
     style="font-size:12px;font-style:normal;font-weight:400;fill:none;stroke:#000080;stroke-width:2;stroke-linecap:square;stroke-linejoin:bevel;stroke-opacity:1;font-family:Helvetica"
     id="g30"
     font-style="normal"
     font-weight="400"
     font-size="12"
     transform="translate(24.915335,17.129293)">
    <polyline
       style="fill:none"
       id="polyline32"
       points="155,174 155,162 "
       vector-effect="none" />
    <polyline
       style="fill:none"
       id="polyline34"
       points="155,126 155,114 "
       vector-effect="none" />
    <path
       inkscape:connector-curvature="0"
       id="path36"
       d="m 155,150 c -3.314,0 -6,2.686 -6,6 0,3.314 2.686,6 6,6"
       vector-effect="none" />
    <path
       inkscape:connector-curvature="0"
       id="path38"
       d="m 155,138 c -3.314,0 -6,2.686 -6,6 0,3.314 2.686,6 6,6"
       vector-effect="none" />
    <path
       inkscape:connector-curvature="0"
       id="path40"
       d="m 155,126 c -3.314,0 -6,2.686 -6,6 0,3.314 2.686,6 6,6"
       vector-effect="none" />
  </g>
  <g
     style="font-size:12px;font-style:normal;font-weight:400;fill:none;stroke:#000080;stroke-width:2;stroke-linecap:square;stroke-linejoin:bevel;stroke-opacity:1;font-family:Helvetica"
     id="g42"
     font-style="normal"
     font-weight="400"
     font-size="12"
     transform="translate(24.915335,17.129293)" />
  <g
     style="font-size:12px;font-style:normal;font-weight:400;fill:none;stroke:#000080;stroke-width:4;stroke-linecap:square;stroke-linejoin:bevel;stroke-opacity:1;font-family:Helvetica"
     id="g44"
     font-style="normal"
     font-weight="400"
     font-size="12"
     transform="translate(24.915335,17.129293)">
    <polyline
       style="fill:none"
       id="polyline46"
       points="144,218 166,218 "
       vector-effect="none" />
    <polyline
       style="fill:none"
       id="polyline48"
       points="144,210 166,210 "
       vector-effect="none" />
  </g>
  <g
     style="font-size:12px;font-style:normal;font-weight:400;fill:none;stroke:#000080;stroke-width:2;stroke-linecap:square;stroke-linejoin:bevel;stroke-opacity:1;font-family:Helvetica"
     id="g50"
     font-style="normal"
     font-weight="400"
     font-size="12"
     transform="translate(24.915335,17.129293)">
    <polyline
       style="fill:none"
       id="polyline52"
       points="155,244 155,218 "
       vector-effect="none" />
    <polyline
       style="fill:none"
       id="polyline54"
       points="155,210 155,184 "
       vector-effect="none" />
  </g>
  <g
     style="font-size:12px;font-style:normal;font-weight:400;fill:none;stroke:#000080;stroke-width:2;stroke-linecap:square;stroke-linejoin:bevel;stroke-opacity:1;font-family:Helvetica"
     id="g56"
     font-style="normal"
     font-weight="400"
     font-size="12"
     transform="translate(24.915335,17.129293)" />
  <g
     style="font-size:12px;font-style:normal;font-weight:400;fill:none;stroke:#000080;stroke-width:4;stroke-linecap:square;stroke-linejoin:bevel;stroke-opacity:1;font-family:Helvetica"
     id="g58"
     font-style="normal"
     font-weight="400"
     font-size="12"
     transform="translate(24.915335,17.129293)">
    <polyline
       style="fill:none"
       id="polyline60"
       points="221,93 221,115 "
       vector-effect="none" />
    <polyline
       style="fill:none"
       id="polyline62"
       points="229,93 229,115 "
       vector-effect="none" />
  </g>
  <g
     style="font-size:12px;font-style:normal;font-weight:400;fill:none;stroke:#000080;stroke-width:2;stroke-linecap:square;stroke-linejoin:bevel;stroke-opacity:1;font-family:Helvetica"
     id="g64"
     font-style="normal"
     font-weight="400"
     font-size="12"
     transform="translate(24.915335,17.129293)">
    <polyline
       style="fill:none"
       id="polyline66"
       points="195,104 221,104 "
       vector-effect="none" />
    <polyline
       style="fill:none"
       id="polyline68"
       points="229,104 255,104 "
       vector-effect="none" />
  </g>
  <g
     style="font-size:12px;font-style:normal;font-weight:400;fill:none;stroke:#000080;stroke-width:2;stroke-linecap:square;stroke-linejoin:bevel;stroke-opacity:1;font-family:Helvetica"
     id="g70"
     font-style="normal"
     font-weight="400"
     font-size="12"
     transform="translate(24.915335,17.129293)" />
  <g
     style="font-size:12px;font-style:normal;font-weight:400;fill:none;stroke:#000080;stroke-width:2;stroke-linecap:square;stroke-linejoin:bevel;stroke-opacity:1;font-family:Helvetica"
     id="g72"
     font-style="normal"
     font-weight="400"
     font-size="12"
     transform="translate(24.915335,17.129293)">
    <polyline
       style="fill:none"
       id="polyline74"
       points="195,59 207,59 "
       vector-effect="none" />
    <polyline
       style="fill:none"
       id="polyline76"
       points="243,59 255,59 "
       vector-effect="none" />
    <path
       inkscape:connector-curvature="0"
       id="path78"
       d="m 219,59 c 0,-3.3137 -2.686,-6 -6,-6 -3.314,0 -6,2.6863 -6,6"
       vector-effect="none" />
    <path
       inkscape:connector-curvature="0"
       id="path80"
       d="m 231,59 c 0,-3.3137 -2.686,-6 -6,-6 -3.314,0 -6,2.6863 -6,6"
       vector-effect="none" />
    <path
       inkscape:connector-curvature="0"
       id="path82"
       d="m 243,59 c 0,-3.3137 -2.686,-6 -6,-6 -3.314,0 -6,2.6863 -6,6"
       vector-effect="none" />
  </g>
  <g
     style="font-size:12px;font-style:normal;font-weight:400;fill:none;stroke:#000080;stroke-width:2;stroke-linecap:square;stroke-linejoin:bevel;stroke-opacity:1;font-family:Helvetica"
     id="g84"
     font-style="normal"
     font-weight="400"
     font-size="12"
     transform="translate(24.915335,17.129293)" />
  <g
     style="font-size:12px;font-style:normal;font-weight:400;fill:none;stroke:#000080;stroke-width:4;stroke-linecap:square;stroke-linejoin:bevel;stroke-opacity:1;font-family:Helvetica"
     id="g86"
     font-style="normal"
     font-weight="400"
     font-size="12"
     transform="translate(24.915335,17.129293)">
    <polyline
       style="fill:none"
       id="polyline88"
       points="81,93 81,115 "
       vector-effect="none" />
    <polyline
       style="fill:none"
       id="polyline90"
       points="89,93 89,115 "
       vector-effect="none" />
  </g>
  <g
     style="font-size:12px;font-style:normal;font-weight:400;fill:none;stroke:#000080;stroke-width:2;stroke-linecap:square;stroke-linejoin:bevel;stroke-opacity:1;font-family:Helvetica"
     id="g92"
     font-style="normal"
     font-weight="400"
     font-size="12"
     transform="translate(24.915335,17.129293)">
    <polyline
       style="fill:none"
       id="polyline94"
       points="55,104 81,104 "
       vector-effect="none" />
    <polyline
       style="fill:none"
       id="polyline96"
       points="89,104 115,104 "
       vector-effect="none" />
  </g>
  <g
     style="font-size:12px;font-style:normal;font-weight:400;fill:none;stroke:#000080;stroke-width:2;stroke-linecap:square;stroke-linejoin:bevel;stroke-opacity:1;font-family:Helvetica"
     id="g98"
     font-style="normal"
     font-weight="400"
     font-size="12"
     transform="translate(24.915335,17.129293)" />
  <g
     style="font-size:12px;font-style:normal;font-weight:400;fill:none;stroke:#000080;stroke-width:2;stroke-linecap:square;stroke-linejoin:bevel;stroke-opacity:1;font-family:Helvetica"
     id="g100"
     font-style="normal"
     font-weight="400"
     font-size="12"
     transform="translate(24.915335,17.129293)">
    <polyline
       style="fill:none"
       id="polyline102"
       points="55,59 67,59 "
       vector-effect="none" />
    <polyline
       style="fill:none"
       id="polyline104"
       points="103,59 115,59 "
       vector-effect="none" />
    <path
       inkscape:connector-curvature="0"
       id="path106"
       d="m 79,59 c 0,-3.3137 -2.6863,-6 -6,-6 -3.3137,0 -6,2.6863 -6,6"
       vector-effect="none" />
    <path
       inkscape:connector-curvature="0"
       id="path108"
       d="m 91,59 c 0,-3.3137 -2.6863,-6 -6,-6 -3.3137,0 -6,2.6863 -6,6"
       vector-effect="none" />
    <path
       inkscape:connector-curvature="0"
       id="path110"
       d="m 103,59 c 0,-3.3137 -2.686,-6 -6,-6 -3.3137,0 -6,2.6863 -6,6"
       vector-effect="none" />
  </g>
  <g
     style="font-size:12px;font-style:normal;font-weight:400;fill:none;stroke:#000080;stroke-width:2;stroke-linecap:square;stroke-linejoin:bevel;stroke-opacity:1;font-family:Helvetica"
     id="g112"
     font-style="normal"
     font-weight="400"
     font-size="12"
     transform="translate(24.915335,17.129293)" />
  <g
     style="font-size:12px;font-style:normal;font-weight:400;fill:none;stroke:#000080;stroke-width:2;stroke-linecap:square;stroke-linejoin:bevel;stroke-opacity:1;font-family:Helvetica"
     id="g114"
     font-style="normal"
     font-weight="400"
     font-size="12"
     transform="translate(24.915335,17.129293)">
    <polyline
       style="fill:none"
       id="polyline116"
       points="155,84 195,84 "
       vector-effect="none" />
    <polyline
       style="fill:none"
       id="polyline118"
       points="115,84 155,84 "
       vector-effect="none" />
    <polyline
       style="fill:none"
       id="polyline120"
       points="255,84 285,84 "
       vector-effect="none" />
    <polyline
       style="fill:none"
       id="polyline122"
       points="15,84 55,84 "
       vector-effect="none" />
    <polyline
       style="fill:none"
       id="polyline124"
       points="155,84 155,114 "
       vector-effect="none" />
    <polyline
       style="fill:none"
       id="polyline126"
       points="155,174 155,184 "
       vector-effect="none" />
    <polyline
       style="fill:none"
       id="polyline128"
       points="155,244 155,254 "
       vector-effect="none" />
    <polyline
       style="fill:none"
       id="polyline130"
       points="255,84 255,104 "
       vector-effect="none" />
    <polyline
       style="fill:none"
       id="polyline132"
       points="195,84 195,104 "
       vector-effect="none" />
    <polyline
       style="fill:none"
       id="polyline134"
       points="255,59 255,84 "
       vector-effect="none" />
    <polyline
       style="fill:none"
       id="polyline136"
       points="195,59 195,84 "
       vector-effect="none" />
    <polyline
       style="fill:none"
       id="polyline138"
       points="115,84 115,104 "
       vector-effect="none" />
    <polyline
       style="fill:none"
       id="polyline140"
       points="55,84 55,104 "
       vector-effect="none" />
    <polyline
       style="fill:none"
       id="polyline142"
       points="115,59 115,84 "
       vector-effect="none" />
    <polyline
       style="fill:none"
       id="polyline144"
       points="55,59 55,84 "
       vector-effect="none" />
  </g>
  <g
     style="font-size:12px;font-style:normal;font-weight:400;fill:#000080;fill-opacity:1;stroke:#000080;stroke-width:1;stroke-linecap:square;stroke-linejoin:bevel;stroke-opacity:1;font-family:Helvetica"
     id="g146"
     font-style="normal"
     font-weight="400"
     font-size="12"
     transform="translate(24.915335,17.129293)">
    <path
       style="fill-rule:evenodd"
       inkscape:connector-curvature="0"
       id="path148"
       d="m 58,84 c 0,1.6569 -1.3431,3 -3,3 -1.6569,0 -3,-1.3431 -3,-3 0,-1.6569 1.3431,-3 3,-3 1.6569,0 3,1.3431 3,3"
       vector-effect="none" />
  </g>
  <g
     style="font-size:12px;font-style:normal;font-weight:400;fill:#000080;fill-opacity:1;stroke:#000080;stroke-width:1;stroke-linecap:square;stroke-linejoin:bevel;stroke-opacity:1;font-family:Helvetica"
     id="g150"
     font-style="normal"
     font-weight="400"
     font-size="12"
     transform="translate(24.915335,17.129293)">
    <path
       style="fill-rule:evenodd"
       inkscape:connector-curvature="0"
       id="path152"
       d="m 118,84 c 0,1.6569 -1.343,3 -3,3 -1.657,0 -3,-1.3431 -3,-3 0,-1.6569 1.343,-3 3,-3 1.657,0 3,1.3431 3,3"
       vector-effect="none" />
  </g>
  <g
     style="font-size:12px;font-style:normal;font-weight:400;fill:#000080;fill-opacity:1;stroke:none;font-family:Helvetica"
     id="g154"
     font-style="normal"
     font-weight="400"
     font-size="12"
     transform="translate(24.915335,17.129293)">
    <path
       style="fill-rule:evenodd"
       inkscape:connector-curvature="0"
       id="path156"
       d="m 153,252 4,0 0,4 -4,0 0,-4"
       vector-effect="non-scaling-stroke" />
  </g>
  <g
     style="font-size:12px;font-style:normal;font-weight:400;fill:#000080;fill-opacity:1;stroke:#000080;stroke-width:1;stroke-linecap:square;stroke-linejoin:bevel;stroke-opacity:1;font-family:Helvetica"
     id="g158"
     font-style="normal"
     font-weight="400"
     font-size="12"
     transform="translate(24.915335,17.129293)">
    <path
       style="fill-rule:evenodd"
       inkscape:connector-curvature="0"
       id="path160"
       d="m 198,84 c 0,1.6569 -1.343,3 -3,3 -1.657,0 -3,-1.3431 -3,-3 0,-1.6569 1.343,-3 3,-3 1.657,0 3,1.3431 3,3"
       vector-effect="none" />
  </g>
  <g
     style="font-size:12px;font-style:normal;font-weight:400;fill:#000080;fill-opacity:1;stroke:#000080;stroke-width:1;stroke-linecap:square;stroke-linejoin:bevel;stroke-opacity:1;font-family:Helvetica"
     id="g162"
     font-style="normal"
     font-weight="400"
     font-size="12"
     transform="translate(24.915335,17.129293)">
    <path
       style="fill-rule:evenodd"
       inkscape:connector-curvature="0"
       id="path164"
       d="m 258,84 c 0,1.6569 -1.343,3 -3,3 -1.657,0 -3,-1.3431 -3,-3 0,-1.6569 1.343,-3 3,-3 1.657,0 3,1.3431 3,3"
       vector-effect="none" />
  </g>
  <g
     style="font-size:12px;font-style:normal;font-weight:400;fill:#000080;fill-opacity:1;stroke:#000080;stroke-width:1;stroke-linecap:square;stroke-linejoin:bevel;stroke-opacity:1;font-family:Helvetica"
     id="g166"
     font-style="normal"
     font-weight="400"
     font-size="12"
     transform="translate(24.915335,17.129293)">
    <path
       style="fill-rule:evenodd"
       inkscape:connector-curvature="0"
       id="path168"
       d="m 158,84 c 0,1.6569 -1.343,3 -3,3 -1.657,0 -3,-1.3431 -3,-3 0,-1.6569 1.343,-3 3,-3 1.657,0 3,1.3431 3,3"
       vector-effect="none" />
  </g>
  <g
     style="font-size:12px;font-style:normal;font-weight:400;fill:none;stroke:#ff0000;stroke-width:1;stroke-linecap:square;stroke-linejoin:bevel;stroke-opacity:1;font-family:Helvetica"
     id="g170"
     font-style="normal"
     font-weight="400"
     font-size="12"
     transform="translate(24.915335,17.129293)">
    <path
       inkscape:connector-curvature="0"
       id="path172"
       d="m 289,84 c 0,2.2091 -1.791,4 -4,4 -2.209,0 -4,-1.7909 -4,-4 0,-2.2091 1.791,-4 4,-4 2.209,0 4,1.7909 4,4"
       vector-effect="none" />
    <path
       inkscape:connector-curvature="0"
       id="path174"
       d="m 19,84 c 0,2.2091 -1.7909,4 -4,4 -2.2091,0 -4,-1.7909 -4,-4 0,-2.2091 1.7909,-4 4,-4 2.2091,0 4,1.7909 4,4"
       vector-effect="none" />
  </g>
  <g
     style="font-size:12px;font-style:normal;font-weight:400;fill:#000080;fill-opacity:1;stroke:none;font-family:Helvetica"
     id="g176"
     font-style="normal"
     font-weight="400"
     font-size="12"
     transform="translate(24.915335,17.129293)">
    <path
       style="fill-rule:evenodd"
       inkscape:connector-curvature="0"
       id="path178"
       d="m 153,172 4,0 0,4 -4,0 0,-4"
       vector-effect="non-scaling-stroke" />
  </g>
  <g
     style="font-size:12px;font-style:normal;font-weight:400;fill:#000080;fill-opacity:1;stroke:none;font-family:Helvetica"
     id="g180"
     font-style="normal"
     font-weight="400"
     font-size="12"
     transform="translate(24.915335,17.129293)">
    <path
       style="fill-rule:evenodd"
       inkscape:connector-curvature="0"
       id="path182"
       d="m 153,112 4,0 0,4 -4,0 0,-4"
       vector-effect="non-scaling-stroke" />
  </g>
  <g
     style="font-size:12px;font-style:normal;font-weight:400;fill:#000080;fill-opacity:1;stroke:none;font-family:Helvetica"
     id="g184"
     font-style="normal"
     font-weight="400"
     font-size="12"
     transform="translate(24.915335,17.129293)">
    <path
       style="fill-rule:evenodd"
       inkscape:connector-curvature="0"
       id="path186"
       d="m 153,242 4,0 0,4 -4,0 0,-4"
       vector-effect="non-scaling-stroke" />
  </g>
  <g
     style="font-size:12px;font-style:normal;font-weight:400;fill:#000080;fill-opacity:1;stroke:none;font-family:Helvetica"
     id="g188"
     font-style="normal"
     font-weight="400"
     font-size="12"
     transform="translate(24.915335,17.129293)">
    <path
       style="fill-rule:evenodd"
       inkscape:connector-curvature="0"
       id="path190"
       d="m 153,182 4,0 0,4 -4,0 0,-4"
       vector-effect="non-scaling-stroke" />
  </g>
  <g
     style="font-size:12px;font-style:normal;font-weight:400;fill:#000080;fill-opacity:1;stroke:none;font-family:Helvetica"
     id="g192"
     font-style="normal"
     font-weight="400"
     font-size="12"
     transform="translate(24.915335,17.129293)">
    <path
       style="fill-rule:evenodd"
       inkscape:connector-curvature="0"
       id="path194"
       d="m 193,102 4,0 0,4 -4,0 0,-4"
       vector-effect="non-scaling-stroke" />
  </g>
  <g
     style="font-size:12px;font-style:normal;font-weight:400;fill:#000080;fill-opacity:1;stroke:none;font-family:Helvetica"
     id="g196"
     font-style="normal"
     font-weight="400"
     font-size="12"
     transform="translate(24.915335,17.129293)">
    <path
       style="fill-rule:evenodd"
       inkscape:connector-curvature="0"
       id="path198"
       d="m 253,102 4,0 0,4 -4,0 0,-4"
       vector-effect="non-scaling-stroke" />
  </g>
  <g
     style="font-size:12px;font-style:normal;font-weight:400;fill:#000080;fill-opacity:1;stroke:none;font-family:Helvetica"
     id="g200"
     font-style="normal"
     font-weight="400"
     font-size="12"
     transform="translate(24.915335,17.129293)">
    <path
       style="fill-rule:evenodd"
       inkscape:connector-curvature="0"
       id="path202"
       d="m 193,57 4,0 0,4 -4,0 0,-4"
       vector-effect="non-scaling-stroke" />
  </g>
  <g
     style="font-size:12px;font-style:normal;font-weight:400;fill:#000080;fill-opacity:1;stroke:none;font-family:Helvetica"
     id="g204"
     font-style="normal"
     font-weight="400"
     font-size="12"
     transform="translate(24.915335,17.129293)">
    <path
       style="fill-rule:evenodd"
       inkscape:connector-curvature="0"
       id="path206"
       d="m 253,57 4,0 0,4 -4,0 0,-4"
       vector-effect="non-scaling-stroke" />
  </g>
  <g
     style="font-size:12px;font-style:normal;font-weight:400;fill:#000080;fill-opacity:1;stroke:none;font-family:Helvetica"
     id="g208"
     font-style="normal"
     font-weight="400"
     font-size="12"
     transform="translate(24.915335,17.129293)">
    <path
       style="fill-rule:evenodd"
       inkscape:connector-curvature="0"
       id="path210"
       d="m 53,102 4,0 0,4 -4,0 0,-4"
       vector-effect="non-scaling-stroke" />
  </g>
  <g
     style="font-size:12px;font-style:normal;font-weight:400;fill:#000080;fill-opacity:1;stroke:none;font-family:Helvetica"
     id="g212"
     font-style="normal"
     font-weight="400"
     font-size="12"
     transform="translate(24.915335,17.129293)">
    <path
       style="fill-rule:evenodd"
       inkscape:connector-curvature="0"
       id="path214"
       d="m 113,102 4,0 0,4 -4,0 0,-4"
       vector-effect="non-scaling-stroke" />
  </g>
  <g
     style="font-size:12px;font-style:normal;font-weight:400;fill:#000080;fill-opacity:1;stroke:none;font-family:Helvetica"
     id="g216"
     font-style="normal"
     font-weight="400"
     font-size="12"
     transform="translate(24.915335,17.129293)">
    <path
       style="fill-rule:evenodd"
       inkscape:connector-curvature="0"
       id="path218"
       d="m 53,57 4,0 0,4 -4,0 0,-4"
       vector-effect="non-scaling-stroke" />
  </g>
  <g
     style="font-size:12px;font-style:normal;font-weight:400;fill:#000080;fill-opacity:1;stroke:none;font-family:Helvetica"
     id="g220"
     font-style="normal"
     font-weight="400"
     font-size="12"
     transform="translate(24.915335,17.129293)">
    <path
       style="fill-rule:evenodd"
       inkscape:connector-curvature="0"
       id="path222"
       d="m 113,57 4,0 0,4 -4,0 0,-4"
       vector-effect="non-scaling-stroke" />
  </g>
</svg>
