<?xml version="1.0" encoding="UTF-8" standalone="no"?>
<svg
   xmlns:dc="http://purl.org/dc/elements/1.1/"
   xmlns:cc="http://creativecommons.org/ns#"
   xmlns:rdf="http://www.w3.org/1999/02/22-rdf-syntax-ns#"
   xmlns:svg="http://www.w3.org/2000/svg"
   xmlns="http://www.w3.org/2000/svg"
   xmlns:sodipodi="http://sodipodi.sourceforge.net/DTD/sodipodi-0.dtd"
   xmlns:inkscape="http://www.inkscape.org/namespaces/inkscape"
   width="280"
   height="220"
   version="1.2"
   id="svg2"
   inkscape:version="0.48.4 r9939"
   sodipodi:docname="CCoupled_Shunt_Resonators.svg">
  <metadata
     id="metadata256">
    <rdf:RDF>
      <cc:Work
         rdf:about="">
        <dc:format>image/svg+xml</dc:format>
        <dc:type
           rdf:resource="http://purl.org/dc/dcmitype/StillImage" />
      </cc:Work>
    </rdf:RDF>
  </metadata>
  <sodipodi:namedview
     pagecolor="#ffffff"
     bordercolor="#666666"
     borderopacity="1"
     objecttolerance="10"
     gridtolerance="10"
     guidetolerance="10"
     inkscape:pageopacity="0"
     inkscape:pageshadow="2"
     inkscape:window-width="640"
     inkscape:window-height="480"
     id="namedview254"
     showgrid="false"
     inkscape:zoom="1.1047619"
     inkscape:cx="157.77214"
     inkscape:cy="95.328608"
     inkscape:window-x="0"
     inkscape:window-y="27"
     inkscape:window-maximized="0"
     inkscape:current-layer="svg2" />
  <title
     id="title4">Qt Svg Document</title>
  <desc
     id="desc6">Generated with Qt</desc>
  <defs
     id="defs8" />
  <g
     style="font-size:12px;font-style:normal;font-weight:400;fill:none;stroke:#000080;stroke-width:2;stroke-linecap:square;stroke-linejoin:bevel;stroke-opacity:1;font-family:Helvetica"
     id="g16"
     font-style="normal"
     font-weight="400"
     font-size="12"
     transform="matrix(0.50950566,0,0,0.70403399,7.2899179,30.062346)">
    <polyline
       style="fill:none"
       id="polyline18"
       points="105,88 105,98 "
       vector-effect="none" />
  </g>
  <g
     style="font-size:12px;font-style:normal;font-weight:400;fill:none;stroke:#000080;stroke-width:3;stroke-linecap:square;stroke-linejoin:bevel;stroke-opacity:1;font-family:Helvetica"
     id="g20"
     font-style="normal"
     font-weight="400"
     font-size="12"
     transform="matrix(0.50950566,0,0,0.70403399,7.2899179,30.062346)">
    <polyline
       style="fill:none"
       id="polyline22"
       points="94,98 116,98 "
       vector-effect="none" />
    <polyline
       style="fill:none"
       id="polyline24"
       points="98,104 112,104 "
       vector-effect="none" />
    <polyline
       style="fill:none"
       id="polyline26"
       points="102,110 108,110 "
       vector-effect="none" />
  </g>
  <g
     style="font-size:12px;font-style:normal;font-weight:400;fill:none;stroke:#000080;stroke-width:3;stroke-linecap:square;stroke-linejoin:bevel;stroke-opacity:1;font-family:Helvetica"
     id="g28"
     font-style="normal"
     font-weight="400"
     font-size="12"
     transform="matrix(0.50950566,0,0,0.70403399,7.2899179,30.062346)" />
  <g
     style="font-size:12px;font-style:normal;font-weight:400;fill:none;stroke:#000080;stroke-width:2;stroke-linecap:square;stroke-linejoin:bevel;stroke-opacity:1;font-family:Helvetica"
     id="g30"
     font-style="normal"
     font-weight="400"
     font-size="12"
     transform="matrix(0.50950566,0,0,0.70403399,7.2899179,30.062346)">
    <polyline
       style="fill:none"
       id="polyline32"
       points="225,88 225,98 "
       vector-effect="none" />
  </g>
  <g
     style="font-size:12px;font-style:normal;font-weight:400;fill:none;stroke:#000080;stroke-width:3;stroke-linecap:square;stroke-linejoin:bevel;stroke-opacity:1;font-family:Helvetica"
     id="g34"
     font-style="normal"
     font-weight="400"
     font-size="12"
     transform="matrix(0.50950566,0,0,0.70403399,7.2899179,30.062346)">
    <polyline
       style="fill:none"
       id="polyline36"
       points="214,98 236,98 "
       vector-effect="none" />
    <polyline
       style="fill:none"
       id="polyline38"
       points="218,104 232,104 "
       vector-effect="none" />
    <polyline
       style="fill:none"
       id="polyline40"
       points="222,110 228,110 "
       vector-effect="none" />
  </g>
  <g
     style="font-size:12px;font-style:normal;font-weight:400;fill:none;stroke:#000080;stroke-width:3;stroke-linecap:square;stroke-linejoin:bevel;stroke-opacity:1;font-family:Helvetica"
     id="g42"
     font-style="normal"
     font-weight="400"
     font-size="12"
     transform="matrix(0.50950566,0,0,0.70403399,7.2899179,30.062346)" />
  <g
     style="font-size:12px;font-style:normal;font-weight:400;fill:none;stroke:#000080;stroke-width:2;stroke-linecap:square;stroke-linejoin:bevel;stroke-opacity:1;font-family:Helvetica"
     id="g44"
     font-style="normal"
     font-weight="400"
     font-size="12"
     transform="matrix(0.50950566,0,0,0.70403399,7.2899179,30.062346)">
    <polyline
       style="fill:none"
       id="polyline46"
       points="345,88 345,98 "
       vector-effect="none" />
  </g>
  <g
     style="font-size:12px;font-style:normal;font-weight:400;fill:none;stroke:#000080;stroke-width:3;stroke-linecap:square;stroke-linejoin:bevel;stroke-opacity:1;font-family:Helvetica"
     id="g48"
     font-style="normal"
     font-weight="400"
     font-size="12"
     transform="matrix(0.50950566,0,0,0.70403399,7.2899179,30.062346)">
    <polyline
       style="fill:none"
       id="polyline50"
       points="334,98 356,98 "
       vector-effect="none" />
    <polyline
       style="fill:none"
       id="polyline52"
       points="338,104 352,104 "
       vector-effect="none" />
    <polyline
       style="fill:none"
       id="polyline54"
       points="342,110 348,110 "
       vector-effect="none" />
  </g>
  <g
     style="font-size:12px;font-style:normal;font-weight:400;fill:none;stroke:#000080;stroke-width:3;stroke-linecap:square;stroke-linejoin:bevel;stroke-opacity:1;font-family:Helvetica"
     id="g56"
     font-style="normal"
     font-weight="400"
     font-size="12"
     transform="matrix(0.50950566,0,0,0.70403399,7.2899179,30.062346)" />
  <g
     style="font-size:12px;font-style:normal;font-weight:400;fill:none;stroke:#000080;stroke-width:4;stroke-linecap:square;stroke-linejoin:bevel;stroke-opacity:1;font-family:Helvetica"
     id="g58"
     font-style="normal"
     font-weight="400"
     font-size="12"
     transform="matrix(0.50950566,0,0,0.70403399,7.2899179,30.062346)">
    <polyline
       style="fill:none"
       id="polyline60"
       points="41,17 41,39 "
       vector-effect="none" />
    <polyline
       style="fill:none"
       id="polyline62"
       points="49,17 49,39 "
       vector-effect="none" />
  </g>
  <g
     style="font-size:12px;font-style:normal;font-weight:400;fill:none;stroke:#000080;stroke-width:2;stroke-linecap:square;stroke-linejoin:bevel;stroke-opacity:1;font-family:Helvetica"
     id="g64"
     font-style="normal"
     font-weight="400"
     font-size="12"
     transform="matrix(0.50950566,0,0,0.70403399,7.2899179,30.062346)">
    <polyline
       style="fill:none"
       id="polyline66"
       points="15,28 41,28 "
       vector-effect="none" />
    <polyline
       style="fill:none"
       id="polyline68"
       points="49,28 75,28 "
       vector-effect="none" />
  </g>
  <g
     style="font-size:12px;font-style:normal;font-weight:400;fill:none;stroke:#000080;stroke-width:2;stroke-linecap:square;stroke-linejoin:bevel;stroke-opacity:1;font-family:Helvetica"
     id="g70"
     font-style="normal"
     font-weight="400"
     font-size="12"
     transform="matrix(0.50950566,0,0,0.70403399,7.2899179,30.062346)" />
  <g
     style="font-size:12px;font-style:normal;font-weight:400;fill:none;stroke:#000080;stroke-width:2;stroke-linecap:square;stroke-linejoin:bevel;stroke-opacity:1;font-family:Helvetica"
     id="g72"
     font-style="normal"
     font-weight="400"
     font-size="12"
     transform="matrix(0.50950566,0,0,0.70403399,7.2899179,30.062346)">
    <polyline
       style="fill:none"
       id="polyline74"
       points="105,88 105,28 "
       vector-effect="none" />
    <polyline
       style="fill:none"
       id="polyline76"
       points="112,86 112,30 "
       vector-effect="none" />
    <polyline
       style="fill:none"
       id="polyline78"
       points="119,86 112,79 "
       vector-effect="none" />
    <polyline
       style="fill:none"
       id="polyline80"
       points="119,79 112,72 "
       vector-effect="none" />
    <polyline
       style="fill:none"
       id="polyline82"
       points="119,72 112,65 "
       vector-effect="none" />
    <polyline
       style="fill:none"
       id="polyline84"
       points="119,65 112,58 "
       vector-effect="none" />
    <polyline
       style="fill:none"
       id="polyline86"
       points="119,58 112,51 "
       vector-effect="none" />
    <polyline
       style="fill:none"
       id="polyline88"
       points="119,51 112,44 "
       vector-effect="none" />
    <polyline
       style="fill:none"
       id="polyline90"
       points="119,44 112,37 "
       vector-effect="none" />
    <polyline
       style="fill:none"
       id="polyline92"
       points="119,37 112,30 "
       vector-effect="none" />
  </g>
  <g
     style="font-size:12px;font-style:normal;font-weight:400;fill:none;stroke:#000080;stroke-width:2;stroke-linecap:square;stroke-linejoin:bevel;stroke-opacity:1;font-family:Helvetica"
     id="g94"
     font-style="normal"
     font-weight="400"
     font-size="12"
     transform="matrix(0.50950566,0,0,0.70403399,7.2899179,30.062346)" />
  <g
     style="font-size:12px;font-style:normal;font-weight:400;fill:none;stroke:#000080;stroke-width:2;stroke-linecap:square;stroke-linejoin:bevel;stroke-opacity:1;font-family:Helvetica"
     id="g96"
     font-style="normal"
     font-weight="400"
     font-size="12"
     transform="matrix(0.50950566,0,0,0.70403399,7.2899179,30.062346)">
    <polyline
       style="fill:none"
       id="polyline98"
       points="225,88 225,28 "
       vector-effect="none" />
    <polyline
       style="fill:none"
       id="polyline100"
       points="232,86 232,30 "
       vector-effect="none" />
    <polyline
       style="fill:none"
       id="polyline102"
       points="239,86 232,79 "
       vector-effect="none" />
    <polyline
       style="fill:none"
       id="polyline104"
       points="239,79 232,72 "
       vector-effect="none" />
    <polyline
       style="fill:none"
       id="polyline106"
       points="239,72 232,65 "
       vector-effect="none" />
    <polyline
       style="fill:none"
       id="polyline108"
       points="239,65 232,58 "
       vector-effect="none" />
    <polyline
       style="fill:none"
       id="polyline110"
       points="239,58 232,51 "
       vector-effect="none" />
    <polyline
       style="fill:none"
       id="polyline112"
       points="239,51 232,44 "
       vector-effect="none" />
    <polyline
       style="fill:none"
       id="polyline114"
       points="239,44 232,37 "
       vector-effect="none" />
    <polyline
       style="fill:none"
       id="polyline116"
       points="239,37 232,30 "
       vector-effect="none" />
  </g>
  <g
     style="font-size:12px;font-style:normal;font-weight:400;fill:none;stroke:#000080;stroke-width:2;stroke-linecap:square;stroke-linejoin:bevel;stroke-opacity:1;font-family:Helvetica"
     id="g118"
     font-style="normal"
     font-weight="400"
     font-size="12"
     transform="matrix(0.50950566,0,0,0.70403399,7.2899179,30.062346)" />
  <g
     style="font-size:12px;font-style:normal;font-weight:400;fill:none;stroke:#000080;stroke-width:2;stroke-linecap:square;stroke-linejoin:bevel;stroke-opacity:1;font-family:Helvetica"
     id="g120"
     font-style="normal"
     font-weight="400"
     font-size="12"
     transform="matrix(0.50950566,0,0,0.70403399,7.2899179,30.062346)">
    <polyline
       style="fill:none"
       id="polyline122"
       points="345,88 345,28 "
       vector-effect="none" />
    <polyline
       style="fill:none"
       id="polyline124"
       points="352,86 352,30 "
       vector-effect="none" />
    <polyline
       style="fill:none"
       id="polyline126"
       points="359,86 352,79 "
       vector-effect="none" />
    <polyline
       style="fill:none"
       id="polyline128"
       points="359,79 352,72 "
       vector-effect="none" />
    <polyline
       style="fill:none"
       id="polyline130"
       points="359,72 352,65 "
       vector-effect="none" />
    <polyline
       style="fill:none"
       id="polyline132"
       points="359,65 352,58 "
       vector-effect="none" />
    <polyline
       style="fill:none"
       id="polyline134"
       points="359,58 352,51 "
       vector-effect="none" />
    <polyline
       style="fill:none"
       id="polyline136"
       points="359,51 352,44 "
       vector-effect="none" />
    <polyline
       style="fill:none"
       id="polyline138"
       points="359,44 352,37 "
       vector-effect="none" />
    <polyline
       style="fill:none"
       id="polyline140"
       points="359,37 352,30 "
       vector-effect="none" />
  </g>
  <g
     style="font-size:12px;font-style:normal;font-weight:400;fill:none;stroke:#000080;stroke-width:2;stroke-linecap:square;stroke-linejoin:bevel;stroke-opacity:1;font-family:Helvetica"
     id="g142"
     font-style="normal"
     font-weight="400"
     font-size="12"
     transform="matrix(0.50950566,0,0,0.70403399,7.2899179,30.062346)" />
  <g
     style="font-size:12px;font-style:normal;font-weight:400;fill:none;stroke:#000080;stroke-width:4;stroke-linecap:square;stroke-linejoin:bevel;stroke-opacity:1;font-family:Helvetica"
     id="g144"
     font-style="normal"
     font-weight="400"
     font-size="12"
     transform="matrix(0.50950566,0,0,0.70403399,7.2899179,30.062346)">
    <polyline
       style="fill:none"
       id="polyline146"
       points="161,17 161,39 "
       vector-effect="none" />
    <polyline
       style="fill:none"
       id="polyline148"
       points="169,17 169,39 "
       vector-effect="none" />
  </g>
  <g
     style="font-size:12px;font-style:normal;font-weight:400;fill:none;stroke:#000080;stroke-width:2;stroke-linecap:square;stroke-linejoin:bevel;stroke-opacity:1;font-family:Helvetica"
     id="g150"
     font-style="normal"
     font-weight="400"
     font-size="12"
     transform="matrix(0.50950566,0,0,0.70403399,7.2899179,30.062346)">
    <polyline
       style="fill:none"
       id="polyline152"
       points="135,28 161,28 "
       vector-effect="none" />
    <polyline
       style="fill:none"
       id="polyline154"
       points="169,28 195,28 "
       vector-effect="none" />
  </g>
  <g
     style="font-size:12px;font-style:normal;font-weight:400;fill:none;stroke:#000080;stroke-width:2;stroke-linecap:square;stroke-linejoin:bevel;stroke-opacity:1;font-family:Helvetica"
     id="g156"
     font-style="normal"
     font-weight="400"
     font-size="12"
     transform="matrix(0.50950566,0,0,0.70403399,7.2899179,30.062346)" />
  <g
     style="font-size:12px;font-style:normal;font-weight:400;fill:none;stroke:#000080;stroke-width:4;stroke-linecap:square;stroke-linejoin:bevel;stroke-opacity:1;font-family:Helvetica"
     id="g158"
     font-style="normal"
     font-weight="400"
     font-size="12"
     transform="matrix(0.50950566,0,0,0.70403399,7.2899179,30.062346)">
    <polyline
       style="fill:none"
       id="polyline160"
       points="281,17 281,39 "
       vector-effect="none" />
    <polyline
       style="fill:none"
       id="polyline162"
       points="289,17 289,39 "
       vector-effect="none" />
  </g>
  <g
     style="font-size:12px;font-style:normal;font-weight:400;fill:none;stroke:#000080;stroke-width:2;stroke-linecap:square;stroke-linejoin:bevel;stroke-opacity:1;font-family:Helvetica"
     id="g164"
     font-style="normal"
     font-weight="400"
     font-size="12"
     transform="matrix(0.50950566,0,0,0.70403399,7.2899179,30.062346)">
    <polyline
       style="fill:none"
       id="polyline166"
       points="255,28 281,28 "
       vector-effect="none" />
    <polyline
       style="fill:none"
       id="polyline168"
       points="289,28 315,28 "
       vector-effect="none" />
  </g>
  <g
     style="font-size:12px;font-style:normal;font-weight:400;fill:none;stroke:#000080;stroke-width:2;stroke-linecap:square;stroke-linejoin:bevel;stroke-opacity:1;font-family:Helvetica"
     id="g170"
     font-style="normal"
     font-weight="400"
     font-size="12"
     transform="matrix(0.50950566,0,0,0.70403399,7.2899179,30.062346)" />
  <g
     style="font-size:12px;font-style:normal;font-weight:400;fill:none;stroke:#000080;stroke-width:4;stroke-linecap:square;stroke-linejoin:bevel;stroke-opacity:1;font-family:Helvetica"
     id="g172"
     font-style="normal"
     font-weight="400"
     font-size="12"
     transform="matrix(0.50950566,0,0,0.70403399,7.2899179,30.062346)">
    <polyline
       style="fill:none"
       id="polyline174"
       points="401,17 401,39 "
       vector-effect="none" />
    <polyline
       style="fill:none"
       id="polyline176"
       points="409,17 409,39 "
       vector-effect="none" />
  </g>
  <g
     style="font-size:12px;font-style:normal;font-weight:400;fill:none;stroke:#000080;stroke-width:2;stroke-linecap:square;stroke-linejoin:bevel;stroke-opacity:1;font-family:Helvetica"
     id="g178"
     font-style="normal"
     font-weight="400"
     font-size="12"
     transform="matrix(0.50950566,0,0,0.70403399,7.2899179,30.062346)">
    <polyline
       style="fill:none"
       id="polyline180"
       points="375,28 401,28 "
       vector-effect="none" />
    <polyline
       style="fill:none"
       id="polyline182"
       points="409,28 435,28 "
       vector-effect="none" />
  </g>
  <g
     style="font-size:12px;font-style:normal;font-weight:400;fill:none;stroke:#000080;stroke-width:2;stroke-linecap:square;stroke-linejoin:bevel;stroke-opacity:1;font-family:Helvetica"
     id="g184"
     font-style="normal"
     font-weight="400"
     font-size="12"
     transform="matrix(0.50950566,0,0,0.70403399,7.2899179,30.062346)" />
  <g
     style="font-size:12px;font-style:normal;font-weight:400;fill:none;stroke:#000080;stroke-width:2;stroke-linecap:square;stroke-linejoin:bevel;stroke-opacity:1;font-family:Helvetica"
     id="g186"
     font-style="normal"
     font-weight="400"
     font-size="12"
     transform="matrix(0.50950566,0,0,0.70403399,7.2899179,30.062346)">
    <polyline
       style="fill:none"
       id="polyline188"
       points="195,28 225,28 "
       vector-effect="none" />
    <polyline
       style="fill:none"
       id="polyline190"
       points="315,28 345,28 "
       vector-effect="none" />
    <polyline
       style="fill:none"
       id="polyline192"
       points="75,28 105,28 "
       vector-effect="none" />
    <polyline
       style="fill:none"
       id="polyline194"
       points="105,28 135,28 "
       vector-effect="none" />
    <polyline
       style="fill:none"
       id="polyline196"
       points="225,28 255,28 "
       vector-effect="none" />
    <polyline
       style="fill:none"
       id="polyline198"
       points="345,28 375,28 "
       vector-effect="none" />
  </g>
  <g
     style="font-size:12px;font-style:normal;font-weight:400;fill:#000080;fill-opacity:1;stroke:none;font-family:Helvetica"
     id="g200"
     font-style="normal"
     font-weight="400"
     font-size="12"
     transform="matrix(0.50950566,0,0,0.70403399,7.2899179,30.062346)">
    <path
       style="fill-rule:evenodd"
       inkscape:connector-curvature="0"
       id="path202"
       d="m 103,86 4,0 0,4 -4,0 0,-4"
       vector-effect="non-scaling-stroke" />
  </g>
  <g
     style="font-size:12px;font-style:normal;font-weight:400;fill:#000080;fill-opacity:1;stroke:none;font-family:Helvetica"
     id="g204"
     font-style="normal"
     font-weight="400"
     font-size="12"
     transform="matrix(0.50950566,0,0,0.70403399,7.2899179,30.062346)">
    <path
       style="fill-rule:evenodd"
       inkscape:connector-curvature="0"
       id="path206"
       d="m 133,26 4,0 0,4 -4,0 0,-4"
       vector-effect="non-scaling-stroke" />
  </g>
  <g
     style="font-size:12px;font-style:normal;font-weight:400;fill:#000080;fill-opacity:1;stroke:none;font-family:Helvetica"
     id="g208"
     font-style="normal"
     font-weight="400"
     font-size="12"
     transform="matrix(0.50950566,0,0,0.70403399,7.2899179,30.062346)">
    <path
       style="fill-rule:evenodd"
       inkscape:connector-curvature="0"
       id="path210"
       d="m 193,26 4,0 0,4 -4,0 0,-4"
       vector-effect="non-scaling-stroke" />
  </g>
  <g
     style="font-size:12px;font-style:normal;font-weight:400;fill:#000080;fill-opacity:1;stroke:none;font-family:Helvetica"
     id="g212"
     font-style="normal"
     font-weight="400"
     font-size="12"
     transform="matrix(0.50950566,0,0,0.70403399,7.2899179,30.062346)">
    <path
       style="fill-rule:evenodd"
       inkscape:connector-curvature="0"
       id="path214"
       d="m 223,86 4,0 0,4 -4,0 0,-4"
       vector-effect="non-scaling-stroke" />
  </g>
  <g
     style="font-size:12px;font-style:normal;font-weight:400;fill:#000080;fill-opacity:1;stroke:none;font-family:Helvetica"
     id="g216"
     font-style="normal"
     font-weight="400"
     font-size="12"
     transform="matrix(0.50950566,0,0,0.70403399,7.2899179,30.062346)">
    <path
       style="fill-rule:evenodd"
       inkscape:connector-curvature="0"
       id="path218"
       d="m 253,26 4,0 0,4 -4,0 0,-4"
       vector-effect="non-scaling-stroke" />
  </g>
  <g
     style="font-size:12px;font-style:normal;font-weight:400;fill:#000080;fill-opacity:1;stroke:none;font-family:Helvetica"
     id="g220"
     font-style="normal"
     font-weight="400"
     font-size="12"
     transform="matrix(0.50950566,0,0,0.70403399,7.2899179,30.062346)">
    <path
       style="fill-rule:evenodd"
       inkscape:connector-curvature="0"
       id="path222"
       d="m 313,26 4,0 0,4 -4,0 0,-4"
       vector-effect="non-scaling-stroke" />
  </g>
  <g
     style="font-size:12px;font-style:normal;font-weight:400;fill:#000080;fill-opacity:1;stroke:none;font-family:Helvetica"
     id="g224"
     font-style="normal"
     font-weight="400"
     font-size="12"
     transform="matrix(0.50950566,0,0,0.70403399,7.2899179,30.062346)">
    <path
       style="fill-rule:evenodd"
       inkscape:connector-curvature="0"
       id="path226"
       d="m 343,86 4,0 0,4 -4,0 0,-4"
       vector-effect="non-scaling-stroke" />
  </g>
  <g
     style="font-size:12px;font-style:normal;font-weight:400;fill:#000080;fill-opacity:1;stroke:none;font-family:Helvetica"
     id="g228"
     font-style="normal"
     font-weight="400"
     font-size="12"
     transform="matrix(0.50950566,0,0,0.70403399,7.2899179,30.062346)">
    <path
       style="fill-rule:evenodd"
       inkscape:connector-curvature="0"
       id="path230"
       d="m 373,26 4,0 0,4 -4,0 0,-4"
       vector-effect="non-scaling-stroke" />
  </g>
  <g
     style="font-size:12px;font-style:normal;font-weight:400;fill:none;stroke:#ff0000;stroke-width:1;stroke-linecap:square;stroke-linejoin:bevel;stroke-opacity:1;font-family:Helvetica"
     id="g232"
     font-style="normal"
     font-weight="400"
     font-size="12"
     transform="matrix(0.50950566,0,0,0.70403399,7.2899179,30.062346)">
    <path
       inkscape:connector-curvature="0"
       id="path234"
       d="m 439,28 c 0,2.2091 -1.791,4 -4,4 -2.209,0 -4,-1.7909 -4,-4 0,-2.2091 1.791,-4 4,-4 2.209,0 4,1.7909 4,4"
       vector-effect="none" />
    <path
       inkscape:connector-curvature="0"
       id="path236"
       d="m 19,28 c 0,2.2091 -1.7909,4 -4,4 -2.2091,0 -4,-1.7909 -4,-4 0,-2.2091 1.7909,-4 4,-4 2.2091,0 4,1.7909 4,4"
       vector-effect="none" />
  </g>
  <g
     style="font-size:12px;font-style:normal;font-weight:400;fill:#000080;fill-opacity:1;stroke:none;font-family:Helvetica"
     id="g238"
     font-style="normal"
     font-weight="400"
     font-size="12"
     transform="matrix(0.50950566,0,0,0.70403399,7.2899179,30.062346)">
    <path
       style="fill-rule:evenodd"
       inkscape:connector-curvature="0"
       id="path240"
       d="m 73,26 4,0 0,4 -4,0 0,-4"
       vector-effect="non-scaling-stroke" />
  </g>
  <g
     style="font-size:12px;font-style:normal;font-weight:400;fill:#000080;fill-opacity:1;stroke:#000080;stroke-width:1;stroke-linecap:square;stroke-linejoin:bevel;stroke-opacity:1;font-family:Helvetica"
     id="g242"
     font-style="normal"
     font-weight="400"
     font-size="12"
     transform="matrix(0.50950566,0,0,0.70403399,7.2899179,30.062346)">
    <path
       style="fill-rule:evenodd"
       inkscape:connector-curvature="0"
       id="path244"
       d="m 108,28 c 0,1.6569 -1.343,3 -3,3 -1.657,0 -3,-1.3431 -3,-3 0,-1.6569 1.343,-3 3,-3 1.657,0 3,1.3431 3,3"
       vector-effect="none" />
  </g>
  <g
     style="font-size:12px;font-style:normal;font-weight:400;fill:#000080;fill-opacity:1;stroke:#000080;stroke-width:1;stroke-linecap:square;stroke-linejoin:bevel;stroke-opacity:1;font-family:Helvetica"
     id="g246"
     font-style="normal"
     font-weight="400"
     font-size="12"
     transform="matrix(0.50950566,0,0,0.70403399,7.2899179,30.062346)">
    <path
       style="fill-rule:evenodd"
       inkscape:connector-curvature="0"
       id="path248"
       d="m 228,28 c 0,1.6569 -1.343,3 -3,3 -1.657,0 -3,-1.3431 -3,-3 0,-1.6569 1.343,-3 3,-3 1.657,0 3,1.3431 3,3"
       vector-effect="none" />
  </g>
  <g
     style="font-size:12px;font-style:normal;font-weight:400;fill:#000080;fill-opacity:1;stroke:#000080;stroke-width:1;stroke-linecap:square;stroke-linejoin:bevel;stroke-opacity:1;font-family:Helvetica"
     id="g250"
     font-style="normal"
     font-weight="400"
     font-size="12"
     transform="matrix(0.50950566,0,0,0.70403399,7.2899179,30.062346)">
    <path
       style="fill-rule:evenodd"
       inkscape:connector-curvature="0"
       id="path252"
       d="m 348,28 c 0,1.6569 -1.343,3 -3,3 -1.657,0 -3,-1.3431 -3,-3 0,-1.6569 1.343,-3 3,-3 1.657,0 3,1.3431 3,3"
       vector-effect="none" />
  </g>
</svg>
