<?xml version="1.0" encoding="UTF-8" standalone="no"?>
<svg
   xmlns:dc="http://purl.org/dc/elements/1.1/"
   xmlns:cc="http://creativecommons.org/ns#"
   xmlns:rdf="http://www.w3.org/1999/02/22-rdf-syntax-ns#"
   xmlns:svg="http://www.w3.org/2000/svg"
   xmlns="http://www.w3.org/2000/svg"
   xmlns:sodipodi="http://sodipodi.sourceforge.net/DTD/sodipodi-0.dtd"
   xmlns:inkscape="http://www.inkscape.org/namespaces/inkscape"
   width="279.99994"
   height="220"
   version="1.2"
   id="svg2"
   inkscape:version="0.48.4 r9939"
   sodipodi:docname="LC_Ladder_Pi_Notch.svg">
  <metadata
     id="metadata208">
    <rdf:RDF>
      <cc:Work
         rdf:about="">
        <dc:format>image/svg+xml</dc:format>
        <dc:type
           rdf:resource="http://purl.org/dc/dcmitype/StillImage" />
      </cc:Work>
    </rdf:RDF>
  </metadata>
  <sodipodi:namedview
     pagecolor="#ffffff"
     bordercolor="#666666"
     borderopacity="1"
     objecttolerance="10"
     gridtolerance="10"
     guidetolerance="10"
     inkscape:pageopacity="0"
     inkscape:pageshadow="2"
     inkscape:window-width="640"
     inkscape:window-height="480"
     id="namedview206"
     showgrid="false"
     inkscape:zoom="0.64217479"
     inkscape:cx="139.99997"
     inkscape:cy="183.7506"
     inkscape:window-x="0"
     inkscape:window-y="27"
     inkscape:window-maximized="0"
     inkscape:current-layer="svg2" />
  <title
     id="title4">Qt Svg Document</title>
  <desc
     id="desc6">Generated with Qt</desc>
  <defs
     id="defs8" />
  <g
     style="font-size:12px;font-style:normal;font-weight:400;fill:none;stroke:#000080;stroke-width:2;stroke-linecap:square;stroke-linejoin:bevel;stroke-opacity:1;font-family:Helvetica"
     id="g16"
     font-style="normal"
     font-weight="400"
     font-size="12"
     transform="matrix(0.81257691,0,0,0.68730161,49.799742,9.8058718)">
    <polyline
       style="fill:none"
       id="polyline18"
       points="28,254 28,264 "
       vector-effect="none" />
  </g>
  <g
     style="font-size:12px;font-style:normal;font-weight:400;fill:none;stroke:#000080;stroke-width:3;stroke-linecap:square;stroke-linejoin:bevel;stroke-opacity:1;font-family:Helvetica"
     id="g20"
     font-style="normal"
     font-weight="400"
     font-size="12"
     transform="matrix(0.81257691,0,0,0.68730161,49.799742,9.8058718)">
    <polyline
       style="fill:none"
       id="polyline22"
       points="17,264 39,264 "
       vector-effect="none" />
    <polyline
       style="fill:none"
       id="polyline24"
       points="21,270 35,270 "
       vector-effect="none" />
    <polyline
       style="fill:none"
       id="polyline26"
       points="25,276 31,276 "
       vector-effect="none" />
  </g>
  <g
     style="font-size:12px;font-style:normal;font-weight:400;fill:none;stroke:#000080;stroke-width:3;stroke-linecap:square;stroke-linejoin:bevel;stroke-opacity:1;font-family:Helvetica"
     id="g28"
     font-style="normal"
     font-weight="400"
     font-size="12"
     transform="matrix(0.81257691,0,0,0.68730161,49.799742,9.8058718)" />
  <g
     style="font-size:12px;font-style:normal;font-weight:400;fill:none;stroke:#000080;stroke-width:2;stroke-linecap:square;stroke-linejoin:bevel;stroke-opacity:1;font-family:Helvetica"
     id="g30"
     font-style="normal"
     font-weight="400"
     font-size="12"
     transform="matrix(0.81257691,0,0,0.68730161,49.799742,9.8058718)">
    <polyline
       style="fill:none"
       id="polyline32"
       points="168,254 168,264 "
       vector-effect="none" />
  </g>
  <g
     style="font-size:12px;font-style:normal;font-weight:400;fill:none;stroke:#000080;stroke-width:3;stroke-linecap:square;stroke-linejoin:bevel;stroke-opacity:1;font-family:Helvetica"
     id="g34"
     font-style="normal"
     font-weight="400"
     font-size="12"
     transform="matrix(0.81257691,0,0,0.68730161,49.799742,9.8058718)">
    <polyline
       style="fill:none"
       id="polyline36"
       points="157,264 179,264 "
       vector-effect="none" />
    <polyline
       style="fill:none"
       id="polyline38"
       points="161,270 175,270 "
       vector-effect="none" />
    <polyline
       style="fill:none"
       id="polyline40"
       points="165,276 171,276 "
       vector-effect="none" />
  </g>
  <g
     style="font-size:12px;font-style:normal;font-weight:400;fill:none;stroke:#000080;stroke-width:3;stroke-linecap:square;stroke-linejoin:bevel;stroke-opacity:1;font-family:Helvetica"
     id="g42"
     font-style="normal"
     font-weight="400"
     font-size="12"
     transform="matrix(0.81257691,0,0,0.68730161,49.799742,9.8058718)" />
  <g
     style="font-size:12px;font-style:normal;font-weight:400;fill:none;stroke:#000080;stroke-width:2;stroke-linecap:square;stroke-linejoin:bevel;stroke-opacity:1;font-family:Helvetica"
     id="g44"
     font-style="normal"
     font-weight="400"
     font-size="12"
     transform="matrix(0.81257691,0,0,0.68730161,49.799742,9.8058718)">
    <polyline
       style="fill:none"
       id="polyline46"
       points="168,164 168,152 "
       vector-effect="none" />
    <polyline
       style="fill:none"
       id="polyline48"
       points="168,116 168,104 "
       vector-effect="none" />
    <path
       inkscape:connector-curvature="0"
       id="path50"
       d="m 168,140 c -3.314,0 -6,2.686 -6,6 0,3.314 2.686,6 6,6"
       vector-effect="none" />
    <path
       inkscape:connector-curvature="0"
       id="path52"
       d="m 168,128 c -3.314,0 -6,2.686 -6,6 0,3.314 2.686,6 6,6"
       vector-effect="none" />
    <path
       inkscape:connector-curvature="0"
       id="path54"
       d="m 168,116 c -3.314,0 -6,2.686 -6,6 0,3.314 2.686,6 6,6"
       vector-effect="none" />
  </g>
  <g
     style="font-size:12px;font-style:normal;font-weight:400;fill:none;stroke:#000080;stroke-width:2;stroke-linecap:square;stroke-linejoin:bevel;stroke-opacity:1;font-family:Helvetica"
     id="g56"
     font-style="normal"
     font-weight="400"
     font-size="12"
     transform="matrix(0.81257691,0,0,0.68730161,49.799742,9.8058718)" />
  <g
     style="font-size:12px;font-style:normal;font-weight:400;fill:none;stroke:#000080;stroke-width:4;stroke-linecap:square;stroke-linejoin:bevel;stroke-opacity:1;font-family:Helvetica"
     id="g58"
     font-style="normal"
     font-weight="400"
     font-size="12"
     transform="matrix(0.81257691,0,0,0.68730161,49.799742,9.8058718)">
    <polyline
       style="fill:none"
       id="polyline60"
       points="157,198 179,198 "
       vector-effect="none" />
    <polyline
       style="fill:none"
       id="polyline62"
       points="157,190 179,190 "
       vector-effect="none" />
  </g>
  <g
     style="font-size:12px;font-style:normal;font-weight:400;fill:none;stroke:#000080;stroke-width:2;stroke-linecap:square;stroke-linejoin:bevel;stroke-opacity:1;font-family:Helvetica"
     id="g64"
     font-style="normal"
     font-weight="400"
     font-size="12"
     transform="matrix(0.81257691,0,0,0.68730161,49.799742,9.8058718)">
    <polyline
       style="fill:none"
       id="polyline66"
       points="168,224 168,198 "
       vector-effect="none" />
    <polyline
       style="fill:none"
       id="polyline68"
       points="168,190 168,164 "
       vector-effect="none" />
  </g>
  <g
     style="font-size:12px;font-style:normal;font-weight:400;fill:none;stroke:#000080;stroke-width:2;stroke-linecap:square;stroke-linejoin:bevel;stroke-opacity:1;font-family:Helvetica"
     id="g70"
     font-style="normal"
     font-weight="400"
     font-size="12"
     transform="matrix(0.81257691,0,0,0.68730161,49.799742,9.8058718)" />
  <g
     style="font-size:12px;font-style:normal;font-weight:400;fill:none;stroke:#000080;stroke-width:2;stroke-linecap:square;stroke-linejoin:bevel;stroke-opacity:1;font-family:Helvetica"
     id="g72"
     font-style="normal"
     font-weight="400"
     font-size="12"
     transform="matrix(0.81257691,0,0,0.68730161,49.799742,9.8058718)">
    <polyline
       style="fill:none"
       id="polyline74"
       points="28,174 28,162 "
       vector-effect="none" />
    <polyline
       style="fill:none"
       id="polyline76"
       points="28,126 28,114 "
       vector-effect="none" />
    <path
       inkscape:connector-curvature="0"
       id="path78"
       d="m 28,150 c -3.3137,0 -6,2.686 -6,6 0,3.314 2.6863,6 6,6"
       vector-effect="none" />
    <path
       inkscape:connector-curvature="0"
       id="path80"
       d="m 28,138 c -3.3137,0 -6,2.686 -6,6 0,3.314 2.6863,6 6,6"
       vector-effect="none" />
    <path
       inkscape:connector-curvature="0"
       id="path82"
       d="m 28,126 c -3.3137,0 -6,2.686 -6,6 0,3.314 2.6863,6 6,6"
       vector-effect="none" />
  </g>
  <g
     style="font-size:12px;font-style:normal;font-weight:400;fill:none;stroke:#000080;stroke-width:2;stroke-linecap:square;stroke-linejoin:bevel;stroke-opacity:1;font-family:Helvetica"
     id="g84"
     font-style="normal"
     font-weight="400"
     font-size="12"
     transform="matrix(0.81257691,0,0,0.68730161,49.799742,9.8058718)" />
  <g
     style="font-size:12px;font-style:normal;font-weight:400;fill:none;stroke:#000080;stroke-width:4;stroke-linecap:square;stroke-linejoin:bevel;stroke-opacity:1;font-family:Helvetica"
     id="g86"
     font-style="normal"
     font-weight="400"
     font-size="12"
     transform="matrix(0.81257691,0,0,0.68730161,49.799742,9.8058718)">
    <polyline
       style="fill:none"
       id="polyline88"
       points="17,208 39,208 "
       vector-effect="none" />
    <polyline
       style="fill:none"
       id="polyline90"
       points="17,200 39,200 "
       vector-effect="none" />
  </g>
  <g
     style="font-size:12px;font-style:normal;font-weight:400;fill:none;stroke:#000080;stroke-width:2;stroke-linecap:square;stroke-linejoin:bevel;stroke-opacity:1;font-family:Helvetica"
     id="g92"
     font-style="normal"
     font-weight="400"
     font-size="12"
     transform="matrix(0.81257691,0,0,0.68730161,49.799742,9.8058718)">
    <polyline
       style="fill:none"
       id="polyline94"
       points="28,234 28,208 "
       vector-effect="none" />
    <polyline
       style="fill:none"
       id="polyline96"
       points="28,200 28,174 "
       vector-effect="none" />
  </g>
  <g
     style="font-size:12px;font-style:normal;font-weight:400;fill:none;stroke:#000080;stroke-width:2;stroke-linecap:square;stroke-linejoin:bevel;stroke-opacity:1;font-family:Helvetica"
     id="g98"
     font-style="normal"
     font-weight="400"
     font-size="12"
     transform="matrix(0.81257691,0,0,0.68730161,49.799742,9.8058718)" />
  <g
     style="font-size:12px;font-style:normal;font-weight:400;fill:none;stroke:#000080;stroke-width:4;stroke-linecap:square;stroke-linejoin:bevel;stroke-opacity:1;font-family:Helvetica"
     id="g100"
     font-style="normal"
     font-weight="400"
     font-size="12"
     transform="matrix(0.81257691,0,0,0.68730161,49.799742,9.8058718)">
    <polyline
       style="fill:none"
       id="polyline102"
       points="94,93 94,115 "
       vector-effect="none" />
    <polyline
       style="fill:none"
       id="polyline104"
       points="102,93 102,115 "
       vector-effect="none" />
  </g>
  <g
     style="font-size:12px;font-style:normal;font-weight:400;fill:none;stroke:#000080;stroke-width:2;stroke-linecap:square;stroke-linejoin:bevel;stroke-opacity:1;font-family:Helvetica"
     id="g106"
     font-style="normal"
     font-weight="400"
     font-size="12"
     transform="matrix(0.81257691,0,0,0.68730161,49.799742,9.8058718)">
    <polyline
       style="fill:none"
       id="polyline108"
       points="68,104 94,104 "
       vector-effect="none" />
    <polyline
       style="fill:none"
       id="polyline110"
       points="102,104 128,104 "
       vector-effect="none" />
  </g>
  <g
     style="font-size:12px;font-style:normal;font-weight:400;fill:none;stroke:#000080;stroke-width:2;stroke-linecap:square;stroke-linejoin:bevel;stroke-opacity:1;font-family:Helvetica"
     id="g112"
     font-style="normal"
     font-weight="400"
     font-size="12"
     transform="matrix(0.81257691,0,0,0.68730161,49.799742,9.8058718)" />
  <g
     style="font-size:12px;font-style:normal;font-weight:400;fill:none;stroke:#000080;stroke-width:2;stroke-linecap:square;stroke-linejoin:bevel;stroke-opacity:1;font-family:Helvetica"
     id="g114"
     font-style="normal"
     font-weight="400"
     font-size="12"
     transform="matrix(0.81257691,0,0,0.68730161,49.799742,9.8058718)">
    <polyline
       style="fill:none"
       id="polyline116"
       points="68,59 80,59 "
       vector-effect="none" />
    <polyline
       style="fill:none"
       id="polyline118"
       points="116,59 128,59 "
       vector-effect="none" />
    <path
       inkscape:connector-curvature="0"
       id="path120"
       d="m 92,59 c 0,-3.3137 -2.6863,-6 -6,-6 -3.3137,0 -6,2.6863 -6,6"
       vector-effect="none" />
    <path
       inkscape:connector-curvature="0"
       id="path122"
       d="m 104,59 c 0,-3.3137 -2.686,-6 -6,-6 -3.3137,0 -6,2.6863 -6,6"
       vector-effect="none" />
    <path
       inkscape:connector-curvature="0"
       id="path124"
       d="m 116,59 c 0,-3.3137 -2.686,-6 -6,-6 -3.314,0 -6,2.6863 -6,6"
       vector-effect="none" />
  </g>
  <g
     style="font-size:12px;font-style:normal;font-weight:400;fill:none;stroke:#000080;stroke-width:2;stroke-linecap:square;stroke-linejoin:bevel;stroke-opacity:1;font-family:Helvetica"
     id="g126"
     font-style="normal"
     font-weight="400"
     font-size="12"
     transform="matrix(0.81257691,0,0,0.68730161,49.799742,9.8058718)" />
  <g
     style="font-size:12px;font-style:normal;font-weight:400;fill:none;stroke:#000080;stroke-width:2;stroke-linecap:square;stroke-linejoin:bevel;stroke-opacity:1;font-family:Helvetica"
     id="g128"
     font-style="normal"
     font-weight="400"
     font-size="12"
     transform="matrix(0.81257691,0,0,0.68730161,49.799742,9.8058718)">
    <polyline
       style="fill:none"
       id="polyline130"
       points="168,224 168,254 "
       vector-effect="none" />
    <polyline
       style="fill:none"
       id="polyline132"
       points="128,84 168,84 "
       vector-effect="none" />
    <polyline
       style="fill:none"
       id="polyline134"
       points="168,84 168,104 "
       vector-effect="none" />
    <polyline
       style="fill:none"
       id="polyline136"
       points="28,234 28,254 "
       vector-effect="none" />
    <polyline
       style="fill:none"
       id="polyline138"
       points="28,84 68,84 "
       vector-effect="none" />
    <polyline
       style="fill:none"
       id="polyline140"
       points="28,84 28,114 "
       vector-effect="none" />
    <polyline
       style="fill:none"
       id="polyline142"
       points="128,84 128,104 "
       vector-effect="none" />
    <polyline
       style="fill:none"
       id="polyline144"
       points="68,84 68,104 "
       vector-effect="none" />
    <polyline
       style="fill:none"
       id="polyline146"
       points="128,59 128,84 "
       vector-effect="none" />
    <polyline
       style="fill:none"
       id="polyline148"
       points="68,59 68,84 "
       vector-effect="none" />
  </g>
  <g
     style="font-size:12px;font-style:normal;font-weight:400;fill:#000080;fill-opacity:1;stroke:none;font-family:Helvetica"
     id="g150"
     font-style="normal"
     font-weight="400"
     font-size="12"
     transform="matrix(0.81257691,0,0,0.68730161,49.799742,9.8058718)">
    <path
       style="fill-rule:evenodd"
       inkscape:connector-curvature="0"
       id="path152"
       d="m 26,252 4,0 0,4 -4,0 0,-4"
       vector-effect="non-scaling-stroke" />
  </g>
  <g
     style="font-size:12px;font-style:normal;font-weight:400;fill:#000080;fill-opacity:1;stroke:#000080;stroke-width:1;stroke-linecap:square;stroke-linejoin:bevel;stroke-opacity:1;font-family:Helvetica"
     id="g154"
     font-style="normal"
     font-weight="400"
     font-size="12"
     transform="matrix(0.81257691,0,0,0.68730161,49.799742,9.8058718)">
    <path
       style="fill-rule:evenodd"
       inkscape:connector-curvature="0"
       id="path156"
       d="m 71,84 c 0,1.6569 -1.3431,3 -3,3 -1.6569,0 -3,-1.3431 -3,-3 0,-1.6569 1.3431,-3 3,-3 1.6569,0 3,1.3431 3,3"
       vector-effect="none" />
  </g>
  <g
     style="font-size:12px;font-style:normal;font-weight:400;fill:#000080;fill-opacity:1;stroke:#000080;stroke-width:1;stroke-linecap:square;stroke-linejoin:bevel;stroke-opacity:1;font-family:Helvetica"
     id="g158"
     font-style="normal"
     font-weight="400"
     font-size="12"
     transform="matrix(0.81257691,0,0,0.68730161,49.799742,9.8058718)">
    <path
       style="fill-rule:evenodd"
       inkscape:connector-curvature="0"
       id="path160"
       d="m 131,84 c 0,1.6569 -1.343,3 -3,3 -1.657,0 -3,-1.3431 -3,-3 0,-1.6569 1.343,-3 3,-3 1.657,0 3,1.3431 3,3"
       vector-effect="none" />
  </g>
  <g
     style="font-size:12px;font-style:normal;font-weight:400;fill:#000080;fill-opacity:1;stroke:none;font-family:Helvetica"
     id="g162"
     font-style="normal"
     font-weight="400"
     font-size="12"
     transform="matrix(0.81257691,0,0,0.68730161,49.799742,9.8058718)">
    <path
       style="fill-rule:evenodd"
       inkscape:connector-curvature="0"
       id="path164"
       d="m 166,252 4,0 0,4 -4,0 0,-4"
       vector-effect="non-scaling-stroke" />
  </g>
  <g
     style="font-size:12px;font-style:normal;font-weight:400;fill:#000080;fill-opacity:1;stroke:none;font-family:Helvetica"
     id="g166"
     font-style="normal"
     font-weight="400"
     font-size="12"
     transform="matrix(0.81257691,0,0,0.68730161,49.799742,9.8058718)">
    <path
       style="fill-rule:evenodd"
       inkscape:connector-curvature="0"
       id="path168"
       d="m 166,162 4,0 0,4 -4,0 0,-4"
       vector-effect="non-scaling-stroke" />
  </g>
  <g
     style="font-size:12px;font-style:normal;font-weight:400;fill:#000080;fill-opacity:1;stroke:none;font-family:Helvetica"
     id="g170"
     font-style="normal"
     font-weight="400"
     font-size="12"
     transform="matrix(0.81257691,0,0,0.68730161,49.799742,9.8058718)">
    <path
       style="fill-rule:evenodd"
       inkscape:connector-curvature="0"
       id="path172"
       d="m 166,102 4,0 0,4 -4,0 0,-4"
       vector-effect="non-scaling-stroke" />
  </g>
  <g
     style="font-size:12px;font-style:normal;font-weight:400;fill:#000080;fill-opacity:1;stroke:none;font-family:Helvetica"
     id="g174"
     font-style="normal"
     font-weight="400"
     font-size="12"
     transform="matrix(0.81257691,0,0,0.68730161,49.799742,9.8058718)">
    <path
       style="fill-rule:evenodd"
       inkscape:connector-curvature="0"
       id="path176"
       d="m 166,222 4,0 0,4 -4,0 0,-4"
       vector-effect="non-scaling-stroke" />
  </g>
  <g
     style="font-size:12px;font-style:normal;font-weight:400;fill:#000080;fill-opacity:1;stroke:none;font-family:Helvetica"
     id="g178"
     font-style="normal"
     font-weight="400"
     font-size="12"
     transform="matrix(0.81257691,0,0,0.68730161,49.799742,9.8058718)">
    <path
       style="fill-rule:evenodd"
       inkscape:connector-curvature="0"
       id="path180"
       d="m 26,172 4,0 0,4 -4,0 0,-4"
       vector-effect="non-scaling-stroke" />
  </g>
  <g
     style="font-size:12px;font-style:normal;font-weight:400;fill:#000080;fill-opacity:1;stroke:none;font-family:Helvetica"
     id="g182"
     font-style="normal"
     font-weight="400"
     font-size="12"
     transform="matrix(0.81257691,0,0,0.68730161,49.799742,9.8058718)">
    <path
       style="fill-rule:evenodd"
       inkscape:connector-curvature="0"
       id="path184"
       d="m 26,112 4,0 0,4 -4,0 0,-4"
       vector-effect="non-scaling-stroke" />
  </g>
  <g
     style="font-size:12px;font-style:normal;font-weight:400;fill:#000080;fill-opacity:1;stroke:none;font-family:Helvetica"
     id="g186"
     font-style="normal"
     font-weight="400"
     font-size="12"
     transform="matrix(0.81257691,0,0,0.68730161,49.799742,9.8058718)">
    <path
       style="fill-rule:evenodd"
       inkscape:connector-curvature="0"
       id="path188"
       d="m 26,232 4,0 0,4 -4,0 0,-4"
       vector-effect="non-scaling-stroke" />
  </g>
  <g
     style="font-size:12px;font-style:normal;font-weight:400;fill:#000080;fill-opacity:1;stroke:none;font-family:Helvetica"
     id="g190"
     font-style="normal"
     font-weight="400"
     font-size="12"
     transform="matrix(0.81257691,0,0,0.68730161,49.799742,9.8058718)">
    <path
       style="fill-rule:evenodd"
       inkscape:connector-curvature="0"
       id="path192"
       d="m 66,102 4,0 0,4 -4,0 0,-4"
       vector-effect="non-scaling-stroke" />
  </g>
  <g
     style="font-size:12px;font-style:normal;font-weight:400;fill:#000080;fill-opacity:1;stroke:none;font-family:Helvetica"
     id="g194"
     font-style="normal"
     font-weight="400"
     font-size="12"
     transform="matrix(0.81257691,0,0,0.68730161,49.799742,9.8058718)">
    <path
       style="fill-rule:evenodd"
       inkscape:connector-curvature="0"
       id="path196"
       d="m 126,102 4,0 0,4 -4,0 0,-4"
       vector-effect="non-scaling-stroke" />
  </g>
  <g
     style="font-size:12px;font-style:normal;font-weight:400;fill:#000080;fill-opacity:1;stroke:none;font-family:Helvetica"
     id="g198"
     font-style="normal"
     font-weight="400"
     font-size="12"
     transform="matrix(0.81257691,0,0,0.68730161,49.799742,9.8058718)">
    <path
       style="fill-rule:evenodd"
       inkscape:connector-curvature="0"
       id="path200"
       d="m 66,57 4,0 0,4 -4,0 0,-4"
       vector-effect="non-scaling-stroke" />
  </g>
  <g
     style="font-size:12px;font-style:normal;font-weight:400;fill:#000080;fill-opacity:1;stroke:none;font-family:Helvetica"
     id="g202"
     font-style="normal"
     font-weight="400"
     font-size="12"
     transform="matrix(0.81257691,0,0,0.68730161,49.799742,9.8058718)">
    <path
       style="fill-rule:evenodd"
       inkscape:connector-curvature="0"
       id="path204"
       d="m 126,57 4,0 0,4 -4,0 0,-4"
       vector-effect="non-scaling-stroke" />
  </g>
</svg>
