/* XPM */
static char * capacitor_xpm[] = {
"32 32 3 1",
" 	c None",
".	c #000000",
"+	c #FF0000",
"                                ",
"                                ",
"                                ",
"                                ",
"                                ",
"                                ",
"                                ",
"                                ",
"                                ",
"                                ",
"                                ",
"             .    .             ",
"             .    .             ",
"             .    .             ",
"             .    .             ",
"     +       .    .       +     ",
"    + +.......    .......+ +    ",
"     +       .    .       +     ",
"             .    .             ",
"             .    .             ",
"             .    .             ",
"             .    .             ",
"                                ",
"                                ",
"                                ",
"                                ",
"                                ",
"                                ",
"                                ",
"                                ",
"                                ",
"                                "};
