/* XPM */
static char *cpwopen[]={
"32 32 4 1",
". c None",
"a c None",
"# c #000000",
"b c #ff0000",
"................................",
"................................",
"................................",
"....#....#....#....#....#....#..",
".....#....#....#....#....#....#.",
"......#....#....#....#....#.....",
".......#....#....#....#....#....",
"........#....#....#....#....#...",
"....########################.#..",
"...........................#..#.",
"..........................#.....",
"..........................##....",
"..........###########....#..#...",
"..........#.........#....#...#..",
".........#.........#....##....#.",
".aba.....#.........#....#.#.aa..",
"abab#####.........#....#...#aaa.",
".aba....#.........#....#....#a..",
".......#.........#....#.#....#..",
".......#.........#....#..#....#.",
".......##########....#....#.....",
".....................##....#....",
"....................#..#....#...",
"....................#...#....#..",
"....#################....#....#.",
"......#....#....#....#....#.....",
".......#....#....#....#....#....",
"........#....#....#....#....#...",
"....#....#....#....#....#....#..",
".....#....#....#....#....#....#.",
"................................",
"................................"};
