/* XPM */
static char *curve[]={
"32 32 2 1",
". c None",
"# c #000000",
"...............#................",
"..............###...............",
".............#.#.#..............",
".............#.#.#..............",
"............#..#..#.............",
"...............#................",
"...............#................",
"...............#................",
"............######..............",
"..........##...#..#.............",
".........#.....#...#............",
"........#......#....#...........",
".......#.......#....#...........",
".......#.......#....#......#....",
"......#........#....#.......##..",
"......#........#...#..........#.",
"################################",
"......#........#..............#.",
"......#........#............##..",
"......#........#.......#...#....",
"......#........#.......#........",
".......#.......#.......#........",
".......#.......#......#.........",
"........#......#......#.........",
".........#.....#.....#..........",
"..........##...#...##...........",
"............#######.............",
"...............#................",
"...............#................",
"...............#................",
"...............#................",
"...............#................"};
