/* XPM */
static char * pmosfet_sub_xpm[] = {
"32 32 3 1",
" 	c None",
".	c #FF0000",
"+	c #000000",
"                                ",
"                     .          ",
"                    . .         ",
"                     .          ",
"                     +          ",
"                     +          ",
"                     +          ",
"                     +          ",
"               +     +          ",
"             + +     +          ",
"             + +++++++          ",
"             + +                ",
"             + +                ",
"             +                  ",
"             + +  +             ",
"   .         + +   +        .   ",
"  . .+++++++++ ++++++++++++. .  ",
"   .         + +   +        .   ",
"             + +  +             ",
"             +                  ",
"             + +                ",
"             + +                ",
"             + +++++++          ",
"             + +     +          ",
"               +     +          ",
"                     +          ",
"                     +          ",
"                     +          ",
"                     +          ",
"                     .          ",
"                    . .         ",
"                     .          "};
