/* XPM */
static char *tiny_button_qucs_xpm[] = {
/* width height num_colors chars_per_pixel */
"    21    18       51            1",
/* colors */
". c #e3e3e3",
"# c #d7d3d7",
"a c #dfdbdf",
"b c #a6a2a6",
"c c #d3d3d3",
"d c #c3bec3",
"e c #c7c7c7",
"f c #c7c7c7",
"g c #d7d3d7",
"h c #7d7d7d",
"i c #c7c7c7",
"j c #c3bac3",
"k c #8a96ae",
"l c #9e9a9e",
"m c #aaaac3",
"n c #cfc7cf",
"o c #b2b2b2",
"p c #cfcfcf",
"q c #bab6ba",
"r c #b6bad7",
"s c #696969",
"t c #7d7d7d",
"u c #bebabe",
"v c #b6b2b6",
"w c #8e8a8e",
"x c #3c383c",
"y c #bab6ba",
"z c #aeaaae",
"A c #a2a2a2",
"B c #2c2c2c",
"C c #dbc39e",
"D c #cfcfcf",
"E c #717571",
"F c #79869e",
"G c #bababa",
"H c #414141",
"I c #bebebe",
"J c #b2aab2",
"K c #5d5d5d",
"L c #b2b2b2",
"M c #bab6ba",
"N c #79869e",
"O c #8a9ab6",
"P c #c7c7c7",
"Q c #797979",
"R c #aaaaaa",
"S c #416161",
"T c #3c383c",
"U c #aeaeae",
"V c #757575",
"W c #2c3865",
/* pixels */
".##################ab",
"cdeddeefeeeedffddedgh",
"cddfifiifiifiiiiieegh",
"cjdedklklmmlmmkbdedgh",
"cddejmfnidopqdrsbndct",
"cjddumfvbwhlxlcsbndct",
"pyjdumdwzdpABCDEbijpt",
"pqjjuFlGiepHlfCsAijpt",
"pvyIukbomJbKuLJEAeypt",
"poMyqkkkNkkkkkOEldvPt",
"pJvyokkkkmmkkkmEldMit",
"novyqkkkkklkkkmEldvit",
"iJovokkkkkkkkkmEljoeQ",
"iJoookmmmmmmmmmElyoeQ",
"eRJJoFSKKKKKKKKTboJdQ",
"eRJJJJzUzUUzUUJooJJdV",
"iyjdjjddddddddddjjIpV",
"lEEEEEEEEEEEEEEEEEEVW"
};
