<?xml version="1.0" encoding="UTF-8" standalone="no"?>
<svg
   xmlns:dc="http://purl.org/dc/elements/1.1/"
   xmlns:cc="http://creativecommons.org/ns#"
   xmlns:rdf="http://www.w3.org/1999/02/22-rdf-syntax-ns#"
   xmlns:svg="http://www.w3.org/2000/svg"
   xmlns="http://www.w3.org/2000/svg"
   xmlns:sodipodi="http://sodipodi.sourceforge.net/DTD/sodipodi-0.dtd"
   xmlns:inkscape="http://www.inkscape.org/namespaces/inkscape"
   width="500"
   height="380"
   version="1.2"
   id="svg12947"
   inkscape:version="0.91 r13725"
   sodipodi:docname="Branchline.svg">
  <metadata
     id="metadata13143">
    <rdf:RDF>
      <cc:Work
         rdf:about="">
        <dc:format>image/svg+xml</dc:format>
        <dc:type
           rdf:resource="http://purl.org/dc/dcmitype/StillImage" />
        <dc:title>Qt Svg Document</dc:title>
      </cc:Work>
    </rdf:RDF>
  </metadata>
  <sodipodi:namedview
     pagecolor="#ffffff"
     bordercolor="#666666"
     borderopacity="1"
     objecttolerance="10"
     gridtolerance="10"
     guidetolerance="10"
     inkscape:pageopacity="0"
     inkscape:pageshadow="2"
     inkscape:window-width="1366"
     inkscape:window-height="704"
     id="namedview13141"
     showgrid="false"
     inkscape:zoom="0.76725194"
     inkscape:cx="313.00566"
     inkscape:cy="275.42093"
     inkscape:window-x="0"
     inkscape:window-y="27"
     inkscape:window-maximized="1"
     inkscape:current-layer="svg12947" />
  <title
     id="title12949">Qt Svg Document</title>
  <desc
     id="desc12951">Generated with Qt</desc>
  <defs
     id="defs12953" />
  <g
     style="font-size:12px;font-style:normal;font-weight:400;fill:none;stroke:#000080;stroke-width:2;stroke-linecap:square;stroke-linejoin:bevel;stroke-opacity:1;font-family:Helvetica"
     id="g12961"
     font-style="normal"
     font-weight="400"
     font-size="12"
     transform="matrix(1.88983,0,0,1.88983,42.394044,20.572234)">
    <polyline
       style="fill:none"
       id="polyline12963"
       points="75,19 135,19 "
       vector-effect="none" />
    <polyline
       style="fill:none"
       id="polyline12965"
       points="77,26 133,26 "
       vector-effect="none" />
    <polyline
       style="fill:none"
       id="polyline12967"
       points="77,33 84,26 "
       vector-effect="none" />
    <polyline
       style="fill:none"
       id="polyline12969"
       points="84,33 91,26 "
       vector-effect="none" />
    <polyline
       style="fill:none"
       id="polyline12971"
       points="91,33 98,26 "
       vector-effect="none" />
    <polyline
       style="fill:none"
       id="polyline12973"
       points="98,33 105,26 "
       vector-effect="none" />
    <polyline
       style="fill:none"
       id="polyline12975"
       points="105,33 112,26 "
       vector-effect="none" />
    <polyline
       style="fill:none"
       id="polyline12977"
       points="112,33 119,26 "
       vector-effect="none" />
    <polyline
       style="fill:none"
       id="polyline12979"
       points="119,33 126,26 "
       vector-effect="none" />
    <polyline
       style="fill:none"
       id="polyline12981"
       points="126,33 133,26 "
       vector-effect="none" />
  </g>
  <g
     style="font-size:12px;font-style:normal;font-weight:400;fill:none;stroke:#000080;stroke-width:2;stroke-linecap:square;stroke-linejoin:bevel;stroke-opacity:1;font-family:Helvetica"
     id="g12983"
     font-style="normal"
     font-weight="400"
     font-size="12"
     transform="matrix(1.88983,0,0,1.88983,42.394044,20.572234)" />
  <g
     style="font-size:12px;font-style:normal;font-weight:400;fill:none;stroke:#000080;stroke-width:2;stroke-linecap:square;stroke-linejoin:bevel;stroke-opacity:1;font-family:Helvetica"
     id="g12985"
     font-style="normal"
     font-weight="400"
     font-size="12"
     transform="matrix(1.88983,0,0,1.88983,42.394044,20.572234)">
    <polyline
       style="fill:none"
       id="polyline12987"
       points="75,139 135,139 "
       vector-effect="none" />
    <polyline
       style="fill:none"
       id="polyline12989"
       points="77,146 133,146 "
       vector-effect="none" />
    <polyline
       style="fill:none"
       id="polyline12991"
       points="77,153 84,146 "
       vector-effect="none" />
    <polyline
       style="fill:none"
       id="polyline12993"
       points="84,153 91,146 "
       vector-effect="none" />
    <polyline
       style="fill:none"
       id="polyline12995"
       points="91,153 98,146 "
       vector-effect="none" />
    <polyline
       style="fill:none"
       id="polyline12997"
       points="98,153 105,146 "
       vector-effect="none" />
    <polyline
       style="fill:none"
       id="polyline12999"
       points="105,153 112,146 "
       vector-effect="none" />
    <polyline
       style="fill:none"
       id="polyline13001"
       points="112,153 119,146 "
       vector-effect="none" />
    <polyline
       style="fill:none"
       id="polyline13003"
       points="119,153 126,146 "
       vector-effect="none" />
    <polyline
       style="fill:none"
       id="polyline13005"
       points="126,153 133,146 "
       vector-effect="none" />
  </g>
  <g
     style="font-size:12px;font-style:normal;font-weight:400;fill:none;stroke:#000080;stroke-width:2;stroke-linecap:square;stroke-linejoin:bevel;stroke-opacity:1;font-family:Helvetica"
     id="g13007"
     font-style="normal"
     font-weight="400"
     font-size="12"
     transform="matrix(1.88983,0,0,1.88983,42.394044,20.572234)" />
  <g
     style="font-size:12px;font-style:normal;font-weight:400;fill:none;stroke:#000080;stroke-width:2;stroke-linecap:square;stroke-linejoin:bevel;stroke-opacity:1;font-family:Helvetica"
     id="g13009"
     font-style="normal"
     font-weight="400"
     font-size="12"
     transform="matrix(1.88983,0,0,1.88983,42.394044,20.572234)">
    <polyline
       style="fill:none"
       id="polyline13011"
       points="35,59 35,119 "
       vector-effect="none" />
    <polyline
       style="fill:none"
       id="polyline13013"
       points="28,61 28,117 "
       vector-effect="none" />
    <polyline
       style="fill:none"
       id="polyline13015"
       points="21,61 28,68 "
       vector-effect="none" />
    <polyline
       style="fill:none"
       id="polyline13017"
       points="21,68 28,75 "
       vector-effect="none" />
    <polyline
       style="fill:none"
       id="polyline13019"
       points="21,75 28,82 "
       vector-effect="none" />
    <polyline
       style="fill:none"
       id="polyline13021"
       points="21,82 28,89 "
       vector-effect="none" />
    <polyline
       style="fill:none"
       id="polyline13023"
       points="21,89 28,96 "
       vector-effect="none" />
    <polyline
       style="fill:none"
       id="polyline13025"
       points="21,96 28,103 "
       vector-effect="none" />
    <polyline
       style="fill:none"
       id="polyline13027"
       points="21,103 28,110 "
       vector-effect="none" />
    <polyline
       style="fill:none"
       id="polyline13029"
       points="21,110 28,117 "
       vector-effect="none" />
  </g>
  <g
     style="font-size:12px;font-style:normal;font-weight:400;fill:none;stroke:#000080;stroke-width:2;stroke-linecap:square;stroke-linejoin:bevel;stroke-opacity:1;font-family:Helvetica"
     id="g13031"
     font-style="normal"
     font-weight="400"
     font-size="12"
     transform="matrix(1.88983,0,0,1.88983,42.394044,20.572234)" />
  <g
     style="font-size:12px;font-style:normal;font-weight:400;fill:none;stroke:#000080;stroke-width:2;stroke-linecap:square;stroke-linejoin:bevel;stroke-opacity:1;font-family:Helvetica"
     id="g13033"
     font-style="normal"
     font-weight="400"
     font-size="12"
     transform="matrix(1.88983,0,0,1.88983,42.394044,20.572234)">
    <polyline
       style="fill:none"
       id="polyline13035"
       points="175,59 175,119 "
       vector-effect="none" />
    <polyline
       style="fill:none"
       id="polyline13037"
       points="168,61 168,117 "
       vector-effect="none" />
    <polyline
       style="fill:none"
       id="polyline13039"
       points="161,61 168,68 "
       vector-effect="none" />
    <polyline
       style="fill:none"
       id="polyline13041"
       points="161,68 168,75 "
       vector-effect="none" />
    <polyline
       style="fill:none"
       id="polyline13043"
       points="161,75 168,82 "
       vector-effect="none" />
    <polyline
       style="fill:none"
       id="polyline13045"
       points="161,82 168,89 "
       vector-effect="none" />
    <polyline
       style="fill:none"
       id="polyline13047"
       points="161,89 168,96 "
       vector-effect="none" />
    <polyline
       style="fill:none"
       id="polyline13049"
       points="161,96 168,103 "
       vector-effect="none" />
    <polyline
       style="fill:none"
       id="polyline13051"
       points="161,103 168,110 "
       vector-effect="none" />
    <polyline
       style="fill:none"
       id="polyline13053"
       points="161,110 168,117 "
       vector-effect="none" />
  </g>
  <g
     style="font-size:12px;font-style:normal;font-weight:400;fill:none;stroke:#000080;stroke-width:2;stroke-linecap:square;stroke-linejoin:bevel;stroke-opacity:1;font-family:Helvetica"
     id="g13055"
     font-style="normal"
     font-weight="400"
     font-size="12"
     transform="matrix(1.88983,0,0,1.88983,42.394044,20.572234)" />
  <g
     style="font-size:12px;font-style:normal;font-weight:400;fill:none;stroke:#000080;stroke-width:2;stroke-linecap:square;stroke-linejoin:bevel;stroke-opacity:1;font-family:Helvetica"
     id="g13057"
     font-style="normal"
     font-weight="400"
     font-size="12"
     transform="matrix(1.88983,0,0,1.88983,42.394044,20.572234)">
    <polyline
       style="fill:none"
       id="polyline13059"
       points="135,19 175,19 "
       vector-effect="none" />
    <polyline
       style="fill:none"
       id="polyline13061"
       points="175,19 175,59 "
       vector-effect="none" />
    <polyline
       style="fill:none"
       id="polyline13063"
       points="35,19 75,19 "
       vector-effect="none" />
    <polyline
       style="fill:none"
       id="polyline13065"
       points="35,19 35,59 "
       vector-effect="none" />
    <polyline
       style="fill:none"
       id="polyline13067"
       points="135,139 175,139 "
       vector-effect="none" />
    <polyline
       style="fill:none"
       id="polyline13069"
       points="175,119 175,139 "
       vector-effect="none" />
    <polyline
       style="fill:none"
       id="polyline13071"
       points="35,139 75,139 "
       vector-effect="none" />
    <polyline
       style="fill:none"
       id="polyline13073"
       points="35,119 35,139 "
       vector-effect="none" />
    <polyline
       style="fill:none"
       id="polyline13075"
       points="175,19 195,19 "
       vector-effect="none" />
    <polyline
       style="fill:none"
       id="polyline13077"
       points="15,19 35,19 "
       vector-effect="none" />
    <polyline
       style="fill:none"
       id="polyline13079"
       points="175,139 195,139 "
       vector-effect="none" />
    <polyline
       style="fill:none"
       id="polyline13081"
       points="15,139 35,139 "
       vector-effect="none" />
  </g>
  <g
     style="font-size:12px;font-style:normal;font-weight:400;fill:#000080;fill-opacity:1;stroke:none;font-family:Helvetica"
     id="g13083"
     font-style="normal"
     font-weight="400"
     font-size="12"
     transform="matrix(1.88983,0,0,1.88983,42.394044,20.572234)">
    <path
       style="fill-rule:evenodd"
       inkscape:connector-curvature="0"
       id="path13085"
       d="m 73,17 4,0 0,4 -4,0 0,-4"
       vector-effect="non-scaling-stroke" />
  </g>
  <g
     style="font-size:12px;font-style:normal;font-weight:400;fill:#000080;fill-opacity:1;stroke:none;font-family:Helvetica"
     id="g13087"
     font-style="normal"
     font-weight="400"
     font-size="12"
     transform="matrix(1.88983,0,0,1.88983,42.394044,20.572234)">
    <path
       style="fill-rule:evenodd"
       inkscape:connector-curvature="0"
       id="path13089"
       d="m 133,17 4,0 0,4 -4,0 0,-4"
       vector-effect="non-scaling-stroke" />
  </g>
  <g
     style="font-size:12px;font-style:normal;font-weight:400;fill:#000080;fill-opacity:1;stroke:none;font-family:Helvetica"
     id="g13091"
     font-style="normal"
     font-weight="400"
     font-size="12"
     transform="matrix(1.88983,0,0,1.88983,42.394044,20.572234)">
    <path
       style="fill-rule:evenodd"
       inkscape:connector-curvature="0"
       id="path13093"
       d="m 73,137 4,0 0,4 -4,0 0,-4"
       vector-effect="non-scaling-stroke" />
  </g>
  <g
     style="font-size:12px;font-style:normal;font-weight:400;fill:#000080;fill-opacity:1;stroke:none;font-family:Helvetica"
     id="g13095"
     font-style="normal"
     font-weight="400"
     font-size="12"
     transform="matrix(1.88983,0,0,1.88983,42.394044,20.572234)">
    <path
       style="fill-rule:evenodd"
       inkscape:connector-curvature="0"
       id="path13097"
       d="m 133,137 4,0 0,4 -4,0 0,-4"
       vector-effect="non-scaling-stroke" />
  </g>
  <g
     style="font-size:12px;font-style:normal;font-weight:400;fill:#000080;fill-opacity:1;stroke:none;font-family:Helvetica"
     id="g13099"
     font-style="normal"
     font-weight="400"
     font-size="12"
     transform="matrix(1.88983,0,0,1.88983,42.394044,20.572234)">
    <path
       style="fill-rule:evenodd"
       inkscape:connector-curvature="0"
       id="path13101"
       d="m 33,57 4,0 0,4 -4,0 0,-4"
       vector-effect="non-scaling-stroke" />
  </g>
  <g
     style="font-size:12px;font-style:normal;font-weight:400;fill:#000080;fill-opacity:1;stroke:none;font-family:Helvetica"
     id="g13103"
     font-style="normal"
     font-weight="400"
     font-size="12"
     transform="matrix(1.88983,0,0,1.88983,42.394044,20.572234)">
    <path
       style="fill-rule:evenodd"
       inkscape:connector-curvature="0"
       id="path13105"
       d="m 33,117 4,0 0,4 -4,0 0,-4"
       vector-effect="non-scaling-stroke" />
  </g>
  <g
     style="font-size:12px;font-style:normal;font-weight:400;fill:#000080;fill-opacity:1;stroke:none;font-family:Helvetica"
     id="g13107"
     font-style="normal"
     font-weight="400"
     font-size="12"
     transform="matrix(1.88983,0,0,1.88983,42.394044,20.572234)">
    <path
       style="fill-rule:evenodd"
       inkscape:connector-curvature="0"
       id="path13109"
       d="m 173,57 4,0 0,4 -4,0 0,-4"
       vector-effect="non-scaling-stroke" />
  </g>
  <g
     style="font-size:12px;font-style:normal;font-weight:400;fill:#000080;fill-opacity:1;stroke:none;font-family:Helvetica"
     id="g13111"
     font-style="normal"
     font-weight="400"
     font-size="12"
     transform="matrix(1.88983,0,0,1.88983,42.394044,20.572234)">
    <path
       style="fill-rule:evenodd"
       inkscape:connector-curvature="0"
       id="path13113"
       d="m 173,117 4,0 0,4 -4,0 0,-4"
       vector-effect="non-scaling-stroke" />
  </g>
  <g
     style="font-size:12px;font-style:normal;font-weight:400;fill:#000080;fill-opacity:1;stroke:#000080;stroke-width:1;stroke-linecap:square;stroke-linejoin:bevel;stroke-opacity:1;font-family:Helvetica"
     id="g13115"
     font-style="normal"
     font-weight="400"
     font-size="12"
     transform="matrix(1.88983,0,0,1.88983,42.394044,20.572234)">
    <path
       style="fill-rule:evenodd"
       inkscape:connector-curvature="0"
       id="path13117"
       d="m 178,19 c 0,1.6569 -1.343,3 -3,3 -1.657,0 -3,-1.3431 -3,-3 0,-1.6569 1.343,-3 3,-3 1.657,0 3,1.3431 3,3"
       vector-effect="none" />
  </g>
  <g
     style="font-size:12px;font-style:normal;font-weight:400;fill:#000080;fill-opacity:1;stroke:#000080;stroke-width:1;stroke-linecap:square;stroke-linejoin:bevel;stroke-opacity:1;font-family:Helvetica"
     id="g13119"
     font-style="normal"
     font-weight="400"
     font-size="12"
     transform="matrix(1.88983,0,0,1.88983,42.394044,20.572234)">
    <path
       style="fill-rule:evenodd"
       inkscape:connector-curvature="0"
       id="path13121"
       d="m 38,19 c 0,1.6569 -1.3431,3 -3,3 -1.6569,0 -3,-1.3431 -3,-3 0,-1.6569 1.3431,-3 3,-3 1.6569,0 3,1.3431 3,3"
       vector-effect="none" />
  </g>
  <g
     style="font-size:12px;font-style:normal;font-weight:400;fill:#000080;fill-opacity:1;stroke:#000080;stroke-width:1;stroke-linecap:square;stroke-linejoin:bevel;stroke-opacity:1;font-family:Helvetica"
     id="g13123"
     font-style="normal"
     font-weight="400"
     font-size="12"
     transform="matrix(1.88983,0,0,1.88983,42.394044,20.572234)">
    <path
       style="fill-rule:evenodd"
       inkscape:connector-curvature="0"
       id="path13125"
       d="m 178,139 c 0,1.657 -1.343,3 -3,3 -1.657,0 -3,-1.343 -3,-3 0,-1.657 1.343,-3 3,-3 1.657,0 3,1.343 3,3"
       vector-effect="none" />
  </g>
  <g
     style="font-size:12px;font-style:normal;font-weight:400;fill:#000080;fill-opacity:1;stroke:#000080;stroke-width:1;stroke-linecap:square;stroke-linejoin:bevel;stroke-opacity:1;font-family:Helvetica"
     id="g13127"
     font-style="normal"
     font-weight="400"
     font-size="12"
     transform="matrix(1.88983,0,0,1.88983,42.394044,20.572234)">
    <path
       style="fill-rule:evenodd"
       inkscape:connector-curvature="0"
       id="path13129"
       d="m 38,139 c 0,1.657 -1.3431,3 -3,3 -1.6569,0 -3,-1.343 -3,-3 0,-1.657 1.3431,-3 3,-3 1.6569,0 3,1.343 3,3"
       vector-effect="none" />
  </g>
  <g
     style="font-size:12px;font-style:normal;font-weight:400;fill:none;stroke:#ff0000;stroke-width:1;stroke-linecap:square;stroke-linejoin:bevel;stroke-opacity:1;font-family:Helvetica"
     id="g13131"
     font-style="normal"
     font-weight="400"
     font-size="12"
     transform="matrix(1.88983,0,0,1.88983,42.394044,20.572234)">
    <path
       inkscape:connector-curvature="0"
       id="path13133"
       d="m 199,19 c 0,2.2091 -1.791,4 -4,4 -2.209,0 -4,-1.7909 -4,-4 0,-2.2091 1.791,-4 4,-4 2.209,0 4,1.7909 4,4"
       vector-effect="none" />
    <path
       inkscape:connector-curvature="0"
       id="path13135"
       d="m 19,19 c 0,2.2091 -1.7909,4 -4,4 -2.2091,0 -4,-1.7909 -4,-4 0,-2.2091 1.7909,-4 4,-4 2.2091,0 4,1.7909 4,4"
       vector-effect="none" />
    <path
       inkscape:connector-curvature="0"
       id="path13137"
       d="m 199,139 c 0,2.209 -1.791,4 -4,4 -2.209,0 -4,-1.791 -4,-4 0,-2.209 1.791,-4 4,-4 2.209,0 4,1.791 4,4"
       vector-effect="none" />
    <path
       inkscape:connector-curvature="0"
       id="path13139"
       d="m 19,139 c 0,2.209 -1.7909,4 -4,4 -2.2091,0 -4,-1.791 -4,-4 0,-2.209 1.7909,-4 4,-4 2.2091,0 4,1.791 4,4"
       vector-effect="none" />
  </g>
</svg>
