/* XPM */
static char *big_button_qucs_xpm[] = {
/* width height num_colors chars_per_pixel */
"    56    46      231            2",
/* colors */
".. c #ffffff",
".# c #a2a2a2",
".a c #aaaaaa",
".b c #bababa",
".c c #c3c3c3",
".d c #cbcbcb",
".e c #cfcfcf",
".f c #e7e7e7",
".g c #ebebeb",
".h c #f3f3f3",
".i c #cbcbcb",
".j c #b2aaaa",
".k c #e7f3fb",
".l c #dfebfb",
".m c #ebf3fb",
".n c #d7e7f3",
".o c #cfe7fb",
".p c #49657d",
".q c #30659e",
".r c #244986",
".s c #bacbeb",
".t c #24558e",
".u c #8a9ab6",
".v c #e7ebfb",
".w c #717986",
".x c #96aacf",
".y c #244986",
".z c #244986",
".A c #cbcfeb",
".B c #b2c3df",
".C c #a2a2c3",
".D c #5d75a2",
".E c #24498e",
".F c #d7dfe7",
".G c #bec3cf",
".H c #79869e",
".I c #7d96cb",
".J c #6986be",
".K c #244986",
".L c #bacbeb",
".M c #8a9ab6",
".N c #7d8eb2",
".O c #2c3865",
".P c #244986",
".Q c #a2b2df",
".R c #414975",
".S c #d7dff3",
".T c #b6bad7",
".U c #aaaac3",
".V c #9696ae",
".W c #49657d",
".X c #7d96cb",
".Y c #414975",
".Z c #243875",
".0 c #cbcfeb",
".1 c #cbcfeb",
".2 c #bacbeb",
".3 c #7d8eb2",
".4 c #49657d",
".5 c #414975",
".6 c #38385d",
".7 c #79869e",
".8 c #5d75a2",
".9 c #414975",
"#. c #202851",
"## c #24306d",
"#a c #242455",
"#b c #414975",
"#c c #eff3f7",
"#d c #d7d3d7",
"#e c #c3c3c3",
"#f c #cbcbcf",
"#g c #969696",
"#h c #e7ebfb",
"#i c #bec3cf",
"#j c #cbcfeb",
"#k c #d7dfe7",
"#l c #cbcbcf",
"#m c #a2a2ba",
"#n c #cbcfeb",
"#o c #9696ae",
"#p c #b6bad7",
"#q c #a2a2c3",
"#r c #5d555d",
"#s c #b6bad7",
"#t c #a2a2c3",
"#u c #718292",
"#v c #a2a2c3",
"#w c #242430",
"#x c #8a9ab6",
"#y c #7d6daa",
"#z c #5d5d96",
"#A c #756596",
"#B c #5d5d96",
"#C c #38385d",
"#D c #554986",
"#E c #38385d",
"#F c #414975",
"#G c #2c3865",
"#H c #242455",
"#I c #0c0c24",
"#J c #202049",
"#K c #242455",
"#L c #24306d",
"#M c #202049",
"#N c #0c0c30",
"#O c #000018",
"#P c #000024",
"#Q c #5d5d96",
"#R c #c3b2df",
"#S c #7d6daa",
"#T c #554986",
"#U c #414975",
"#V c #cbcfeb",
"#W c #c3b2df",
"#X c #b6bad7",
"#Y c #9e86c3",
"#Z c #202049",
"#0 c #aeb2cf",
"#1 c #9696ae",
"#2 c #554986",
"#3 c #242455",
"#4 c #cbcfeb",
"#5 c #b6bad7",
"#6 c #968e96",
"#7 c #6d557d",
"#8 c #9e86c3",
"#9 c #7d6daa",
"a. c #202049",
"a# c #180c38",
"aa c #aaaac3",
"ab c #a2a2c3",
"ac c #554165",
"ad c #7d6daa",
"ae c #5d5d96",
"af c #9e86c3",
"ag c #867d86",
"ah c #c3b2df",
"ai c #c3b2df",
"aj c #413841",
"ak c #180c30",
"al c #c3b2df",
"am c #9e8eaa",
"an c #756596",
"ao c #9e86c3",
"ap c #9e86c3",
"aq c #301838",
"ar c #aeb2cf",
"as c #a2a2ba",
"at c #9675a2",
"au c #242455",
"av c #aaaac3",
"aw c #a2a2c3",
"ax c #756596",
"ay c #9675a2",
"az c #c39ecb",
"aA c #dfdbdf",
"aB c #bab2c3",
"aC c #a2a2ba",
"aD c #a2a2c3",
"aE c #6d557d",
"aF c #3c383c",
"aG c #6d557d",
"aH c #38385d",
"aI c #180c24",
"aJ c #240c30",
"aK c #cfc7cf",
"aL c #9e8eaa",
"aM c #554165",
"aN c #e7e7ef",
"aO c #756d75",
"aP c #9675a2",
"aQ c #6d557d",
"aR c #9e8eaa",
"aS c #553055",
"aT c #240c30",
"aU c #6d557d",
"aV c #cfc7cf",
"aW c #968e96",
"aX c #6d557d",
"aY c #9675a2",
"aZ c #9675a2",
"a0 c #301838",
"a1 c #9e8eaa",
"a2 c #554165",
"a3 c #381838",
"a4 c #c39ecb",
"a5 c #9675a2",
"a6 c #554165",
"a7 c #c39ecb",
"a8 c #6d557d",
"a9 c #efefef",
"b. c #fffbff",
"b# c #d7d3d7",
"ba c #dfdbdf",
"bb c #e7e7ef",
"bc c #bab2ba",
"bd c #cfcbcf",
"be c #a29ea2",
"bf c #b2aab2",
"bg c #9a9a9a",
"bh c #867d86",
"bi c #968e96",
"bj c #c3b2c3",
"bk c #756d75",
"bl c #5d555d",
"bm c #cfc7cf",
"bn c #867d86",
"bo c #756d75",
"bp c #413841",
"bq c #c39ecb",
"br c #202020",
"bs c #6d557d",
"bt c #553055",
"bu c #381838",
"bv c #553055",
"bw c #381838",
"bx c #240c30",
"by c #d7aacf",
"bz c #381838",
"bA c #ebd7e7",
"bB c #240c30",
"bC c #c3b2ba",
"bD c #b28e9e",
"bE c #410c24",
"bF c #5d0c24",
"bG c #5d0c24",
"bH c #5d0c24",
"bI c #960c18",
"bJ c #960c18",
"bK c #000000",
/* pixels */
"...............................................................................................................d",
"...d.d.d.d.d.d.d.d.d.d.d.d.d.d.d.d.d.d.d.d.d.d.d.d.d.d.d.d.d.d.d.d.d.d.d.d.d.d.d.d.d.d.d.d.d.d.d.d.d.d.d.d.d.d#O",
"...d.d.d.d.d.d.d.d.d.d.d.d.d.d.d.d.d.d.d.d.d.d.d.d.d.d.d.d.d.d.d.d.d.dbAaB.d.d.d.d.d.d.d.d.d.d.d.d.d.d.d.d.d.d#O",
"...d.d.d.d.d.d.d.d.d.d.d.d.d.d.d.d.d.d.d.d.d.d.d.d.d.d.d.d.d.d.d.da9bya7.p.d.d.d.d.d.d.d.d.d.d.d.d.d.d.d.d.d.d#O",
"..bc.d.d.dbc.d.d.dbc.d.d.dbc.d.d.dbc.d.d.dbc.d.d.dbc.d.d.dbc.d.dbAbqa7av.8bc.d.d.dbc.d.d.dbc.d.d.dbc.d.d.dbc.d#O",
"...d.d.d.d.dbd.d.d.d.dbd.d.d.dbd.d.dbd.d.d.d.dbd.d.dbbbjbCbc.ibma4alaK#W#v.d.dbd.d.dbd.d.d.dbd.d.dbd.d.dbd.d.d#O",
"..bc.dbc.dbc.dbc.dbc.dbc.dbc.dbc.dbc.dbc.dbc.dbbbeaSaIaIaI#IbxbuaR.g.g.f.hbc.dbc.dbc.dbc.dbc.dbc.dbc.dbc.dbc.d#O",
"...d.d.d.d.dbc.d.d.d.d.d.d.dbc.d.d.d.d.d.d.fbobx#wbrbraIaIaIaIaI#w.U.3aa.d.dbc.d.d.d.d.d.d.dbc.d.d.d.d.d.d.d.b#O",
"...b.dbc.dbc.dbc.dbc.dbc.dbc.dbc.dbc.dbcbibxbraIbraIaIaIaIaIaIaIaIaT#u.b.dbc.dbc.dbc.dbc.dbc.dbc.dbc.dbc.dbc.d#O",
"...d.d.dbc.d.d.dbc.d.d.dbc.d.d.dbc.db#bpbraI#IaIaIaIaIaIaIaIaIaIaIaIaO.dbc.d.d.dbc.d.d.dbc.d.d.dbc.d.d.dbc.d.d#O",
"..bc.dbc.dbc.dbc.dbc.dbc.dbc.dbc.d.jaTbrbraIaIaIaIaI#IaIaIaIakaIaIaIaIbg.dbc.ibc.dbC.dbc.ibc.dbC.dbc.ibc.dbC.d#O",
"..#fbc.d#f.dbc#fbc.daB.d.d#fbc.dbnaIaIblaObkbhbp#I#IaI#IaIakaIakaIaIaTaIbc.dbc.d.b.dbc.d.d.dbc.dbc.dbc.d.d.d.b#O",
"...b.ibc.dbC.dbc.i.b.dbC.dbc.ibhaIaI#Ibpbp#I#IaIaIaI#IaIakaIakakaIaJa0bxaT.e.dbca9aAaNbba9bc.d.b.d.b.dbc.dbc.d#O",
"...dbc.dbc.d.b.dbc.dbc.dbc.d#gaIaIaIaI#IaI#IaI#IaI#Nak#Nakakakaka0a3a0aTaIa0baaKapaw.0#jaMaWaA.dbca9aN.dbc.dbc#O",
"..bc.d.b.dbc.dbc.dbc.d.b.d.cakaIaIaI#IaI#IaI#IaI#N#N#Nakakakaka0btbva3a0aTaI#raz#8ao#V.l#7aqax.S.kaN#W#c.d.b.d#O",
"...bbc#fbc.baB.d.baBbc.da9aFaIakaIaIak#IakaI#Na#ak#Nakakak#wa3a6bsa6aSa3aTbxajar#8ao#W.l#qaq.6#X.m.k#4aK.bbc.b#O",
"...b.d.b.dbc.d.b.d.b.dbcbiaIakakakakaIaIakaIakaI#Nakakak#3#Ca5asataEa2ajaqaT.Raiamaf#k.v.Saw#7#1.l.m.naV.SbC.d#O",
"...baB.bbc.bbc.bbc.b.b.ba0akakaIbGbJbJa0aI#Nakakakaka#.5ac#1.F#pasana6aMbzbwat.0.s.k#c.b.baB#iayaBaA#daDav.b.b#O",
"...b.dbc.d.b.d.b.dbc.d.daIakakbHbJbJbJbBakakakakaka.#A#2ae.T.v.S#XaYa8a6aSa3agaabn.b.dbc.dbc.daA#q#u.W.4#i.b.d#O",
"...bbc.bbc.bbc.bbc.bbc.aaIakaTbIbJbJbFakakakaka#.R.N.6#E#Qaw#j.l#jaaaZa8a6aqaJa0bu.bbc.b.b.b.bbc.b.bbj.b.bbc.b#O",
"...baB.b.daB.bbc#f.b.b#eaIakakbFbHbEa#a#akak#3#A#z#3#E#K.9#9#s.S.n#VasataUakaqa3aSbc.b.b.dbc.bbc.d.b.b.b.dbc.b#O",
"...b.b.bbc.b.b.bbc.bbc.baIaka#a#a#a#aka##Z.R#2#E.O#####K#G#T#8ai.l.n#WaLbuaubtajbv.bbc.bbc.b.b.bbc.bbc.bbc.b.b#O",
"...bbc.b.bbc.bbc.b.b.baB.baIaIakakaJ#wa.aj#H##.K.y.K.Z###K#U#Baf#V.l#naXajaG#7btbjbj.b.bbjbc.bbj.b.bbC.b.bbC.b#O",
"...b.b.bbc.b.b.bbc.bbc.b.baIaIaIakaka##J#..r.t.t.y.y.K.Z#L#K#F#Sab.1bh#3#Y#6a8aQ.b.bbc.b.b.bbc.b.b.b.b.bbc.b.b#O",
"...abC.b.b.jbcbcbC.abC.b.baHaIaIakaka##M.O.z.y.t.t.y.y.Z###L#E#DadaX#3.2#pasa5b#.b.abc.bbc.abc.bbc.abc.b.b.abc#O",
"...baB.b.baB.b.baB.b.baBb#aqakaIaIaka##J#.##.r.y.t.t.y.y.Z#L#L#Eaq#3#s.l.n#XbjaB.b.b.bbc.baBbC.baBbC.baBbC.baBbK",
"...b.b.abc.a.b.a.bbc.b.jaXaJ#Caq#Iak#wa##J#a.Z.y.t.t.t.E.K###Hak#Z#Qaw#n.v.S.b.abc.baB.abc.abc.a.b.b.b.abc.aaB#O",
"..bc.bbC.b.bbj.bbc.b.baAaHa.an.xaIaIaka#a##M.O.r.y.t.t.E.ta.ak#H#E#D.N#X.v.bbcbCbc.bbC.b.bbCaB.bbc.bbC.b.bbC.b#O",
"...aaB.abc.abc.abc.a.hbk.6.M.A.o.waIaIaka##J#..O.z.t.q.I#t#K###L#K#G#B#0bc.a.b.abc.abc.abc.a.b.abc.abc.abc.a.b#O",
"...bbC.baBbc.bbCaB.b#g#0.o.l.m.bbCaI#IaIaka##M.O.D.x.0#n#6.Z.K###L#G#uaB.bbcbc.baB.b.bbj.b.bbcbj.b.baBbC.baB.b#O",
"...a.b.a.b.abc.a.v.G.V.n.m.a.b.a.b.faFakaIac.B.A#n.0#R#Ran.K.P.K#b.Ubj.abc.a.b.abc.abc.a.b.a.b.abc.a.b.abc.j.b#O",
"..bcbfbc.bbj.aaa.0#5#p#h.bbcbf.b.bbc#f#wak.3.0ahaiai#W.0#x.t.t.M.hbc.a.b.bbcbf.b.bbj.a.bbcbj.a.baBbC.aaB.bbc.a#O",
"...abc.abc.aaA#0.S#q#j.abc.abc.abc.abcbfak#t#R#Wah#n.F.n.2.u.v.jbc.abc.abC.abc.abc.abc.abc.abc.abc.abc.a.b.abjbK",
"..bc.abj.abcaa#R.0#q#hbc.aaB.abcbfbc.aaB#f.2.1.n.n.l.F#p.lbc.abc.aaB.aaB.aaB.abCbfbc.abj.abj.abc.jaB.abj.abc.a#O",
"...abc.abC.haR.1#0.0bc.abc.abC.abc.abC.abc.o.n#j.U#6aE.6.G.mbc.abC.abC.abc.abc.abc.abc.abc.abc.abc.abc.abC.aaB#O",
"..bf.abc.a#iaD.F#n.m.abj.a.abfbc.abf.abc.a#oaxac#C#3#H#K.C.k.aaB.a.a.abc.a.abfbc.abf.abc.abf.jaB.a.j.abc.a.a.a#O",
"...abc.abcaCaPa1.v.abc.abc.abc.abc.abc.abC.5#H#K.6.Y.D.J.2.kbc.abC.aaB.abj.abc.abc.abc.abc.abc.abc.aaB.aaB.jbc#O",
"...a.abf.aa9aVba.a.a.a.a.abf.a.abf.a.abf.a#x#B.J.X.Q.L.1.l.k.a.a.a.j.a.a.abf.a.abf.a.abf.abf.a.a.a.a.a.j.abf.a#O",
"...abc.abc.abc.abC.abj.abc.abc.abc.abc.abc.l.L.0.S.n.l.l.l.lbc.aaB.abj.abc.abc.abc.abc.abc.abc.abj.aaB.abc.abc#O",
"b.bf.a.a.a.a.#bf.#.a.#.a.a.#bf.a.#bf.a.#.a.m.n.v.k.k.k.h.F.S.a.a.a.a.#.a.a.#bf.a.#bf.#.a.#bf.#bf.#.a.#.a.abf.a#O",
"...a.a.abc.a.a.abc.abf.abj.a.a.abc.a.abfbc.m.k.k.k.l.F#l#naN.a.abc.abf.abj.a.a.abc.a.abfbc.a.a.abc.abf.abf.a.a#O",
"...#.a.a#mbDbf.a.a#mbD.a.a#qbDbf.a#qbD.a.a.n.F#j#XaraD.C#q.mbD.a.a#mbD.a.a#qbDbf.abf#mbD.a.abf.a#mbD.abf.abf.a#O",
"...abj.abfbf.a.abf.abcbf.j.abf.a.a.jbcbf.aar#0#t#Y#y.7#mbb.abf.abf.abcbf.j.abf.a.abDbj.abfbD#m.abfbfbc.a.a.a.##P",
"b.bf.a.a.a.#bf#mbD.abf.#bf.a#mbD.abf.a.a.a#l#u.H.TaN.a.#.a.a#qbD.a.a.a#qbD.a.#bf.a#mbf.j#qbf.abf.a.a#mbD.abf.a#O",
"...a.abfbD#m.a.abf.a.a.abD#m.jbf.a.abD#m.a.abf.aaC.a.abD#q.a.j.a#q.jbf.a.abf.abD#m.a.a.a.#.j.abD#m.jbfbfbf.a.a#O",
".d#O#O#O#P#O#O#O#O#O#O#P#P#O#ObK#O#O#P#O#O#ObK#O#O#O#P#PbK#O#O#ObK#ObK#O#O#O#P#P#O#O#O#O#O#O#O#P#O#ObK#ObK#O#O#O"
};
