/* XPM */
static char *tiny_qucs_xpm[] = {
/* width height num_colors chars_per_pixel */
"    16    16       38            1",
/* colors */
"  c None",
"# c #a6a2a6",
"a c #d7d7d7",
"b c #c3bec3",
"c c #c7c7c7",
"d c #cbc3cb",
"e c #828682",
"f c #cbc7cb",
"g c #8a96ae",
"h c #9e9a9e",
"i c #a6a6ba",
"j c #d3c7d3",
"k c #b2b2b2",
"l c #cfcfcf",
"m c #bab2ba",
"n c #babed7",
"o c #696969",
"p c #babac3",
"q c #b6b6b6",
"r c #8a8a8a",
"s c #383838",
"t c #aeaaae",
"u c #a2a2a2",
"v c #2c2c2c",
"w c #dbc39e",
"x c #cbcfd7",
"y c #717171",
"z c #828a96",
"A c #bababa",
"B c #414541",
"C c #b2aeb2",
"D c #5d5d65",
"E c #b2b2b2",
"F c #8292a2",
"G c #8aa2c3",
"H c #416161",
"I c #383c41",
"J c #aeaeae",
/* pixels */
"                ",
"                ",
"  ghghiihiig#   ",
"  idjfbklmbno#  ",
"  idq#rehshao#  ",
"  ibrtbluvwxy#  ",
"  zhAfclBhdwou  ",
"  g#kiC#DpECyu  ",
"  gggFgggggGyh  ",
"  ggggiigggiyh  ",
"  ggggghgggiyh  ",
"  gggggggggiyh  ",
"  giiiiiiiiiyh  ",
"  zHDDDDDDDDI#  ",
"   tJtJJtJJC    ",
"                "
};
