<?xml version="1.0" encoding="UTF-8" standalone="no"?>
<svg
   xmlns:dc="http://purl.org/dc/elements/1.1/"
   xmlns:cc="http://creativecommons.org/ns#"
   xmlns:rdf="http://www.w3.org/1999/02/22-rdf-syntax-ns#"
   xmlns:svg="http://www.w3.org/2000/svg"
   xmlns="http://www.w3.org/2000/svg"
   xmlns:sodipodi="http://sodipodi.sourceforge.net/DTD/sodipodi-0.dtd"
   xmlns:inkscape="http://www.inkscape.org/namespaces/inkscape"
   width="500"
   height="380"
   version="1.2"
   id="svg10527"
   inkscape:version="0.48.4 r9939"
   sodipodi:docname="Gysel.svg">
  <metadata
     id="metadata10829">
    <rdf:RDF>
      <cc:Work
         rdf:about="">
        <dc:format>image/svg+xml</dc:format>
        <dc:type
           rdf:resource="http://purl.org/dc/dcmitype/StillImage" />
        <dc:title>Qt Svg Document</dc:title>
      </cc:Work>
    </rdf:RDF>
  </metadata>
  <sodipodi:namedview
     pagecolor="#ffffff"
     bordercolor="#666666"
     borderopacity="1"
     objecttolerance="10"
     gridtolerance="10"
     guidetolerance="10"
     inkscape:pageopacity="0"
     inkscape:pageshadow="2"
     inkscape:window-width="1366"
     inkscape:window-height="713"
     id="namedview10827"
     showgrid="false"
     inkscape:zoom="0.59936508"
     inkscape:cx="286.2496"
     inkscape:cy="196.875"
     inkscape:window-x="0"
     inkscape:window-y="27"
     inkscape:window-maximized="1"
     inkscape:current-layer="svg10527" />
  <title
     id="title10529">Qt Svg Document</title>
  <desc
     id="desc10531">Generated with Qt</desc>
  <defs
     id="defs10533" />
  <g
     style="font-size:12px;font-style:normal;font-weight:400;fill:none;stroke:#000080;stroke-width:2;stroke-linecap:square;stroke-linejoin:bevel;stroke-opacity:1;font-family:Helvetica"
     id="g10541"
     font-style="normal"
     font-weight="400"
     font-size="12"
     transform="matrix(1.1853814,0,0,1.1853814,5.0052966,-35.439619)">
    <polyline
       style="fill:none"
       id="polyline10543"
       points="375,100 375,110 "
       vector-effect="none" />
  </g>
  <g
     style="font-size:12px;font-style:normal;font-weight:400;fill:none;stroke:#000080;stroke-width:3;stroke-linecap:square;stroke-linejoin:bevel;stroke-opacity:1;font-family:Helvetica"
     id="g10545"
     font-style="normal"
     font-weight="400"
     font-size="12"
     transform="matrix(1.1853814,0,0,1.1853814,5.0052966,-35.439619)">
    <polyline
       style="fill:none"
       id="polyline10547"
       points="364,110 386,110 "
       vector-effect="none" />
    <polyline
       style="fill:none"
       id="polyline10549"
       points="368,116 382,116 "
       vector-effect="none" />
    <polyline
       style="fill:none"
       id="polyline10551"
       points="372,122 378,122 "
       vector-effect="none" />
  </g>
  <g
     style="font-size:12px;font-style:normal;font-weight:400;fill:none;stroke:#000080;stroke-width:3;stroke-linecap:square;stroke-linejoin:bevel;stroke-opacity:1;font-family:Helvetica"
     id="g10553"
     font-style="normal"
     font-weight="400"
     font-size="12"
     transform="matrix(1.1853814,0,0,1.1853814,5.0052966,-35.439619)" />
  <g
     style="font-size:12px;font-style:normal;font-weight:400;fill:none;stroke:#000080;stroke-width:2;stroke-linecap:square;stroke-linejoin:bevel;stroke-opacity:1;font-family:Helvetica"
     id="g10555"
     font-style="normal"
     font-weight="400"
     font-size="12"
     transform="matrix(1.1853814,0,0,1.1853814,5.0052966,-35.439619)">
    <polyline
       style="fill:none"
       id="polyline10557"
       points="375,270 375,280 "
       vector-effect="none" />
  </g>
  <g
     style="font-size:12px;font-style:normal;font-weight:400;fill:none;stroke:#000080;stroke-width:3;stroke-linecap:square;stroke-linejoin:bevel;stroke-opacity:1;font-family:Helvetica"
     id="g10559"
     font-style="normal"
     font-weight="400"
     font-size="12"
     transform="matrix(1.1853814,0,0,1.1853814,5.0052966,-35.439619)">
    <polyline
       style="fill:none"
       id="polyline10561"
       points="364,280 386,280 "
       vector-effect="none" />
    <polyline
       style="fill:none"
       id="polyline10563"
       points="368,286 382,286 "
       vector-effect="none" />
    <polyline
       style="fill:none"
       id="polyline10565"
       points="372,292 378,292 "
       vector-effect="none" />
  </g>
  <g
     style="font-size:12px;font-style:normal;font-weight:400;fill:none;stroke:#000080;stroke-width:3;stroke-linecap:square;stroke-linejoin:bevel;stroke-opacity:1;font-family:Helvetica"
     id="g10567"
     font-style="normal"
     font-weight="400"
     font-size="12"
     transform="matrix(1.1853814,0,0,1.1853814,5.0052966,-35.439619)" />
  <g
     style="font-size:12px;font-style:normal;font-weight:400;fill:none;stroke:#000080;stroke-width:2;stroke-linecap:square;stroke-linejoin:bevel;stroke-opacity:1;font-family:Helvetica"
     id="g10569"
     font-style="normal"
     font-weight="400"
     font-size="12"
     transform="matrix(1.1853814,0,0,1.1853814,5.0052966,-35.439619)">
    <polyline
       style="fill:none"
       id="polyline10571"
       points="185,100 245,100 "
       vector-effect="none" />
    <polyline
       style="fill:none"
       id="polyline10573"
       points="187,107 243,107 "
       vector-effect="none" />
    <polyline
       style="fill:none"
       id="polyline10575"
       points="187,114 194,107 "
       vector-effect="none" />
    <polyline
       style="fill:none"
       id="polyline10577"
       points="194,114 201,107 "
       vector-effect="none" />
    <polyline
       style="fill:none"
       id="polyline10579"
       points="201,114 208,107 "
       vector-effect="none" />
    <polyline
       style="fill:none"
       id="polyline10581"
       points="208,114 215,107 "
       vector-effect="none" />
    <polyline
       style="fill:none"
       id="polyline10583"
       points="215,114 222,107 "
       vector-effect="none" />
    <polyline
       style="fill:none"
       id="polyline10585"
       points="222,114 229,107 "
       vector-effect="none" />
    <polyline
       style="fill:none"
       id="polyline10587"
       points="229,114 236,107 "
       vector-effect="none" />
    <polyline
       style="fill:none"
       id="polyline10589"
       points="236,114 243,107 "
       vector-effect="none" />
  </g>
  <g
     style="font-size:12px;font-style:normal;font-weight:400;fill:none;stroke:#000080;stroke-width:2;stroke-linecap:square;stroke-linejoin:bevel;stroke-opacity:1;font-family:Helvetica"
     id="g10591"
     font-style="normal"
     font-weight="400"
     font-size="12"
     transform="matrix(1.1853814,0,0,1.1853814,5.0052966,-35.439619)" />
  <g
     style="font-size:12px;font-style:normal;font-weight:400;fill:none;stroke:#000080;stroke-width:2;stroke-linecap:square;stroke-linejoin:bevel;stroke-opacity:1;font-family:Helvetica"
     id="g10593"
     font-style="normal"
     font-weight="400"
     font-size="12"
     transform="matrix(1.1853814,0,0,1.1853814,5.0052966,-35.439619)">
    <polyline
       style="fill:none"
       id="polyline10595"
       points="315,210 315,150 "
       vector-effect="none" />
    <polyline
       style="fill:none"
       id="polyline10597"
       points="322,208 322,152 "
       vector-effect="none" />
    <polyline
       style="fill:none"
       id="polyline10599"
       points="329,208 322,201 "
       vector-effect="none" />
    <polyline
       style="fill:none"
       id="polyline10601"
       points="329,201 322,194 "
       vector-effect="none" />
    <polyline
       style="fill:none"
       id="polyline10603"
       points="329,194 322,187 "
       vector-effect="none" />
    <polyline
       style="fill:none"
       id="polyline10605"
       points="329,187 322,180 "
       vector-effect="none" />
    <polyline
       style="fill:none"
       id="polyline10607"
       points="329,180 322,173 "
       vector-effect="none" />
    <polyline
       style="fill:none"
       id="polyline10609"
       points="329,173 322,166 "
       vector-effect="none" />
    <polyline
       style="fill:none"
       id="polyline10611"
       points="329,166 322,159 "
       vector-effect="none" />
    <polyline
       style="fill:none"
       id="polyline10613"
       points="329,159 322,152 "
       vector-effect="none" />
  </g>
  <g
     style="font-size:12px;font-style:normal;font-weight:400;fill:none;stroke:#000080;stroke-width:2;stroke-linecap:square;stroke-linejoin:bevel;stroke-opacity:1;font-family:Helvetica"
     id="g10615"
     font-style="normal"
     font-weight="400"
     font-size="12"
     transform="matrix(1.1853814,0,0,1.1853814,5.0052966,-35.439619)" />
  <g
     style="font-size:12px;font-style:normal;font-weight:400;fill:none;stroke:#000080;stroke-width:2;stroke-linecap:square;stroke-linejoin:bevel;stroke-opacity:1;font-family:Helvetica"
     id="g10617"
     font-style="normal"
     font-weight="400"
     font-size="12"
     transform="matrix(1.1853814,0,0,1.1853814,5.0052966,-35.439619)">
    <polyline
       style="fill:none"
       id="polyline10619"
       points="115,270 115,210 "
       vector-effect="none" />
    <polyline
       style="fill:none"
       id="polyline10621"
       points="122,268 122,212 "
       vector-effect="none" />
    <polyline
       style="fill:none"
       id="polyline10623"
       points="129,268 122,261 "
       vector-effect="none" />
    <polyline
       style="fill:none"
       id="polyline10625"
       points="129,261 122,254 "
       vector-effect="none" />
    <polyline
       style="fill:none"
       id="polyline10627"
       points="129,254 122,247 "
       vector-effect="none" />
    <polyline
       style="fill:none"
       id="polyline10629"
       points="129,247 122,240 "
       vector-effect="none" />
    <polyline
       style="fill:none"
       id="polyline10631"
       points="129,240 122,233 "
       vector-effect="none" />
    <polyline
       style="fill:none"
       id="polyline10633"
       points="129,233 122,226 "
       vector-effect="none" />
    <polyline
       style="fill:none"
       id="polyline10635"
       points="129,226 122,219 "
       vector-effect="none" />
    <polyline
       style="fill:none"
       id="polyline10637"
       points="129,219 122,212 "
       vector-effect="none" />
  </g>
  <g
     style="font-size:12px;font-style:normal;font-weight:400;fill:none;stroke:#000080;stroke-width:2;stroke-linecap:square;stroke-linejoin:bevel;stroke-opacity:1;font-family:Helvetica"
     id="g10639"
     font-style="normal"
     font-weight="400"
     font-size="12"
     transform="matrix(1.1853814,0,0,1.1853814,5.0052966,-35.439619)" />
  <g
     style="font-size:12px;font-style:normal;font-weight:400;fill:none;stroke:#000080;stroke-width:2;stroke-linecap:square;stroke-linejoin:bevel;stroke-opacity:1;font-family:Helvetica"
     id="g10641"
     font-style="normal"
     font-weight="400"
     font-size="12"
     transform="matrix(1.1853814,0,0,1.1853814,5.0052966,-35.439619)">
    <polyline
       style="fill:none"
       id="polyline10643"
       points="115,160 115,100 "
       vector-effect="none" />
    <polyline
       style="fill:none"
       id="polyline10645"
       points="122,158 122,102 "
       vector-effect="none" />
    <polyline
       style="fill:none"
       id="polyline10647"
       points="129,158 122,151 "
       vector-effect="none" />
    <polyline
       style="fill:none"
       id="polyline10649"
       points="129,151 122,144 "
       vector-effect="none" />
    <polyline
       style="fill:none"
       id="polyline10651"
       points="129,144 122,137 "
       vector-effect="none" />
    <polyline
       style="fill:none"
       id="polyline10653"
       points="129,137 122,130 "
       vector-effect="none" />
    <polyline
       style="fill:none"
       id="polyline10655"
       points="129,130 122,123 "
       vector-effect="none" />
    <polyline
       style="fill:none"
       id="polyline10657"
       points="129,123 122,116 "
       vector-effect="none" />
    <polyline
       style="fill:none"
       id="polyline10659"
       points="129,116 122,109 "
       vector-effect="none" />
    <polyline
       style="fill:none"
       id="polyline10661"
       points="129,109 122,102 "
       vector-effect="none" />
  </g>
  <g
     style="font-size:12px;font-style:normal;font-weight:400;fill:none;stroke:#000080;stroke-width:2;stroke-linecap:square;stroke-linejoin:bevel;stroke-opacity:1;font-family:Helvetica"
     id="g10663"
     font-style="normal"
     font-weight="400"
     font-size="12"
     transform="matrix(1.1853814,0,0,1.1853814,5.0052966,-35.439619)" />
  <g
     style="font-size:12px;font-style:normal;font-weight:400;fill:none;stroke:#000080;stroke-width:2;stroke-linecap:square;stroke-linejoin:bevel;stroke-opacity:1;font-family:Helvetica"
     id="g10665"
     font-style="normal"
     font-weight="400"
     font-size="12"
     transform="matrix(1.1853814,0,0,1.1853814,5.0052966,-35.439619)">
    <polyline
       style="fill:none"
       id="polyline10667"
       points="185,270 245,270 "
       vector-effect="none" />
    <polyline
       style="fill:none"
       id="polyline10669"
       points="187,277 243,277 "
       vector-effect="none" />
    <polyline
       style="fill:none"
       id="polyline10671"
       points="187,284 194,277 "
       vector-effect="none" />
    <polyline
       style="fill:none"
       id="polyline10673"
       points="194,284 201,277 "
       vector-effect="none" />
    <polyline
       style="fill:none"
       id="polyline10675"
       points="201,284 208,277 "
       vector-effect="none" />
    <polyline
       style="fill:none"
       id="polyline10677"
       points="208,284 215,277 "
       vector-effect="none" />
    <polyline
       style="fill:none"
       id="polyline10679"
       points="215,284 222,277 "
       vector-effect="none" />
    <polyline
       style="fill:none"
       id="polyline10681"
       points="222,284 229,277 "
       vector-effect="none" />
    <polyline
       style="fill:none"
       id="polyline10683"
       points="229,284 236,277 "
       vector-effect="none" />
    <polyline
       style="fill:none"
       id="polyline10685"
       points="236,284 243,277 "
       vector-effect="none" />
  </g>
  <g
     style="font-size:12px;font-style:normal;font-weight:400;fill:none;stroke:#000080;stroke-width:2;stroke-linecap:square;stroke-linejoin:bevel;stroke-opacity:1;font-family:Helvetica"
     id="g10687"
     font-style="normal"
     font-weight="400"
     font-size="12"
     transform="matrix(1.1853814,0,0,1.1853814,5.0052966,-35.439619)" />
  <g
     style="font-size:12px;font-style:normal;font-weight:400;fill:none;stroke:#000080;stroke-width:2;stroke-linecap:square;stroke-linejoin:bevel;stroke-opacity:1;font-family:Helvetica"
     id="g10689"
     font-style="normal"
     font-weight="400"
     font-size="12"
     transform="matrix(1.1853814,0,0,1.1853814,5.0052966,-35.439619)">
    <polyline
       style="fill:none"
       id="polyline10691"
       points="315,270 327,270 "
       vector-effect="none" />
    <polyline
       style="fill:none"
       id="polyline10693"
       points="327,270 330,263 "
       vector-effect="none" />
    <polyline
       style="fill:none"
       id="polyline10695"
       points="330,263 336,277 "
       vector-effect="none" />
    <polyline
       style="fill:none"
       id="polyline10697"
       points="336,277 342,263 "
       vector-effect="none" />
    <polyline
       style="fill:none"
       id="polyline10699"
       points="342,263 348,277 "
       vector-effect="none" />
    <polyline
       style="fill:none"
       id="polyline10701"
       points="348,277 354,263 "
       vector-effect="none" />
    <polyline
       style="fill:none"
       id="polyline10703"
       points="354,263 360,277 "
       vector-effect="none" />
    <polyline
       style="fill:none"
       id="polyline10705"
       points="360,277 363,270 "
       vector-effect="none" />
    <polyline
       style="fill:none"
       id="polyline10707"
       points="363,270 375,270 "
       vector-effect="none" />
  </g>
  <g
     style="font-size:12px;font-style:normal;font-weight:400;fill:none;stroke:#000080;stroke-width:2;stroke-linecap:square;stroke-linejoin:bevel;stroke-opacity:1;font-family:Helvetica"
     id="g10709"
     font-style="normal"
     font-weight="400"
     font-size="12"
     transform="matrix(1.1853814,0,0,1.1853814,5.0052966,-35.439619)" />
  <g
     style="font-size:12px;font-style:normal;font-weight:400;fill:none;stroke:#000080;stroke-width:2;stroke-linecap:square;stroke-linejoin:bevel;stroke-opacity:1;font-family:Helvetica"
     id="g10711"
     font-style="normal"
     font-weight="400"
     font-size="12"
     transform="matrix(1.1853814,0,0,1.1853814,5.0052966,-35.439619)">
    <polyline
       style="fill:none"
       id="polyline10713"
       points="315,100 327,100 "
       vector-effect="none" />
    <polyline
       style="fill:none"
       id="polyline10715"
       points="327,100 330,93 "
       vector-effect="none" />
    <polyline
       style="fill:none"
       id="polyline10717"
       points="330,93 336,107 "
       vector-effect="none" />
    <polyline
       style="fill:none"
       id="polyline10719"
       points="336,107 342,93 "
       vector-effect="none" />
    <polyline
       style="fill:none"
       id="polyline10721"
       points="342,93 348,107 "
       vector-effect="none" />
    <polyline
       style="fill:none"
       id="polyline10723"
       points="348,107 354,93 "
       vector-effect="none" />
    <polyline
       style="fill:none"
       id="polyline10725"
       points="354,93 360,107 "
       vector-effect="none" />
    <polyline
       style="fill:none"
       id="polyline10727"
       points="360,107 363,100 "
       vector-effect="none" />
    <polyline
       style="fill:none"
       id="polyline10729"
       points="363,100 375,100 "
       vector-effect="none" />
  </g>
  <g
     style="font-size:12px;font-style:normal;font-weight:400;fill:none;stroke:#000080;stroke-width:2;stroke-linecap:square;stroke-linejoin:bevel;stroke-opacity:1;font-family:Helvetica"
     id="g10731"
     font-style="normal"
     font-weight="400"
     font-size="12"
     transform="matrix(1.1853814,0,0,1.1853814,5.0052966,-35.439619)" />
  <g
     style="font-size:12px;font-style:normal;font-weight:400;fill:none;stroke:#000080;stroke-width:2;stroke-linecap:square;stroke-linejoin:bevel;stroke-opacity:1;font-family:Helvetica"
     id="g10733"
     font-style="normal"
     font-weight="400"
     font-size="12"
     transform="matrix(1.1853814,0,0,1.1853814,5.0052966,-35.439619)">
    <polyline
       style="fill:none"
       id="polyline10735"
       points="15,180 115,180 "
       vector-effect="none" />
    <polyline
       style="fill:none"
       id="polyline10737"
       points="115,180 115,210 "
       vector-effect="none" />
    <polyline
       style="fill:none"
       id="polyline10739"
       points="115,160 115,180 "
       vector-effect="none" />
    <polyline
       style="fill:none"
       id="polyline10741"
       points="115,100 185,100 "
       vector-effect="none" />
    <polyline
       style="fill:none"
       id="polyline10743"
       points="115,270 185,270 "
       vector-effect="none" />
    <polyline
       style="fill:none"
       id="polyline10745"
       points="115,270 115,300 "
       vector-effect="none" />
    <polyline
       style="fill:none"
       id="polyline10747"
       points="115,70 115,100 "
       vector-effect="none" />
    <polyline
       style="fill:none"
       id="polyline10749"
       points="245,100 315,100 "
       vector-effect="none" />
    <polyline
       style="fill:none"
       id="polyline10751"
       points="245,270 315,270 "
       vector-effect="none" />
    <polyline
       style="fill:none"
       id="polyline10753"
       points="315,210 315,270 "
       vector-effect="none" />
    <polyline
       style="fill:none"
       id="polyline10755"
       points="315,100 315,150 "
       vector-effect="none" />
  </g>
  <g
     style="font-size:12px;font-style:normal;font-weight:400;fill:#000080;fill-opacity:1;stroke:none;font-family:Helvetica"
     id="g10757"
     font-style="normal"
     font-weight="400"
     font-size="12"
     transform="matrix(1.1853814,0,0,1.1853814,5.0052966,-35.439619)">
    <path
       style="fill-rule:evenodd"
       inkscape:connector-curvature="0"
       id="path10759"
       d="m 113,158 4,0 0,4 -4,0 0,-4"
       vector-effect="non-scaling-stroke" />
  </g>
  <g
     style="font-size:12px;font-style:normal;font-weight:400;fill:#000080;fill-opacity:1;stroke:#000080;stroke-width:1;stroke-linecap:square;stroke-linejoin:bevel;stroke-opacity:1;font-family:Helvetica"
     id="g10761"
     font-style="normal"
     font-weight="400"
     font-size="12"
     transform="matrix(1.1853814,0,0,1.1853814,5.0052966,-35.439619)">
    <path
       style="fill-rule:evenodd"
       inkscape:connector-curvature="0"
       id="path10763"
       d="m 118,100 c 0,1.657 -1.343,3 -3,3 -1.657,0 -3,-1.343 -3,-3 0,-1.6569 1.343,-3 3,-3 1.657,0 3,1.3431 3,3"
       vector-effect="none" />
  </g>
  <g
     style="font-size:12px;font-style:normal;font-weight:400;fill:#000080;fill-opacity:1;stroke:#000080;stroke-width:1;stroke-linecap:square;stroke-linejoin:bevel;stroke-opacity:1;font-family:Helvetica"
     id="g10765"
     font-style="normal"
     font-weight="400"
     font-size="12"
     transform="matrix(1.1853814,0,0,1.1853814,5.0052966,-35.439619)">
    <path
       style="fill-rule:evenodd"
       inkscape:connector-curvature="0"
       id="path10767"
       d="m 118,270 c 0,1.657 -1.343,3 -3,3 -1.657,0 -3,-1.343 -3,-3 0,-1.657 1.343,-3 3,-3 1.657,0 3,1.343 3,3"
       vector-effect="none" />
  </g>
  <g
     style="font-size:12px;font-style:normal;font-weight:400;fill:#000080;fill-opacity:1;stroke:none;font-family:Helvetica"
     id="g10769"
     font-style="normal"
     font-weight="400"
     font-size="12"
     transform="matrix(1.1853814,0,0,1.1853814,5.0052966,-35.439619)">
    <path
       style="fill-rule:evenodd"
       inkscape:connector-curvature="0"
       id="path10771"
       d="m 113,208 4,0 0,4 -4,0 0,-4"
       vector-effect="non-scaling-stroke" />
  </g>
  <g
     style="font-size:12px;font-style:normal;font-weight:400;fill:#000080;fill-opacity:1;stroke:none;font-family:Helvetica"
     id="g10773"
     font-style="normal"
     font-weight="400"
     font-size="12"
     transform="matrix(1.1853814,0,0,1.1853814,5.0052966,-35.439619)">
    <path
       style="fill-rule:evenodd"
       inkscape:connector-curvature="0"
       id="path10775"
       d="m 183,98 4,0 0,4 -4,0 0,-4"
       vector-effect="non-scaling-stroke" />
  </g>
  <g
     style="font-size:12px;font-style:normal;font-weight:400;fill:#000080;fill-opacity:1;stroke:none;font-family:Helvetica"
     id="g10777"
     font-style="normal"
     font-weight="400"
     font-size="12"
     transform="matrix(1.1853814,0,0,1.1853814,5.0052966,-35.439619)">
    <path
       style="fill-rule:evenodd"
       inkscape:connector-curvature="0"
       id="path10779"
       d="m 243,98 4,0 0,4 -4,0 0,-4"
       vector-effect="non-scaling-stroke" />
  </g>
  <g
     style="font-size:12px;font-style:normal;font-weight:400;fill:#000080;fill-opacity:1;stroke:none;font-family:Helvetica"
     id="g10781"
     font-style="normal"
     font-weight="400"
     font-size="12"
     transform="matrix(1.1853814,0,0,1.1853814,5.0052966,-35.439619)">
    <path
       style="fill-rule:evenodd"
       inkscape:connector-curvature="0"
       id="path10783"
       d="m 183,268 4,0 0,4 -4,0 0,-4"
       vector-effect="non-scaling-stroke" />
  </g>
  <g
     style="font-size:12px;font-style:normal;font-weight:400;fill:#000080;fill-opacity:1;stroke:none;font-family:Helvetica"
     id="g10785"
     font-style="normal"
     font-weight="400"
     font-size="12"
     transform="matrix(1.1853814,0,0,1.1853814,5.0052966,-35.439619)">
    <path
       style="fill-rule:evenodd"
       inkscape:connector-curvature="0"
       id="path10787"
       d="m 243,268 4,0 0,4 -4,0 0,-4"
       vector-effect="non-scaling-stroke" />
  </g>
  <g
     style="font-size:12px;font-style:normal;font-weight:400;fill:#000080;fill-opacity:1;stroke:none;font-family:Helvetica"
     id="g10789"
     font-style="normal"
     font-weight="400"
     font-size="12"
     transform="matrix(1.1853814,0,0,1.1853814,5.0052966,-35.439619)">
    <path
       style="fill-rule:evenodd"
       inkscape:connector-curvature="0"
       id="path10791"
       d="m 313,208 4,0 0,4 -4,0 0,-4"
       vector-effect="non-scaling-stroke" />
  </g>
  <g
     style="font-size:12px;font-style:normal;font-weight:400;fill:#000080;fill-opacity:1;stroke:none;font-family:Helvetica"
     id="g10793"
     font-style="normal"
     font-weight="400"
     font-size="12"
     transform="matrix(1.1853814,0,0,1.1853814,5.0052966,-35.439619)">
    <path
       style="fill-rule:evenodd"
       inkscape:connector-curvature="0"
       id="path10795"
       d="m 313,148 4,0 0,4 -4,0 0,-4"
       vector-effect="non-scaling-stroke" />
  </g>
  <g
     style="font-size:12px;font-style:normal;font-weight:400;fill:#000080;fill-opacity:1;stroke:#000080;stroke-width:1;stroke-linecap:square;stroke-linejoin:bevel;stroke-opacity:1;font-family:Helvetica"
     id="g10797"
     font-style="normal"
     font-weight="400"
     font-size="12"
     transform="matrix(1.1853814,0,0,1.1853814,5.0052966,-35.439619)">
    <path
       style="fill-rule:evenodd"
       inkscape:connector-curvature="0"
       id="path10799"
       d="m 318,100 c 0,1.657 -1.343,3 -3,3 -1.657,0 -3,-1.343 -3,-3 0,-1.6569 1.343,-3 3,-3 1.657,0 3,1.3431 3,3"
       vector-effect="none" />
  </g>
  <g
     style="font-size:12px;font-style:normal;font-weight:400;fill:#000080;fill-opacity:1;stroke:none;font-family:Helvetica"
     id="g10801"
     font-style="normal"
     font-weight="400"
     font-size="12"
     transform="matrix(1.1853814,0,0,1.1853814,5.0052966,-35.439619)">
    <path
       style="fill-rule:evenodd"
       inkscape:connector-curvature="0"
       id="path10803"
       d="m 373,98 4,0 0,4 -4,0 0,-4"
       vector-effect="non-scaling-stroke" />
  </g>
  <g
     style="font-size:12px;font-style:normal;font-weight:400;fill:#000080;fill-opacity:1;stroke:#000080;stroke-width:1;stroke-linecap:square;stroke-linejoin:bevel;stroke-opacity:1;font-family:Helvetica"
     id="g10805"
     font-style="normal"
     font-weight="400"
     font-size="12"
     transform="matrix(1.1853814,0,0,1.1853814,5.0052966,-35.439619)">
    <path
       style="fill-rule:evenodd"
       inkscape:connector-curvature="0"
       id="path10807"
       d="m 318,270 c 0,1.657 -1.343,3 -3,3 -1.657,0 -3,-1.343 -3,-3 0,-1.657 1.343,-3 3,-3 1.657,0 3,1.343 3,3"
       vector-effect="none" />
  </g>
  <g
     style="font-size:12px;font-style:normal;font-weight:400;fill:#000080;fill-opacity:1;stroke:none;font-family:Helvetica"
     id="g10809"
     font-style="normal"
     font-weight="400"
     font-size="12"
     transform="matrix(1.1853814,0,0,1.1853814,5.0052966,-35.439619)">
    <path
       style="fill-rule:evenodd"
       inkscape:connector-curvature="0"
       id="path10811"
       d="m 373,268 4,0 0,4 -4,0 0,-4"
       vector-effect="non-scaling-stroke" />
  </g>
  <g
     style="font-size:12px;font-style:normal;font-weight:400;fill:none;stroke:#ff0000;stroke-width:1;stroke-linecap:square;stroke-linejoin:bevel;stroke-opacity:1;font-family:Helvetica"
     id="g10813"
     font-style="normal"
     font-weight="400"
     font-size="12"
     transform="matrix(1.1853814,0,0,1.1853814,5.0052966,-35.439619)">
    <path
       inkscape:connector-curvature="0"
       id="path10815"
       d="m 19,180 c 0,2.209 -1.7909,4 -4,4 -2.2091,0 -4,-1.791 -4,-4 0,-2.209 1.7909,-4 4,-4 2.2091,0 4,1.791 4,4"
       vector-effect="none" />
  </g>
  <g
     style="font-size:12px;font-style:normal;font-weight:400;fill:#000080;fill-opacity:1;stroke:#000080;stroke-width:1;stroke-linecap:square;stroke-linejoin:bevel;stroke-opacity:1;font-family:Helvetica"
     id="g10817"
     font-style="normal"
     font-weight="400"
     font-size="12"
     transform="matrix(1.1853814,0,0,1.1853814,5.0052966,-35.439619)">
    <path
       style="fill-rule:evenodd"
       inkscape:connector-curvature="0"
       id="path10819"
       d="m 118,180 c 0,1.657 -1.343,3 -3,3 -1.657,0 -3,-1.343 -3,-3 0,-1.657 1.343,-3 3,-3 1.657,0 3,1.343 3,3"
       vector-effect="none" />
  </g>
  <g
     style="font-size:12px;font-style:normal;font-weight:400;fill:none;stroke:#ff0000;stroke-width:1;stroke-linecap:square;stroke-linejoin:bevel;stroke-opacity:1;font-family:Helvetica"
     id="g10821"
     font-style="normal"
     font-weight="400"
     font-size="12"
     transform="matrix(1.1853814,0,0,1.1853814,5.0052966,-35.439619)">
    <path
       inkscape:connector-curvature="0"
       id="path10823"
       d="m 119,300 c 0,2.209 -1.791,4 -4,4 -2.209,0 -4,-1.791 -4,-4 0,-2.209 1.791,-4 4,-4 2.209,0 4,1.791 4,4"
       vector-effect="none" />
    <path
       inkscape:connector-curvature="0"
       id="path10825"
       d="m 119,70 c 0,2.2091 -1.791,4 -4,4 -2.209,0 -4,-1.7909 -4,-4 0,-2.2091 1.791,-4 4,-4 2.209,0 4,1.7909 4,4"
       vector-effect="none" />
  </g>
</svg>
