<?xml version="1.0" encoding="UTF-8" standalone="no"?>
<!-- Created with Inkscape (http://www.inkscape.org/) -->

<svg
   xmlns:dc="http://purl.org/dc/elements/1.1/"
   xmlns:cc="http://creativecommons.org/ns#"
   xmlns:rdf="http://www.w3.org/1999/02/22-rdf-syntax-ns#"
   xmlns:svg="http://www.w3.org/2000/svg"
   xmlns="http://www.w3.org/2000/svg"
   xmlns:sodipodi="http://sodipodi.sourceforge.net/DTD/sodipodi-0.dtd"
   xmlns:inkscape="http://www.inkscape.org/namespaces/inkscape"
   width="500"
   height="380"
   id="svg2"
   version="1.1"
   inkscape:version="0.48.4 r9939"
   sodipodi:docname="New document 1">
  <defs
     id="defs4" />
  <sodipodi:namedview
     id="base"
     pagecolor="#ffffff"
     bordercolor="#666666"
     borderopacity="1.0"
     inkscape:pageopacity="0.0"
     inkscape:pageshadow="2"
     inkscape:zoom="0.7"
     inkscape:cx="393.96928"
     inkscape:cy="286.53458"
     inkscape:document-units="px"
     inkscape:current-layer="layer1"
     showgrid="false"
     inkscape:window-width="1366"
     inkscape:window-height="713"
     inkscape:window-x="0"
     inkscape:window-y="27"
     inkscape:window-maximized="1" />
  <metadata
     id="metadata7">
    <rdf:RDF>
      <cc:Work
         rdf:about="">
        <dc:format>image/svg+xml</dc:format>
        <dc:type
           rdf:resource="http://purl.org/dc/dcmitype/StillImage" />
        <dc:title></dc:title>
      </cc:Work>
    </rdf:RDF>
  </metadata>
  <g
     inkscape:label="Layer 1"
     inkscape:groupmode="layer"
     id="layer1"
     transform="translate(0,-672.36218)">
    <g
       style="font-size:12px;font-style:normal;font-weight:400;fill:none;stroke:#000080;stroke-width:2;stroke-linecap:square;stroke-linejoin:bevel;stroke-opacity:1;font-family:Helvetica"
       font-size="12"
       font-weight="400"
       font-style="normal"
       id="g3479"
       transform="matrix(0.84115884,0,0,0.84115884,-4.2857162,728.07646)">
      <polyline
         style="fill:none"
         vector-effect="none"
         points="265,105 325,105 "
         id="polyline3481" />
      <polyline
         style="fill:none"
         vector-effect="none"
         points="267,112 323,112 "
         id="polyline3483" />
      <polyline
         style="fill:none"
         vector-effect="none"
         points="267,119 274,112 "
         id="polyline3485" />
      <polyline
         style="fill:none"
         vector-effect="none"
         points="274,119 281,112 "
         id="polyline3487" />
      <polyline
         style="fill:none"
         vector-effect="none"
         points="281,119 288,112 "
         id="polyline3489" />
      <polyline
         style="fill:none"
         vector-effect="none"
         points="288,119 295,112 "
         id="polyline3491" />
      <polyline
         style="fill:none"
         vector-effect="none"
         points="295,119 302,112 "
         id="polyline3493" />
      <polyline
         style="fill:none"
         vector-effect="none"
         points="302,119 309,112 "
         id="polyline3495" />
      <polyline
         style="fill:none"
         vector-effect="none"
         points="309,119 316,112 "
         id="polyline3497" />
      <polyline
         style="fill:none"
         vector-effect="none"
         points="316,119 323,112 "
         id="polyline3499" />
    </g>
    <g
       style="font-size:12px;font-style:normal;font-weight:400;fill:none;stroke:#000080;stroke-width:2;stroke-linecap:square;stroke-linejoin:bevel;stroke-opacity:1;font-family:Helvetica"
       font-size="12"
       font-weight="400"
       font-style="normal"
       id="g3501"
       transform="matrix(0.84115884,0,0,0.84115884,-4.2857162,728.07646)" />
    <g
       style="font-size:12px;font-style:normal;font-weight:400;fill:none;stroke:#000080;stroke-width:2;stroke-linecap:square;stroke-linejoin:bevel;stroke-opacity:1;font-family:Helvetica"
       font-size="12"
       font-weight="400"
       font-style="normal"
       id="g3503"
       transform="matrix(0.84115884,0,0,0.84115884,-4.2857162,728.07646)">
      <polyline
         style="fill:none"
         vector-effect="none"
         points="265,225 325,225 "
         id="polyline3505" />
      <polyline
         style="fill:none"
         vector-effect="none"
         points="267,232 323,232 "
         id="polyline3507" />
      <polyline
         style="fill:none"
         vector-effect="none"
         points="267,239 274,232 "
         id="polyline3509" />
      <polyline
         style="fill:none"
         vector-effect="none"
         points="274,239 281,232 "
         id="polyline3511" />
      <polyline
         style="fill:none"
         vector-effect="none"
         points="281,239 288,232 "
         id="polyline3513" />
      <polyline
         style="fill:none"
         vector-effect="none"
         points="288,239 295,232 "
         id="polyline3515" />
      <polyline
         style="fill:none"
         vector-effect="none"
         points="295,239 302,232 "
         id="polyline3517" />
      <polyline
         style="fill:none"
         vector-effect="none"
         points="302,239 309,232 "
         id="polyline3519" />
      <polyline
         style="fill:none"
         vector-effect="none"
         points="309,239 316,232 "
         id="polyline3521" />
      <polyline
         style="fill:none"
         vector-effect="none"
         points="316,239 323,232 "
         id="polyline3523" />
    </g>
    <g
       style="font-size:12px;font-style:normal;font-weight:400;fill:none;stroke:#000080;stroke-width:2;stroke-linecap:square;stroke-linejoin:bevel;stroke-opacity:1;font-family:Helvetica"
       font-size="12"
       font-weight="400"
       font-style="normal"
       id="g3525"
       transform="matrix(0.84115884,0,0,0.84115884,-4.2857162,728.07646)" />
    <g
       style="font-size:12px;font-style:normal;font-weight:400;fill:none;stroke:#000080;stroke-width:2;stroke-linecap:square;stroke-linejoin:bevel;stroke-opacity:1;font-family:Helvetica"
       font-size="12"
       font-weight="400"
       font-style="normal"
       id="g3527"
       transform="matrix(0.84115884,0,0,0.84115884,-4.2857162,728.07646)">
      <polyline
         style="fill:none"
         vector-effect="none"
         points="355,145 355,157 "
         id="polyline3529" />
      <polyline
         style="fill:none"
         vector-effect="none"
         points="355,157 362,160 "
         id="polyline3531" />
      <polyline
         style="fill:none"
         vector-effect="none"
         points="362,160 348,166 "
         id="polyline3533" />
      <polyline
         style="fill:none"
         vector-effect="none"
         points="348,166 362,172 "
         id="polyline3535" />
      <polyline
         style="fill:none"
         vector-effect="none"
         points="362,172 348,178 "
         id="polyline3537" />
      <polyline
         style="fill:none"
         vector-effect="none"
         points="348,178 362,184 "
         id="polyline3539" />
      <polyline
         style="fill:none"
         vector-effect="none"
         points="362,184 348,190 "
         id="polyline3541" />
      <polyline
         style="fill:none"
         vector-effect="none"
         points="348,190 355,193 "
         id="polyline3543" />
      <polyline
         style="fill:none"
         vector-effect="none"
         points="355,193 355,205 "
         id="polyline3545" />
    </g>
    <g
       style="font-size:12px;font-style:normal;font-weight:400;fill:none;stroke:#000080;stroke-width:2;stroke-linecap:square;stroke-linejoin:bevel;stroke-opacity:1;font-family:Helvetica"
       font-size="12"
       font-weight="400"
       font-style="normal"
       id="g3547"
       transform="matrix(0.84115884,0,0,0.84115884,-4.2857162,728.07646)" />
    <g
       style="font-size:12px;font-style:normal;font-weight:400;fill:none;stroke:#000080;stroke-width:2;stroke-linecap:square;stroke-linejoin:bevel;stroke-opacity:1;font-family:Helvetica"
       font-size="12"
       font-weight="400"
       font-style="normal"
       id="g3549"
       transform="matrix(0.84115884,0,0,0.84115884,-4.2857162,728.07646)">
      <polyline
         style="fill:none"
         vector-effect="none"
         points="115,105 175,105 "
         id="polyline3551" />
      <polyline
         style="fill:none"
         vector-effect="none"
         points="117,112 173,112 "
         id="polyline3553" />
      <polyline
         style="fill:none"
         vector-effect="none"
         points="117,119 124,112 "
         id="polyline3555" />
      <polyline
         style="fill:none"
         vector-effect="none"
         points="124,119 131,112 "
         id="polyline3557" />
      <polyline
         style="fill:none"
         vector-effect="none"
         points="131,119 138,112 "
         id="polyline3559" />
      <polyline
         style="fill:none"
         vector-effect="none"
         points="138,119 145,112 "
         id="polyline3561" />
      <polyline
         style="fill:none"
         vector-effect="none"
         points="145,119 152,112 "
         id="polyline3563" />
      <polyline
         style="fill:none"
         vector-effect="none"
         points="152,119 159,112 "
         id="polyline3565" />
      <polyline
         style="fill:none"
         vector-effect="none"
         points="159,119 166,112 "
         id="polyline3567" />
      <polyline
         style="fill:none"
         vector-effect="none"
         points="166,119 173,112 "
         id="polyline3569" />
    </g>
    <g
       style="font-size:12px;font-style:normal;font-weight:400;fill:none;stroke:#000080;stroke-width:2;stroke-linecap:square;stroke-linejoin:bevel;stroke-opacity:1;font-family:Helvetica"
       font-size="12"
       font-weight="400"
       font-style="normal"
       id="g3571"
       transform="matrix(0.84115884,0,0,0.84115884,-4.2857162,728.07646)" />
    <g
       style="font-size:12px;font-style:normal;font-weight:400;fill:none;stroke:#000080;stroke-width:2;stroke-linecap:square;stroke-linejoin:bevel;stroke-opacity:1;font-family:Helvetica"
       font-size="12"
       font-weight="400"
       font-style="normal"
       id="g3573"
       transform="matrix(0.84115884,0,0,0.84115884,-4.2857162,728.07646)">
      <polyline
         style="fill:none"
         vector-effect="none"
         points="115,225 175,225 "
         id="polyline3575" />
      <polyline
         style="fill:none"
         vector-effect="none"
         points="117,232 173,232 "
         id="polyline3577" />
      <polyline
         style="fill:none"
         vector-effect="none"
         points="117,239 124,232 "
         id="polyline3579" />
      <polyline
         style="fill:none"
         vector-effect="none"
         points="124,239 131,232 "
         id="polyline3581" />
      <polyline
         style="fill:none"
         vector-effect="none"
         points="131,239 138,232 "
         id="polyline3583" />
      <polyline
         style="fill:none"
         vector-effect="none"
         points="138,239 145,232 "
         id="polyline3585" />
      <polyline
         style="fill:none"
         vector-effect="none"
         points="145,239 152,232 "
         id="polyline3587" />
      <polyline
         style="fill:none"
         vector-effect="none"
         points="152,239 159,232 "
         id="polyline3589" />
      <polyline
         style="fill:none"
         vector-effect="none"
         points="159,239 166,232 "
         id="polyline3591" />
      <polyline
         style="fill:none"
         vector-effect="none"
         points="166,239 173,232 "
         id="polyline3593" />
    </g>
    <g
       style="font-size:12px;font-style:normal;font-weight:400;fill:none;stroke:#000080;stroke-width:2;stroke-linecap:square;stroke-linejoin:bevel;stroke-opacity:1;font-family:Helvetica"
       font-size="12"
       font-weight="400"
       font-style="normal"
       id="g3595"
       transform="matrix(0.84115884,0,0,0.84115884,-4.2857162,728.07646)" />
    <g
       style="font-size:12px;font-style:normal;font-weight:400;fill:none;stroke:#000080;stroke-width:2;stroke-linecap:square;stroke-linejoin:bevel;stroke-opacity:1;font-family:Helvetica"
       font-size="12"
       font-weight="400"
       font-style="normal"
       id="g3597"
       transform="matrix(0.84115884,0,0,0.84115884,-4.2857162,728.07646)">
      <polyline
         style="fill:none"
         vector-effect="none"
         points="205,145 205,157 "
         id="polyline3599" />
      <polyline
         style="fill:none"
         vector-effect="none"
         points="205,157 212,160 "
         id="polyline3601" />
      <polyline
         style="fill:none"
         vector-effect="none"
         points="212,160 198,166 "
         id="polyline3603" />
      <polyline
         style="fill:none"
         vector-effect="none"
         points="198,166 212,172 "
         id="polyline3605" />
      <polyline
         style="fill:none"
         vector-effect="none"
         points="212,172 198,178 "
         id="polyline3607" />
      <polyline
         style="fill:none"
         vector-effect="none"
         points="198,178 212,184 "
         id="polyline3609" />
      <polyline
         style="fill:none"
         vector-effect="none"
         points="212,184 198,190 "
         id="polyline3611" />
      <polyline
         style="fill:none"
         vector-effect="none"
         points="198,190 205,193 "
         id="polyline3613" />
      <polyline
         style="fill:none"
         vector-effect="none"
         points="205,193 205,205 "
         id="polyline3615" />
    </g>
    <g
       style="font-size:12px;font-style:normal;font-weight:400;fill:none;stroke:#000080;stroke-width:2;stroke-linecap:square;stroke-linejoin:bevel;stroke-opacity:1;font-family:Helvetica"
       font-size="12"
       font-weight="400"
       font-style="normal"
       id="g3617"
       transform="matrix(0.84115884,0,0,0.84115884,-4.2857162,728.07646)" />
    <g
       style="font-size:12px;font-style:normal;font-weight:400;fill:none;stroke:#000080;stroke-width:2;stroke-linecap:square;stroke-linejoin:bevel;stroke-opacity:1;font-family:Helvetica"
       font-size="12"
       font-weight="400"
       font-style="normal"
       id="g3619"
       transform="matrix(0.84115884,0,0,0.84115884,-4.2857162,728.07646)">
      <polyline
         style="fill:none"
         vector-effect="none"
         points="15,165 75,165 "
         id="polyline3621" />
      <polyline
         style="fill:none"
         vector-effect="none"
         points="17,172 73,172 "
         id="polyline3623" />
      <polyline
         style="fill:none"
         vector-effect="none"
         points="17,179 24,172 "
         id="polyline3625" />
      <polyline
         style="fill:none"
         vector-effect="none"
         points="24,179 31,172 "
         id="polyline3627" />
      <polyline
         style="fill:none"
         vector-effect="none"
         points="31,179 38,172 "
         id="polyline3629" />
      <polyline
         style="fill:none"
         vector-effect="none"
         points="38,179 45,172 "
         id="polyline3631" />
      <polyline
         style="fill:none"
         vector-effect="none"
         points="45,179 52,172 "
         id="polyline3633" />
      <polyline
         style="fill:none"
         vector-effect="none"
         points="52,179 59,172 "
         id="polyline3635" />
      <polyline
         style="fill:none"
         vector-effect="none"
         points="59,179 66,172 "
         id="polyline3637" />
      <polyline
         style="fill:none"
         vector-effect="none"
         points="66,179 73,172 "
         id="polyline3639" />
    </g>
    <g
       style="font-size:12px;font-style:normal;font-weight:400;fill:none;stroke:#000080;stroke-width:2;stroke-linecap:square;stroke-linejoin:bevel;stroke-opacity:1;font-family:Helvetica"
       font-size="12"
       font-weight="400"
       font-style="normal"
       id="g3641"
       transform="matrix(0.84115884,0,0,0.84115884,-4.2857162,728.07646)" />
    <g
       style="font-size:12px;font-style:normal;font-weight:400;fill:none;stroke:#000080;stroke-width:2;stroke-linecap:square;stroke-linejoin:bevel;stroke-opacity:1;font-family:Helvetica"
       font-size="12"
       font-weight="400"
       font-style="normal"
       id="g3643"
       transform="matrix(0.84115884,0,0,0.84115884,-4.2857162,728.07646)">
      <polyline
         style="fill:none"
         vector-effect="none"
         points="455,105 515,105 "
         id="polyline3645" />
      <polyline
         style="fill:none"
         vector-effect="none"
         points="457,112 513,112 "
         id="polyline3647" />
      <polyline
         style="fill:none"
         vector-effect="none"
         points="457,119 464,112 "
         id="polyline3649" />
      <polyline
         style="fill:none"
         vector-effect="none"
         points="464,119 471,112 "
         id="polyline3651" />
      <polyline
         style="fill:none"
         vector-effect="none"
         points="471,119 478,112 "
         id="polyline3653" />
      <polyline
         style="fill:none"
         vector-effect="none"
         points="478,119 485,112 "
         id="polyline3655" />
      <polyline
         style="fill:none"
         vector-effect="none"
         points="485,119 492,112 "
         id="polyline3657" />
      <polyline
         style="fill:none"
         vector-effect="none"
         points="492,119 499,112 "
         id="polyline3659" />
      <polyline
         style="fill:none"
         vector-effect="none"
         points="499,119 506,112 "
         id="polyline3661" />
      <polyline
         style="fill:none"
         vector-effect="none"
         points="506,119 513,112 "
         id="polyline3663" />
    </g>
    <g
       style="font-size:12px;font-style:normal;font-weight:400;fill:none;stroke:#000080;stroke-width:2;stroke-linecap:square;stroke-linejoin:bevel;stroke-opacity:1;font-family:Helvetica"
       font-size="12"
       font-weight="400"
       font-style="normal"
       id="g3665"
       transform="matrix(0.84115884,0,0,0.84115884,-4.2857162,728.07646)" />
    <g
       style="font-size:12px;font-style:normal;font-weight:400;fill:none;stroke:#000080;stroke-width:2;stroke-linecap:square;stroke-linejoin:bevel;stroke-opacity:1;font-family:Helvetica"
       font-size="12"
       font-weight="400"
       font-style="normal"
       id="g3667"
       transform="matrix(0.84115884,0,0,0.84115884,-4.2857162,728.07646)">
      <polyline
         style="fill:none"
         vector-effect="none"
         points="455,225 515,225 "
         id="polyline3669" />
      <polyline
         style="fill:none"
         vector-effect="none"
         points="457,232 513,232 "
         id="polyline3671" />
      <polyline
         style="fill:none"
         vector-effect="none"
         points="457,239 464,232 "
         id="polyline3673" />
      <polyline
         style="fill:none"
         vector-effect="none"
         points="464,239 471,232 "
         id="polyline3675" />
      <polyline
         style="fill:none"
         vector-effect="none"
         points="471,239 478,232 "
         id="polyline3677" />
      <polyline
         style="fill:none"
         vector-effect="none"
         points="478,239 485,232 "
         id="polyline3679" />
      <polyline
         style="fill:none"
         vector-effect="none"
         points="485,239 492,232 "
         id="polyline3681" />
      <polyline
         style="fill:none"
         vector-effect="none"
         points="492,239 499,232 "
         id="polyline3683" />
      <polyline
         style="fill:none"
         vector-effect="none"
         points="499,239 506,232 "
         id="polyline3685" />
      <polyline
         style="fill:none"
         vector-effect="none"
         points="506,239 513,232 "
         id="polyline3687" />
    </g>
    <g
       style="font-size:12px;font-style:normal;font-weight:400;fill:none;stroke:#000080;stroke-width:2;stroke-linecap:square;stroke-linejoin:bevel;stroke-opacity:1;font-family:Helvetica"
       font-size="12"
       font-weight="400"
       font-style="normal"
       id="g3689"
       transform="matrix(0.84115884,0,0,0.84115884,-4.2857162,728.07646)" />
    <g
       style="font-size:12px;font-style:normal;font-weight:400;fill:none;stroke:#000080;stroke-width:2;stroke-linecap:square;stroke-linejoin:bevel;stroke-opacity:1;font-family:Helvetica"
       font-size="12"
       font-weight="400"
       font-style="normal"
       id="g3691"
       transform="matrix(0.84115884,0,0,0.84115884,-4.2857162,728.07646)">
      <polyline
         style="fill:none"
         vector-effect="none"
         points="545,145 545,157 "
         id="polyline3693" />
      <polyline
         style="fill:none"
         vector-effect="none"
         points="545,157 552,160 "
         id="polyline3695" />
      <polyline
         style="fill:none"
         vector-effect="none"
         points="552,160 538,166 "
         id="polyline3697" />
      <polyline
         style="fill:none"
         vector-effect="none"
         points="538,166 552,172 "
         id="polyline3699" />
      <polyline
         style="fill:none"
         vector-effect="none"
         points="552,172 538,178 "
         id="polyline3701" />
      <polyline
         style="fill:none"
         vector-effect="none"
         points="538,178 552,184 "
         id="polyline3703" />
      <polyline
         style="fill:none"
         vector-effect="none"
         points="552,184 538,190 "
         id="polyline3705" />
      <polyline
         style="fill:none"
         vector-effect="none"
         points="538,190 545,193 "
         id="polyline3707" />
      <polyline
         style="fill:none"
         vector-effect="none"
         points="545,193 545,205 "
         id="polyline3709" />
    </g>
    <g
       style="font-size:12px;font-style:normal;font-weight:400;fill:none;stroke:#000080;stroke-width:2;stroke-linecap:square;stroke-linejoin:bevel;stroke-opacity:1;font-family:Helvetica"
       font-size="12"
       font-weight="400"
       font-style="normal"
       id="g3711"
       transform="matrix(0.84115884,0,0,0.84115884,-4.2857162,728.07646)" />
    <g
       style="font-size:12px;font-style:normal;font-weight:400;fill:none;stroke:#000080;stroke-width:2;stroke-linecap:square;stroke-linejoin:bevel;stroke-opacity:1;font-family:Helvetica"
       font-size="12"
       font-weight="400"
       font-style="normal"
       id="g3713"
       transform="matrix(0.84115884,0,0,0.84115884,-4.2857162,728.07646)">
      <polyline
         style="fill:none"
         vector-effect="none"
         points="75,165 75,225 "
         id="polyline3715" />
      <polyline
         style="fill:none"
         vector-effect="none"
         points="75,105 75,165 "
         id="polyline3717" />
      <polyline
         style="fill:none"
         vector-effect="none"
         points="75,225 115,225 "
         id="polyline3719" />
      <polyline
         style="fill:none"
         vector-effect="none"
         points="75,105 115,105 "
         id="polyline3721" />
      <polyline
         style="fill:none"
         vector-effect="none"
         points="175,225 205,225 "
         id="polyline3723" />
      <polyline
         style="fill:none"
         vector-effect="none"
         points="175,105 205,105 "
         id="polyline3725" />
      <polyline
         style="fill:none"
         vector-effect="none"
         points="205,205 205,225 "
         id="polyline3727" />
      <polyline
         style="fill:none"
         vector-effect="none"
         points="205,105 205,145 "
         id="polyline3729" />
      <polyline
         style="fill:none"
         vector-effect="none"
         points="205,225 265,225 "
         id="polyline3731" />
      <polyline
         style="fill:none"
         vector-effect="none"
         points="205,105 265,105 "
         id="polyline3733" />
      <polyline
         style="fill:none"
         vector-effect="none"
         points="325,225 355,225 "
         id="polyline3735" />
      <polyline
         style="fill:none"
         vector-effect="none"
         points="325,105 355,105 "
         id="polyline3737" />
      <polyline
         style="fill:none"
         vector-effect="none"
         points="355,225 375,225 "
         id="polyline3739" />
      <polyline
         style="fill:none"
         vector-effect="none"
         points="355,205 355,225 "
         id="polyline3741" />
      <polyline
         style="fill:none"
         vector-effect="none"
         points="355,105 375,105 "
         id="polyline3743" />
      <polyline
         style="fill:none"
         vector-effect="none"
         points="355,105 355,145 "
         id="polyline3745" />
      <polyline
         style="fill:none"
         vector-effect="none"
         points="515,225 545,225 "
         id="polyline3747" />
      <polyline
         style="fill:none"
         vector-effect="none"
         points="545,225 565,225 "
         id="polyline3749" />
      <polyline
         style="fill:none"
         vector-effect="none"
         points="545,205 545,225 "
         id="polyline3751" />
      <polyline
         style="fill:none"
         vector-effect="none"
         points="515,105 545,105 "
         id="polyline3753" />
      <polyline
         style="fill:none"
         vector-effect="none"
         points="545,105 565,105 "
         id="polyline3755" />
      <polyline
         style="fill:none"
         vector-effect="none"
         points="545,105 545,145 "
         id="polyline3757" />
    </g>
    <g
       style="font-size:12px;font-style:normal;font-weight:400;fill:#000080;fill-opacity:1;stroke:none;font-family:Helvetica"
       font-size="12"
       font-weight="400"
       font-style="normal"
       id="g3759"
       transform="matrix(0.84115884,0,0,0.84115884,-4.2857162,728.07646)">
      <path
         style="fill-rule:evenodd"
         inkscape:connector-curvature="0"
         vector-effect="non-scaling-stroke"
         d="m 263,103 4,0 0,4 -4,0 0,-4"
         id="path3761" />
    </g>
    <g
       style="font-size:12px;font-style:normal;font-weight:400;fill:#000080;fill-opacity:1;stroke:none;font-family:Helvetica"
       font-size="12"
       font-weight="400"
       font-style="normal"
       id="g3763"
       transform="matrix(0.84115884,0,0,0.84115884,-4.2857162,728.07646)">
      <path
         style="fill-rule:evenodd"
         inkscape:connector-curvature="0"
         vector-effect="non-scaling-stroke"
         d="m 323,103 4,0 0,4 -4,0 0,-4"
         id="path3765" />
    </g>
    <g
       style="font-size:12px;font-style:normal;font-weight:400;fill:#000080;fill-opacity:1;stroke:none;font-family:Helvetica"
       font-size="12"
       font-weight="400"
       font-style="normal"
       id="g3767"
       transform="matrix(0.84115884,0,0,0.84115884,-4.2857162,728.07646)">
      <path
         style="fill-rule:evenodd"
         inkscape:connector-curvature="0"
         vector-effect="non-scaling-stroke"
         d="m 263,223 4,0 0,4 -4,0 0,-4"
         id="path3769" />
    </g>
    <g
       style="font-size:12px;font-style:normal;font-weight:400;fill:#000080;fill-opacity:1;stroke:none;font-family:Helvetica"
       font-size="12"
       font-weight="400"
       font-style="normal"
       id="g3771"
       transform="matrix(0.84115884,0,0,0.84115884,-4.2857162,728.07646)">
      <path
         style="fill-rule:evenodd"
         inkscape:connector-curvature="0"
         vector-effect="non-scaling-stroke"
         d="m 323,223 4,0 0,4 -4,0 0,-4"
         id="path3773" />
    </g>
    <g
       style="font-size:12px;font-style:normal;font-weight:400;fill:#000080;fill-opacity:1;stroke:none;font-family:Helvetica"
       font-size="12"
       font-weight="400"
       font-style="normal"
       id="g3775"
       transform="matrix(0.84115884,0,0,0.84115884,-4.2857162,728.07646)">
      <path
         style="fill-rule:evenodd"
         inkscape:connector-curvature="0"
         vector-effect="non-scaling-stroke"
         d="m 353,143 4,0 0,4 -4,0 0,-4"
         id="path3777" />
    </g>
    <g
       style="font-size:12px;font-style:normal;font-weight:400;fill:#000080;fill-opacity:1;stroke:none;font-family:Helvetica"
       font-size="12"
       font-weight="400"
       font-style="normal"
       id="g3779"
       transform="matrix(0.84115884,0,0,0.84115884,-4.2857162,728.07646)">
      <path
         style="fill-rule:evenodd"
         inkscape:connector-curvature="0"
         vector-effect="non-scaling-stroke"
         d="m 353,203 4,0 0,4 -4,0 0,-4"
         id="path3781" />
    </g>
    <g
       style="font-size:12px;font-style:normal;font-weight:400;fill:#000080;fill-opacity:1;stroke:none;font-family:Helvetica"
       font-size="12"
       font-weight="400"
       font-style="normal"
       id="g3783"
       transform="matrix(0.84115884,0,0,0.84115884,-4.2857162,728.07646)">
      <path
         style="fill-rule:evenodd"
         inkscape:connector-curvature="0"
         vector-effect="non-scaling-stroke"
         d="m 113,103 4,0 0,4 -4,0 0,-4"
         id="path3785" />
    </g>
    <g
       style="font-size:12px;font-style:normal;font-weight:400;fill:#000080;fill-opacity:1;stroke:none;font-family:Helvetica"
       font-size="12"
       font-weight="400"
       font-style="normal"
       id="g3787"
       transform="matrix(0.84115884,0,0,0.84115884,-4.2857162,728.07646)">
      <path
         style="fill-rule:evenodd"
         inkscape:connector-curvature="0"
         vector-effect="non-scaling-stroke"
         d="m 173,103 4,0 0,4 -4,0 0,-4"
         id="path3789" />
    </g>
    <g
       style="font-size:12px;font-style:normal;font-weight:400;fill:#000080;fill-opacity:1;stroke:none;font-family:Helvetica"
       font-size="12"
       font-weight="400"
       font-style="normal"
       id="g3791"
       transform="matrix(0.84115884,0,0,0.84115884,-4.2857162,728.07646)">
      <path
         style="fill-rule:evenodd"
         inkscape:connector-curvature="0"
         vector-effect="non-scaling-stroke"
         d="m 113,223 4,0 0,4 -4,0 0,-4"
         id="path3793" />
    </g>
    <g
       style="font-size:12px;font-style:normal;font-weight:400;fill:#000080;fill-opacity:1;stroke:none;font-family:Helvetica"
       font-size="12"
       font-weight="400"
       font-style="normal"
       id="g3795"
       transform="matrix(0.84115884,0,0,0.84115884,-4.2857162,728.07646)">
      <path
         style="fill-rule:evenodd"
         inkscape:connector-curvature="0"
         vector-effect="non-scaling-stroke"
         d="m 173,223 4,0 0,4 -4,0 0,-4"
         id="path3797" />
    </g>
    <g
       style="font-size:12px;font-style:normal;font-weight:400;fill:#000080;fill-opacity:1;stroke:none;font-family:Helvetica"
       font-size="12"
       font-weight="400"
       font-style="normal"
       id="g3799"
       transform="matrix(0.84115884,0,0,0.84115884,-4.2857162,728.07646)">
      <path
         style="fill-rule:evenodd"
         inkscape:connector-curvature="0"
         vector-effect="non-scaling-stroke"
         d="m 203,143 4,0 0,4 -4,0 0,-4"
         id="path3801" />
    </g>
    <g
       style="font-size:12px;font-style:normal;font-weight:400;fill:#000080;fill-opacity:1;stroke:none;font-family:Helvetica"
       font-size="12"
       font-weight="400"
       font-style="normal"
       id="g3803"
       transform="matrix(0.84115884,0,0,0.84115884,-4.2857162,728.07646)">
      <path
         style="fill-rule:evenodd"
         inkscape:connector-curvature="0"
         vector-effect="non-scaling-stroke"
         d="m 203,203 4,0 0,4 -4,0 0,-4"
         id="path3805" />
    </g>
    <g
       style="font-size:12px;font-style:normal;font-weight:400;fill:none;stroke:#ff0000;stroke-width:1;stroke-linecap:square;stroke-linejoin:bevel;stroke-opacity:1;font-family:Helvetica"
       font-size="12"
       font-weight="400"
       font-style="normal"
       id="g3807"
       transform="matrix(0.84115884,0,0,0.84115884,-4.2857162,728.07646)">
      <path
         inkscape:connector-curvature="0"
         vector-effect="none"
         d="m 19,165 c 0,2.209 -1.7909,4 -4,4 -2.2091,0 -4,-1.791 -4,-4 0,-2.209 1.7909,-4 4,-4 2.2091,0 4,1.791 4,4"
         id="path3809" />
    </g>
    <g
       style="font-size:12px;font-style:normal;font-weight:400;fill:#000080;fill-opacity:1;stroke:#000080;stroke-width:1;stroke-linecap:square;stroke-linejoin:bevel;stroke-opacity:1;font-family:Helvetica"
       font-size="12"
       font-weight="400"
       font-style="normal"
       id="g3811"
       transform="matrix(0.84115884,0,0,0.84115884,-4.2857162,728.07646)">
      <path
         style="fill-rule:evenodd"
         inkscape:connector-curvature="0"
         vector-effect="none"
         d="m 78,165 c 0,1.657 -1.3431,3 -3,3 -1.6569,0 -3,-1.343 -3,-3 0,-1.657 1.3431,-3 3,-3 1.6569,0 3,1.343 3,3"
         id="path3813" />
    </g>
    <g
       style="font-size:12px;font-style:normal;font-weight:400;fill:#000080;fill-opacity:1;stroke:#000080;stroke-width:1;stroke-linecap:square;stroke-linejoin:bevel;stroke-opacity:1;font-family:Helvetica"
       font-size="12"
       font-weight="400"
       font-style="normal"
       id="g3815"
       transform="matrix(0.84115884,0,0,0.84115884,-4.2857162,728.07646)">
      <path
         style="fill-rule:evenodd"
         inkscape:connector-curvature="0"
         vector-effect="none"
         d="m 208,225 c 0,1.657 -1.343,3 -3,3 -1.657,0 -3,-1.343 -3,-3 0,-1.657 1.343,-3 3,-3 1.657,0 3,1.343 3,3"
         id="path3817" />
    </g>
    <g
       style="font-size:12px;font-style:normal;font-weight:400;fill:#000080;fill-opacity:1;stroke:#000080;stroke-width:1;stroke-linecap:square;stroke-linejoin:bevel;stroke-opacity:1;font-family:Helvetica"
       font-size="12"
       font-weight="400"
       font-style="normal"
       id="g3819"
       transform="matrix(0.84115884,0,0,0.84115884,-4.2857162,728.07646)">
      <path
         style="fill-rule:evenodd"
         inkscape:connector-curvature="0"
         vector-effect="none"
         d="m 208,105 c 0,1.657 -1.343,3 -3,3 -1.657,0 -3,-1.343 -3,-3 0,-1.657 1.343,-3 3,-3 1.657,0 3,1.343 3,3"
         id="path3821" />
    </g>
    <g
       style="font-size:12px;font-style:normal;font-weight:400;fill:#000080;fill-opacity:1;stroke:#000080;stroke-width:1;stroke-linecap:square;stroke-linejoin:bevel;stroke-opacity:1;font-family:Helvetica"
       font-size="12"
       font-weight="400"
       font-style="normal"
       id="g3823"
       transform="matrix(0.84115884,0,0,0.84115884,-4.2857162,728.07646)">
      <path
         style="fill-rule:evenodd"
         inkscape:connector-curvature="0"
         vector-effect="none"
         d="m 358,225 c 0,1.657 -1.343,3 -3,3 -1.657,0 -3,-1.343 -3,-3 0,-1.657 1.343,-3 3,-3 1.657,0 3,1.343 3,3"
         id="path3825" />
    </g>
    <g
       style="font-size:12px;font-style:normal;font-weight:400;fill:#000080;fill-opacity:1;stroke:#000080;stroke-width:1;stroke-linecap:square;stroke-linejoin:bevel;stroke-opacity:1;font-family:Helvetica"
       font-size="12"
       font-weight="400"
       font-style="normal"
       id="g3827"
       transform="matrix(0.84115884,0,0,0.84115884,-4.2857162,728.07646)">
      <path
         style="fill-rule:evenodd"
         inkscape:connector-curvature="0"
         vector-effect="none"
         d="m 358,105 c 0,1.657 -1.343,3 -3,3 -1.657,0 -3,-1.343 -3,-3 0,-1.657 1.343,-3 3,-3 1.657,0 3,1.343 3,3"
         id="path3829" />
    </g>
    <g
       style="font-size:12px;font-style:normal;font-weight:400;fill:none;stroke:#ff0000;stroke-width:1;stroke-linecap:square;stroke-linejoin:bevel;stroke-opacity:1;font-family:Helvetica"
       font-size="12"
       font-weight="400"
       font-style="normal"
       id="g3831"
       transform="matrix(0.84115884,0,0,0.84115884,-4.2857162,728.07646)">
      <path
         inkscape:connector-curvature="0"
         vector-effect="none"
         d="m 379,225 c 0,2.209 -1.791,4 -4,4 -2.209,0 -4,-1.791 -4,-4 0,-2.209 1.791,-4 4,-4 2.209,0 4,1.791 4,4"
         id="path3833" />
      <path
         inkscape:connector-curvature="0"
         vector-effect="none"
         d="m 379,105 c 0,2.209 -1.791,4 -4,4 -2.209,0 -4,-1.791 -4,-4 0,-2.209 1.791,-4 4,-4 2.209,0 4,1.791 4,4"
         id="path3835" />
      <path
         inkscape:connector-curvature="0"
         vector-effect="none"
         d="m 459,105 c 0,2.209 -1.791,4 -4,4 -2.209,0 -4,-1.791 -4,-4 0,-2.209 1.791,-4 4,-4 2.209,0 4,1.791 4,4"
         id="path3837" />
    </g>
    <g
       style="font-size:12px;font-style:normal;font-weight:400;fill:#000080;fill-opacity:1;stroke:none;font-family:Helvetica"
       font-size="12"
       font-weight="400"
       font-style="normal"
       id="g3839"
       transform="matrix(0.84115884,0,0,0.84115884,-4.2857162,728.07646)">
      <path
         style="fill-rule:evenodd"
         inkscape:connector-curvature="0"
         vector-effect="non-scaling-stroke"
         d="m 513,103 4,0 0,4 -4,0 0,-4"
         id="path3841" />
    </g>
    <g
       style="font-size:12px;font-style:normal;font-weight:400;fill:none;stroke:#ff0000;stroke-width:1;stroke-linecap:square;stroke-linejoin:bevel;stroke-opacity:1;font-family:Helvetica"
       font-size="12"
       font-weight="400"
       font-style="normal"
       id="g3843"
       transform="matrix(0.84115884,0,0,0.84115884,-4.2857162,728.07646)">
      <path
         inkscape:connector-curvature="0"
         vector-effect="none"
         d="m 459,225 c 0,2.209 -1.791,4 -4,4 -2.209,0 -4,-1.791 -4,-4 0,-2.209 1.791,-4 4,-4 2.209,0 4,1.791 4,4"
         id="path3845" />
    </g>
    <g
       style="font-size:12px;font-style:normal;font-weight:400;fill:#000080;fill-opacity:1;stroke:none;font-family:Helvetica"
       font-size="12"
       font-weight="400"
       font-style="normal"
       id="g3847"
       transform="matrix(0.84115884,0,0,0.84115884,-4.2857162,728.07646)">
      <path
         style="fill-rule:evenodd"
         inkscape:connector-curvature="0"
         vector-effect="non-scaling-stroke"
         d="m 513,223 4,0 0,4 -4,0 0,-4"
         id="path3849" />
    </g>
    <g
       style="font-size:12px;font-style:normal;font-weight:400;fill:#000080;fill-opacity:1;stroke:none;font-family:Helvetica"
       font-size="12"
       font-weight="400"
       font-style="normal"
       id="g3851"
       transform="matrix(0.84115884,0,0,0.84115884,-4.2857162,728.07646)">
      <path
         style="fill-rule:evenodd"
         inkscape:connector-curvature="0"
         vector-effect="non-scaling-stroke"
         d="m 543,143 4,0 0,4 -4,0 0,-4"
         id="path3853" />
    </g>
    <g
       style="font-size:12px;font-style:normal;font-weight:400;fill:#000080;fill-opacity:1;stroke:none;font-family:Helvetica"
       font-size="12"
       font-weight="400"
       font-style="normal"
       id="g3855"
       transform="matrix(0.84115884,0,0,0.84115884,-4.2857162,728.07646)">
      <path
         style="fill-rule:evenodd"
         inkscape:connector-curvature="0"
         vector-effect="non-scaling-stroke"
         d="m 543,203 4,0 0,4 -4,0 0,-4"
         id="path3857" />
    </g>
    <g
       style="font-size:12px;font-style:normal;font-weight:400;fill:none;stroke:#ff0000;stroke-width:1;stroke-linecap:square;stroke-linejoin:bevel;stroke-opacity:1;font-family:Helvetica"
       font-size="12"
       font-weight="400"
       font-style="normal"
       id="g3859"
       transform="matrix(0.84115884,0,0,0.84115884,-4.2857162,728.07646)">
      <path
         inkscape:connector-curvature="0"
         vector-effect="none"
         d="m 569,225 c 0,2.209 -1.791,4 -4,4 -2.209,0 -4,-1.791 -4,-4 0,-2.209 1.791,-4 4,-4 2.209,0 4,1.791 4,4"
         id="path3861" />
    </g>
    <g
       style="font-size:12px;font-style:normal;font-weight:400;fill:#000080;fill-opacity:1;stroke:#000080;stroke-width:1;stroke-linecap:square;stroke-linejoin:bevel;stroke-opacity:1;font-family:Helvetica"
       font-size="12"
       font-weight="400"
       font-style="normal"
       id="g3863"
       transform="matrix(0.84115884,0,0,0.84115884,-4.2857162,728.07646)">
      <path
         style="fill-rule:evenodd"
         inkscape:connector-curvature="0"
         vector-effect="none"
         d="m 548,225 c 0,1.657 -1.343,3 -3,3 -1.657,0 -3,-1.343 -3,-3 0,-1.657 1.343,-3 3,-3 1.657,0 3,1.343 3,3"
         id="path3865" />
    </g>
    <g
       style="font-size:12px;font-style:normal;font-weight:400;fill:none;stroke:#ff0000;stroke-width:1;stroke-linecap:square;stroke-linejoin:bevel;stroke-opacity:1;font-family:Helvetica"
       font-size="12"
       font-weight="400"
       font-style="normal"
       id="g3867"
       transform="matrix(0.84115884,0,0,0.84115884,-4.2857162,728.07646)">
      <path
         inkscape:connector-curvature="0"
         vector-effect="none"
         d="m 569,105 c 0,2.209 -1.791,4 -4,4 -2.209,0 -4,-1.791 -4,-4 0,-2.209 1.791,-4 4,-4 2.209,0 4,1.791 4,4"
         id="path3869" />
    </g>
    <g
       style="font-size:12px;font-style:normal;font-weight:400;fill:#000080;fill-opacity:1;stroke:#000080;stroke-width:1;stroke-linecap:square;stroke-linejoin:bevel;stroke-opacity:1;font-family:Helvetica"
       font-size="12"
       font-weight="400"
       font-style="normal"
       id="g3871"
       transform="matrix(0.84115884,0,0,0.84115884,-4.2857162,728.07646)">
      <path
         style="fill-rule:evenodd"
         inkscape:connector-curvature="0"
         vector-effect="none"
         d="m 548,105 c 0,1.657 -1.343,3 -3,3 -1.657,0 -3,-1.343 -3,-3 0,-1.657 1.343,-3 3,-3 1.657,0 3,1.343 3,3"
         id="path3873" />
    </g>
    <g
       style="font-size:12px;font-style:normal;font-weight:400;fill:#c0c0c0;fill-opacity:1;stroke:#000000;stroke-width:1;stroke-linecap:square;stroke-linejoin:bevel;stroke-opacity:1;font-family:Helvetica"
       font-size="12"
       font-weight="400"
       font-style="normal"
       id="g3875"
       transform="matrix(0.84115884,0,0,0.84115884,-4.2857162,728.07646)">
      <path
         style="fill-rule:evenodd"
         inkscape:connector-curvature="0"
         vector-effect="non-scaling-stroke"
         d="m 395,160 c 0,2.761 -2.239,5 -5,5 -2.761,0 -5,-2.239 -5,-5 0,-2.761 2.239,-5 5,-5 2.761,0 5,2.239 5,5"
         id="path3877" />
    </g>
    <g
       style="font-size:12px;font-style:normal;font-weight:400;fill:#c0c0c0;fill-opacity:1;stroke:#000000;stroke-width:1;stroke-linecap:square;stroke-linejoin:bevel;stroke-opacity:1;font-family:Helvetica"
       font-size="12"
       font-weight="400"
       font-style="normal"
       id="g3879"
       transform="matrix(0.84115884,0,0,0.84115884,-4.2857162,728.07646)">
      <path
         style="fill-rule:evenodd"
         inkscape:connector-curvature="0"
         vector-effect="non-scaling-stroke"
         d="m 415,160 c 0,2.761 -2.239,5 -5,5 -2.761,0 -5,-2.239 -5,-5 0,-2.761 2.239,-5 5,-5 2.761,0 5,2.239 5,5"
         id="path3881" />
    </g>
    <g
       style="font-size:12px;font-style:normal;font-weight:400;fill:#c0c0c0;fill-opacity:1;stroke:#000000;stroke-width:1;stroke-linecap:square;stroke-linejoin:bevel;stroke-opacity:1;font-family:Helvetica"
       font-size="12"
       font-weight="400"
       font-style="normal"
       id="g3883"
       transform="matrix(0.84115884,0,0,0.84115884,-4.2857162,728.07646)">
      <path
         style="fill-rule:evenodd"
         inkscape:connector-curvature="0"
         vector-effect="non-scaling-stroke"
         d="m 435,160 c 0,2.761 -2.239,5 -5,5 -2.761,0 -5,-2.239 -5,-5 0,-2.761 2.239,-5 5,-5 2.761,0 5,2.239 5,5"
         id="path3885" />
    </g>
  </g>
</svg>
