<?xml version="1.0" encoding="UTF-8" standalone="no"?>
<svg
   xmlns:dc="http://purl.org/dc/elements/1.1/"
   xmlns:cc="http://creativecommons.org/ns#"
   xmlns:rdf="http://www.w3.org/1999/02/22-rdf-syntax-ns#"
   xmlns:svg="http://www.w3.org/2000/svg"
   xmlns="http://www.w3.org/2000/svg"
   xmlns:sodipodi="http://sodipodi.sourceforge.net/DTD/sodipodi-0.dtd"
   xmlns:inkscape="http://www.inkscape.org/namespaces/inkscape"
   width="280"
   height="220"
   version="1.2"
   id="svg2"
   inkscape:version="0.48.4 r9939"
   sodipodi:docname="CCoupled_Microstrip.svg">
  <metadata
     id="metadata240">
    <rdf:RDF>
      <cc:Work
         rdf:about="">
        <dc:format>image/svg+xml</dc:format>
        <dc:type
           rdf:resource="http://purl.org/dc/dcmitype/StillImage" />
      </cc:Work>
    </rdf:RDF>
  </metadata>
  <sodipodi:namedview
     pagecolor="#ffffff"
     bordercolor="#666666"
     borderopacity="1"
     objecttolerance="10"
     gridtolerance="10"
     guidetolerance="10"
     inkscape:pageopacity="0"
     inkscape:pageshadow="2"
     inkscape:window-width="640"
     inkscape:window-height="480"
     id="namedview238"
     showgrid="false"
     inkscape:zoom="1.1090631"
     inkscape:cx="129.4715"
     inkscape:cy="131.35376"
     inkscape:window-x="0"
     inkscape:window-y="27"
     inkscape:window-maximized="0"
     inkscape:current-layer="svg2" />
  <title
     id="title4">Qt Svg Document</title>
  <desc
     id="desc6">Generated with Qt</desc>
  <defs
     id="defs8" />
  <g
     style="font-size:12px;font-style:normal;font-weight:400;fill:none;stroke:#000080;stroke-width:2;stroke-linecap:square;stroke-linejoin:bevel;stroke-opacity:1;font-family:Helvetica"
     id="g16"
     font-style="normal"
     font-weight="400"
     font-size="12"
     transform="matrix(0.40180681,0,0,0.87621559,6.4042933,11.417388)">
    <polyline
       style="fill:none"
       id="polyline18"
       points="15,26 27,26 "
       vector-effect="none" />
    <polyline
       style="fill:none"
       id="polyline20"
       points="63,26 75,26 "
       vector-effect="none" />
    <polyline
       style="fill:none"
       id="polyline22"
       points="32,18 45,18 "
       vector-effect="none" />
    <polyline
       style="fill:none"
       id="polyline24"
       points="55,18 68,18 "
       vector-effect="none" />
    <polyline
       style="fill:none"
       id="polyline26"
       points="22,34 35,34 "
       vector-effect="none" />
    <polyline
       style="fill:none"
       id="polyline28"
       points="45,34 58,34 "
       vector-effect="none" />
    <polyline
       style="fill:none"
       id="polyline30"
       points="32,18 22,34 "
       vector-effect="none" />
    <polyline
       style="fill:none"
       id="polyline32"
       points="68,18 58,34 "
       vector-effect="none" />
    <polyline
       style="fill:none"
       id="polyline34"
       points="45,18 35,34 "
       vector-effect="none" />
    <polyline
       style="fill:none"
       id="polyline36"
       points="55,18 45,34 "
       vector-effect="none" />
    <polyline
       style="fill:none"
       id="polyline38"
       points="23,22 19,30 "
       vector-effect="none" />
  </g>
  <g
     style="font-size:12px;font-style:normal;font-weight:400;fill:none;stroke:#000080;stroke-width:2;stroke-linecap:square;stroke-linejoin:bevel;stroke-opacity:1;font-family:Helvetica"
     id="g40"
     font-style="normal"
     font-weight="400"
     font-size="12"
     transform="matrix(0.40180681,0,0,0.87621559,6.4042933,11.417388)" />
  <g
     style="font-size:12px;font-style:normal;font-weight:400;fill:none;stroke:#000080;stroke-width:2;stroke-linecap:square;stroke-linejoin:bevel;stroke-opacity:1;font-family:Helvetica"
     id="g42"
     font-style="normal"
     font-weight="400"
     font-size="12"
     transform="matrix(0.40180681,0,0,0.87621559,6.4042933,11.417388)">
    <polyline
       style="fill:none"
       id="polyline44"
       points="105,26 117,26 "
       vector-effect="none" />
    <polyline
       style="fill:none"
       id="polyline46"
       points="153,26 165,26 "
       vector-effect="none" />
    <polyline
       style="fill:none"
       id="polyline48"
       points="122,18 158,18 "
       vector-effect="none" />
    <polyline
       style="fill:none"
       id="polyline50"
       points="112,34 148,34 "
       vector-effect="none" />
    <polyline
       style="fill:none"
       id="polyline52"
       points="122,18 112,34 "
       vector-effect="none" />
    <polyline
       style="fill:none"
       id="polyline54"
       points="158,18 148,34 "
       vector-effect="none" />
  </g>
  <g
     style="font-size:12px;font-style:normal;font-weight:400;fill:none;stroke:#000080;stroke-width:2;stroke-linecap:square;stroke-linejoin:bevel;stroke-opacity:1;font-family:Helvetica"
     id="g56"
     font-style="normal"
     font-weight="400"
     font-size="12"
     transform="matrix(0.40180681,0,0,0.87621559,6.4042933,11.417388)" />
  <g
     style="font-size:12px;font-style:normal;font-weight:400;fill:none;stroke:#000080;stroke-width:2;stroke-linecap:square;stroke-linejoin:bevel;stroke-opacity:1;font-family:Helvetica"
     id="g58"
     font-style="normal"
     font-weight="400"
     font-size="12"
     transform="matrix(0.40180681,0,0,0.87621559,6.4042933,11.417388)">
    <polyline
       style="fill:none"
       id="polyline60"
       points="195,26 207,26 "
       vector-effect="none" />
    <polyline
       style="fill:none"
       id="polyline62"
       points="243,26 255,26 "
       vector-effect="none" />
    <polyline
       style="fill:none"
       id="polyline64"
       points="212,18 225,18 "
       vector-effect="none" />
    <polyline
       style="fill:none"
       id="polyline66"
       points="235,18 248,18 "
       vector-effect="none" />
    <polyline
       style="fill:none"
       id="polyline68"
       points="202,34 215,34 "
       vector-effect="none" />
    <polyline
       style="fill:none"
       id="polyline70"
       points="225,34 238,34 "
       vector-effect="none" />
    <polyline
       style="fill:none"
       id="polyline72"
       points="212,18 202,34 "
       vector-effect="none" />
    <polyline
       style="fill:none"
       id="polyline74"
       points="248,18 238,34 "
       vector-effect="none" />
    <polyline
       style="fill:none"
       id="polyline76"
       points="225,18 215,34 "
       vector-effect="none" />
    <polyline
       style="fill:none"
       id="polyline78"
       points="235,18 225,34 "
       vector-effect="none" />
    <polyline
       style="fill:none"
       id="polyline80"
       points="203,22 199,30 "
       vector-effect="none" />
  </g>
  <g
     style="font-size:12px;font-style:normal;font-weight:400;fill:none;stroke:#000080;stroke-width:2;stroke-linecap:square;stroke-linejoin:bevel;stroke-opacity:1;font-family:Helvetica"
     id="g82"
     font-style="normal"
     font-weight="400"
     font-size="12"
     transform="matrix(0.40180681,0,0,0.87621559,6.4042933,11.417388)" />
  <g
     style="font-size:12px;font-style:normal;font-weight:400;fill:none;stroke:#000080;stroke-width:2;stroke-linecap:square;stroke-linejoin:bevel;stroke-opacity:1;font-family:Helvetica"
     id="g84"
     font-style="normal"
     font-weight="400"
     font-size="12"
     transform="matrix(0.40180681,0,0,0.87621559,6.4042933,11.417388)">
    <polyline
       style="fill:none"
       id="polyline86"
       points="285,26 297,26 "
       vector-effect="none" />
    <polyline
       style="fill:none"
       id="polyline88"
       points="333,26 345,26 "
       vector-effect="none" />
    <polyline
       style="fill:none"
       id="polyline90"
       points="302,18 338,18 "
       vector-effect="none" />
    <polyline
       style="fill:none"
       id="polyline92"
       points="292,34 328,34 "
       vector-effect="none" />
    <polyline
       style="fill:none"
       id="polyline94"
       points="302,18 292,34 "
       vector-effect="none" />
    <polyline
       style="fill:none"
       id="polyline96"
       points="338,18 328,34 "
       vector-effect="none" />
  </g>
  <g
     style="font-size:12px;font-style:normal;font-weight:400;fill:none;stroke:#000080;stroke-width:2;stroke-linecap:square;stroke-linejoin:bevel;stroke-opacity:1;font-family:Helvetica"
     id="g98"
     font-style="normal"
     font-weight="400"
     font-size="12"
     transform="matrix(0.40180681,0,0,0.87621559,6.4042933,11.417388)" />
  <g
     style="font-size:12px;font-style:normal;font-weight:400;fill:none;stroke:#000080;stroke-width:2;stroke-linecap:square;stroke-linejoin:bevel;stroke-opacity:1;font-family:Helvetica"
     id="g100"
     font-style="normal"
     font-weight="400"
     font-size="12"
     transform="matrix(0.40180681,0,0,0.87621559,6.4042933,11.417388)">
    <polyline
       style="fill:none"
       id="polyline102"
       points="375,26 387,26 "
       vector-effect="none" />
    <polyline
       style="fill:none"
       id="polyline104"
       points="423,26 435,26 "
       vector-effect="none" />
    <polyline
       style="fill:none"
       id="polyline106"
       points="392,18 405,18 "
       vector-effect="none" />
    <polyline
       style="fill:none"
       id="polyline108"
       points="415,18 428,18 "
       vector-effect="none" />
    <polyline
       style="fill:none"
       id="polyline110"
       points="382,34 395,34 "
       vector-effect="none" />
    <polyline
       style="fill:none"
       id="polyline112"
       points="405,34 418,34 "
       vector-effect="none" />
    <polyline
       style="fill:none"
       id="polyline114"
       points="392,18 382,34 "
       vector-effect="none" />
    <polyline
       style="fill:none"
       id="polyline116"
       points="428,18 418,34 "
       vector-effect="none" />
    <polyline
       style="fill:none"
       id="polyline118"
       points="405,18 395,34 "
       vector-effect="none" />
    <polyline
       style="fill:none"
       id="polyline120"
       points="415,18 405,34 "
       vector-effect="none" />
    <polyline
       style="fill:none"
       id="polyline122"
       points="383,22 379,30 "
       vector-effect="none" />
  </g>
  <g
     style="font-size:12px;font-style:normal;font-weight:400;fill:none;stroke:#000080;stroke-width:2;stroke-linecap:square;stroke-linejoin:bevel;stroke-opacity:1;font-family:Helvetica"
     id="g124"
     font-style="normal"
     font-weight="400"
     font-size="12"
     transform="matrix(0.40180681,0,0,0.87621559,6.4042933,11.417388)" />
  <g
     style="font-size:12px;font-style:normal;font-weight:400;fill:none;stroke:#000080;stroke-width:2;stroke-linecap:square;stroke-linejoin:bevel;stroke-opacity:1;font-family:Helvetica"
     id="g126"
     font-style="normal"
     font-weight="400"
     font-size="12"
     transform="matrix(0.40180681,0,0,0.87621559,6.4042933,11.417388)">
    <polyline
       style="fill:none"
       id="polyline128"
       points="465,26 477,26 "
       vector-effect="none" />
    <polyline
       style="fill:none"
       id="polyline130"
       points="513,26 525,26 "
       vector-effect="none" />
    <polyline
       style="fill:none"
       id="polyline132"
       points="482,18 518,18 "
       vector-effect="none" />
    <polyline
       style="fill:none"
       id="polyline134"
       points="472,34 508,34 "
       vector-effect="none" />
    <polyline
       style="fill:none"
       id="polyline136"
       points="482,18 472,34 "
       vector-effect="none" />
    <polyline
       style="fill:none"
       id="polyline138"
       points="518,18 508,34 "
       vector-effect="none" />
  </g>
  <g
     style="font-size:12px;font-style:normal;font-weight:400;fill:none;stroke:#000080;stroke-width:2;stroke-linecap:square;stroke-linejoin:bevel;stroke-opacity:1;font-family:Helvetica"
     id="g140"
     font-style="normal"
     font-weight="400"
     font-size="12"
     transform="matrix(0.40180681,0,0,0.87621559,6.4042933,11.417388)" />
  <g
     style="font-size:12px;font-style:normal;font-weight:400;fill:none;stroke:#000080;stroke-width:2;stroke-linecap:square;stroke-linejoin:bevel;stroke-opacity:1;font-family:Helvetica"
     id="g142"
     font-style="normal"
     font-weight="400"
     font-size="12"
     transform="matrix(0.40180681,0,0,0.87621559,6.4042933,11.417388)">
    <polyline
       style="fill:none"
       id="polyline144"
       points="555,26 567,26 "
       vector-effect="none" />
    <polyline
       style="fill:none"
       id="polyline146"
       points="603,26 615,26 "
       vector-effect="none" />
    <polyline
       style="fill:none"
       id="polyline148"
       points="572,18 585,18 "
       vector-effect="none" />
    <polyline
       style="fill:none"
       id="polyline150"
       points="595,18 608,18 "
       vector-effect="none" />
    <polyline
       style="fill:none"
       id="polyline152"
       points="562,34 575,34 "
       vector-effect="none" />
    <polyline
       style="fill:none"
       id="polyline154"
       points="585,34 598,34 "
       vector-effect="none" />
    <polyline
       style="fill:none"
       id="polyline156"
       points="572,18 562,34 "
       vector-effect="none" />
    <polyline
       style="fill:none"
       id="polyline158"
       points="608,18 598,34 "
       vector-effect="none" />
    <polyline
       style="fill:none"
       id="polyline160"
       points="585,18 575,34 "
       vector-effect="none" />
    <polyline
       style="fill:none"
       id="polyline162"
       points="595,18 585,34 "
       vector-effect="none" />
    <polyline
       style="fill:none"
       id="polyline164"
       points="563,22 559,30 "
       vector-effect="none" />
  </g>
  <g
     style="font-size:12px;font-style:normal;font-weight:400;fill:none;stroke:#000080;stroke-width:2;stroke-linecap:square;stroke-linejoin:bevel;stroke-opacity:1;font-family:Helvetica"
     id="g166"
     font-style="normal"
     font-weight="400"
     font-size="12"
     transform="matrix(0.40180681,0,0,0.87621559,6.4042933,11.417388)" />
  <g
     style="font-size:12px;font-style:normal;font-weight:400;fill:none;stroke:#000080;stroke-width:2;stroke-linecap:square;stroke-linejoin:bevel;stroke-opacity:1;font-family:Helvetica"
     id="g168"
     font-style="normal"
     font-weight="400"
     font-size="12"
     transform="matrix(0.40180681,0,0,0.87621559,6.4042933,11.417388)">
    <polyline
       style="fill:none"
       id="polyline170"
       points="75,26 105,26 "
       vector-effect="none" />
    <polyline
       style="fill:none"
       id="polyline172"
       points="165,26 195,26 "
       vector-effect="none" />
    <polyline
       style="fill:none"
       id="polyline174"
       points="255,26 285,26 "
       vector-effect="none" />
    <polyline
       style="fill:none"
       id="polyline176"
       points="345,26 375,26 "
       vector-effect="none" />
    <polyline
       style="fill:none"
       id="polyline178"
       points="435,26 465,26 "
       vector-effect="none" />
    <polyline
       style="fill:none"
       id="polyline180"
       points="525,26 555,26 "
       vector-effect="none" />
  </g>
  <g
     style="font-size:12px;font-style:normal;font-weight:400;fill:none;stroke:#ff0000;stroke-width:1;stroke-linecap:square;stroke-linejoin:bevel;stroke-opacity:1;font-family:Helvetica"
     id="g182"
     font-style="normal"
     font-weight="400"
     font-size="12"
     transform="matrix(0.40180681,0,0,0.87621559,6.4042933,11.417388)">
    <path
       inkscape:connector-curvature="0"
       id="path184"
       d="m 19,26 c 0,2.2091 -1.7909,4 -4,4 -2.2091,0 -4,-1.7909 -4,-4 0,-2.2091 1.7909,-4 4,-4 2.2091,0 4,1.7909 4,4"
       vector-effect="none" />
  </g>
  <g
     style="font-size:12px;font-style:normal;font-weight:400;fill:#000080;fill-opacity:1;stroke:none;font-family:Helvetica"
     id="g186"
     font-style="normal"
     font-weight="400"
     font-size="12"
     transform="matrix(0.40180681,0,0,0.87621559,6.4042933,11.417388)">
    <path
       style="fill-rule:evenodd"
       inkscape:connector-curvature="0"
       id="path188"
       d="m 73,24 4,0 0,4 -4,0 0,-4"
       vector-effect="non-scaling-stroke" />
  </g>
  <g
     style="font-size:12px;font-style:normal;font-weight:400;fill:#000080;fill-opacity:1;stroke:none;font-family:Helvetica"
     id="g190"
     font-style="normal"
     font-weight="400"
     font-size="12"
     transform="matrix(0.40180681,0,0,0.87621559,6.4042933,11.417388)">
    <path
       style="fill-rule:evenodd"
       inkscape:connector-curvature="0"
       id="path192"
       d="m 103,24 4,0 0,4 -4,0 0,-4"
       vector-effect="non-scaling-stroke" />
  </g>
  <g
     style="font-size:12px;font-style:normal;font-weight:400;fill:#000080;fill-opacity:1;stroke:none;font-family:Helvetica"
     id="g194"
     font-style="normal"
     font-weight="400"
     font-size="12"
     transform="matrix(0.40180681,0,0,0.87621559,6.4042933,11.417388)">
    <path
       style="fill-rule:evenodd"
       inkscape:connector-curvature="0"
       id="path196"
       d="m 163,24 4,0 0,4 -4,0 0,-4"
       vector-effect="non-scaling-stroke" />
  </g>
  <g
     style="font-size:12px;font-style:normal;font-weight:400;fill:#000080;fill-opacity:1;stroke:none;font-family:Helvetica"
     id="g198"
     font-style="normal"
     font-weight="400"
     font-size="12"
     transform="matrix(0.40180681,0,0,0.87621559,6.4042933,11.417388)">
    <path
       style="fill-rule:evenodd"
       inkscape:connector-curvature="0"
       id="path200"
       d="m 193,24 4,0 0,4 -4,0 0,-4"
       vector-effect="non-scaling-stroke" />
  </g>
  <g
     style="font-size:12px;font-style:normal;font-weight:400;fill:#000080;fill-opacity:1;stroke:none;font-family:Helvetica"
     id="g202"
     font-style="normal"
     font-weight="400"
     font-size="12"
     transform="matrix(0.40180681,0,0,0.87621559,6.4042933,11.417388)">
    <path
       style="fill-rule:evenodd"
       inkscape:connector-curvature="0"
       id="path204"
       d="m 253,24 4,0 0,4 -4,0 0,-4"
       vector-effect="non-scaling-stroke" />
  </g>
  <g
     style="font-size:12px;font-style:normal;font-weight:400;fill:#000080;fill-opacity:1;stroke:none;font-family:Helvetica"
     id="g206"
     font-style="normal"
     font-weight="400"
     font-size="12"
     transform="matrix(0.40180681,0,0,0.87621559,6.4042933,11.417388)">
    <path
       style="fill-rule:evenodd"
       inkscape:connector-curvature="0"
       id="path208"
       d="m 283,24 4,0 0,4 -4,0 0,-4"
       vector-effect="non-scaling-stroke" />
  </g>
  <g
     style="font-size:12px;font-style:normal;font-weight:400;fill:#000080;fill-opacity:1;stroke:none;font-family:Helvetica"
     id="g210"
     font-style="normal"
     font-weight="400"
     font-size="12"
     transform="matrix(0.40180681,0,0,0.87621559,6.4042933,11.417388)">
    <path
       style="fill-rule:evenodd"
       inkscape:connector-curvature="0"
       id="path212"
       d="m 343,24 4,0 0,4 -4,0 0,-4"
       vector-effect="non-scaling-stroke" />
  </g>
  <g
     style="font-size:12px;font-style:normal;font-weight:400;fill:#000080;fill-opacity:1;stroke:none;font-family:Helvetica"
     id="g214"
     font-style="normal"
     font-weight="400"
     font-size="12"
     transform="matrix(0.40180681,0,0,0.87621559,6.4042933,11.417388)">
    <path
       style="fill-rule:evenodd"
       inkscape:connector-curvature="0"
       id="path216"
       d="m 373,24 4,0 0,4 -4,0 0,-4"
       vector-effect="non-scaling-stroke" />
  </g>
  <g
     style="font-size:12px;font-style:normal;font-weight:400;fill:#000080;fill-opacity:1;stroke:none;font-family:Helvetica"
     id="g218"
     font-style="normal"
     font-weight="400"
     font-size="12"
     transform="matrix(0.40180681,0,0,0.87621559,6.4042933,11.417388)">
    <path
       style="fill-rule:evenodd"
       inkscape:connector-curvature="0"
       id="path220"
       d="m 433,24 4,0 0,4 -4,0 0,-4"
       vector-effect="non-scaling-stroke" />
  </g>
  <g
     style="font-size:12px;font-style:normal;font-weight:400;fill:#000080;fill-opacity:1;stroke:none;font-family:Helvetica"
     id="g222"
     font-style="normal"
     font-weight="400"
     font-size="12"
     transform="matrix(0.40180681,0,0,0.87621559,6.4042933,11.417388)">
    <path
       style="fill-rule:evenodd"
       inkscape:connector-curvature="0"
       id="path224"
       d="m 463,24 4,0 0,4 -4,0 0,-4"
       vector-effect="non-scaling-stroke" />
  </g>
  <g
     style="font-size:12px;font-style:normal;font-weight:400;fill:#000080;fill-opacity:1;stroke:none;font-family:Helvetica"
     id="g226"
     font-style="normal"
     font-weight="400"
     font-size="12"
     transform="matrix(0.40180681,0,0,0.87621559,6.4042933,11.417388)">
    <path
       style="fill-rule:evenodd"
       inkscape:connector-curvature="0"
       id="path228"
       d="m 523,24 4,0 0,4 -4,0 0,-4"
       vector-effect="non-scaling-stroke" />
  </g>
  <g
     style="font-size:12px;font-style:normal;font-weight:400;fill:#000080;fill-opacity:1;stroke:none;font-family:Helvetica"
     id="g230"
     font-style="normal"
     font-weight="400"
     font-size="12"
     transform="matrix(0.40180681,0,0,0.87621559,6.4042933,11.417388)">
    <path
       style="fill-rule:evenodd"
       inkscape:connector-curvature="0"
       id="path232"
       d="m 553,24 4,0 0,4 -4,0 0,-4"
       vector-effect="non-scaling-stroke" />
  </g>
  <g
     style="font-size:12px;font-style:normal;font-weight:400;fill:none;stroke:#ff0000;stroke-width:1;stroke-linecap:square;stroke-linejoin:bevel;stroke-opacity:1;font-family:Helvetica"
     id="g234"
     font-style="normal"
     font-weight="400"
     font-size="12"
     transform="matrix(0.40180681,0,0,0.87621559,6.4042933,11.417388)">
    <path
       inkscape:connector-curvature="0"
       id="path236"
       d="m 619,26 c 0,2.2091 -1.791,4 -4,4 -2.209,0 -4,-1.7909 -4,-4 0,-2.2091 1.791,-4 4,-4 2.209,0 4,1.7909 4,4"
       vector-effect="none" />
  </g>
</svg>
