<?xml version="1.0" encoding="UTF-8" standalone="no"?>
<svg
   xmlns:dc="http://purl.org/dc/elements/1.1/"
   xmlns:cc="http://creativecommons.org/ns#"
   xmlns:rdf="http://www.w3.org/1999/02/22-rdf-syntax-ns#"
   xmlns:svg="http://www.w3.org/2000/svg"
   xmlns="http://www.w3.org/2000/svg"
   xmlns:sodipodi="http://sodipodi.sourceforge.net/DTD/sodipodi-0.dtd"
   xmlns:inkscape="http://www.inkscape.org/namespaces/inkscape"
   width="280"
   height="220"
   version="1.2"
   id="svg2"
   inkscape:version="0.48.4 r9939"
   sodipodi:docname="LC_cauer_notch.svg">
  <metadata
     id="metadata254">
    <rdf:RDF>
      <cc:Work
         rdf:about="">
        <dc:format>image/svg+xml</dc:format>
        <dc:type
           rdf:resource="http://purl.org/dc/dcmitype/StillImage" />
      </cc:Work>
    </rdf:RDF>
  </metadata>
  <sodipodi:namedview
     pagecolor="#ffffff"
     bordercolor="#666666"
     borderopacity="1"
     objecttolerance="10"
     gridtolerance="10"
     guidetolerance="10"
     inkscape:pageopacity="0"
     inkscape:pageshadow="2"
     inkscape:window-width="640"
     inkscape:window-height="480"
     id="namedview252"
     showgrid="false"
     inkscape:zoom="1.4213605"
     inkscape:cx="103.85869"
     inkscape:cy="136.73858"
     inkscape:window-x="0"
     inkscape:window-y="27"
     inkscape:window-maximized="0"
     inkscape:current-layer="svg2" />
  <title
     id="title4">Qt Svg Document</title>
  <desc
     id="desc6">Generated with Qt</desc>
  <defs
     id="defs8" />
  <g
     style="font-size:12px;font-style:normal;font-weight:400;fill:none;stroke:#000080;stroke-width:2;stroke-linecap:square;stroke-linejoin:bevel;stroke-opacity:1;font-family:Helvetica"
     id="g16"
     font-style="normal"
     font-weight="400"
     font-size="12"
     transform="matrix(0.47550888,0,0,0.53536955,9.9678773,7.1376552)">
    <polyline
       style="fill:none"
       id="polyline18"
       points="125,264 125,274 "
       vector-effect="none" />
  </g>
  <g
     style="font-size:12px;font-style:normal;font-weight:400;fill:none;stroke:#000080;stroke-width:3;stroke-linecap:square;stroke-linejoin:bevel;stroke-opacity:1;font-family:Helvetica"
     id="g20"
     font-style="normal"
     font-weight="400"
     font-size="12"
     transform="matrix(0.47550888,0,0,0.53536955,9.9678773,7.1376552)">
    <polyline
       style="fill:none"
       id="polyline22"
       points="114,274 136,274 "
       vector-effect="none" />
    <polyline
       style="fill:none"
       id="polyline24"
       points="118,280 132,280 "
       vector-effect="none" />
    <polyline
       style="fill:none"
       id="polyline26"
       points="122,286 128,286 "
       vector-effect="none" />
  </g>
  <g
     style="font-size:12px;font-style:normal;font-weight:400;fill:none;stroke:#000080;stroke-width:3;stroke-linecap:square;stroke-linejoin:bevel;stroke-opacity:1;font-family:Helvetica"
     id="g28"
     font-style="normal"
     font-weight="400"
     font-size="12"
     transform="matrix(0.47550888,0,0,0.53536955,9.9678773,7.1376552)" />
  <g
     style="font-size:12px;font-style:normal;font-weight:400;fill:none;stroke:#000080;stroke-width:2;stroke-linecap:square;stroke-linejoin:bevel;stroke-opacity:1;font-family:Helvetica"
     id="g30"
     font-style="normal"
     font-weight="400"
     font-size="12"
     transform="matrix(0.47550888,0,0,0.53536955,9.9678773,7.1376552)">
    <polyline
       style="fill:none"
       id="polyline32"
       points="370,264 370,274 "
       vector-effect="none" />
  </g>
  <g
     style="font-size:12px;font-style:normal;font-weight:400;fill:none;stroke:#000080;stroke-width:3;stroke-linecap:square;stroke-linejoin:bevel;stroke-opacity:1;font-family:Helvetica"
     id="g34"
     font-style="normal"
     font-weight="400"
     font-size="12"
     transform="matrix(0.47550888,0,0,0.53536955,9.9678773,7.1376552)">
    <polyline
       style="fill:none"
       id="polyline36"
       points="359,274 381,274 "
       vector-effect="none" />
    <polyline
       style="fill:none"
       id="polyline38"
       points="363,280 377,280 "
       vector-effect="none" />
    <polyline
       style="fill:none"
       id="polyline40"
       points="367,286 373,286 "
       vector-effect="none" />
  </g>
  <g
     style="font-size:12px;font-style:normal;font-weight:400;fill:none;stroke:#000080;stroke-width:3;stroke-linecap:square;stroke-linejoin:bevel;stroke-opacity:1;font-family:Helvetica"
     id="g42"
     font-style="normal"
     font-weight="400"
     font-size="12"
     transform="matrix(0.47550888,0,0,0.53536955,9.9678773,7.1376552)" />
  <g
     style="font-size:12px;font-style:normal;font-weight:400;fill:none;stroke:#000080;stroke-width:2;stroke-linecap:square;stroke-linejoin:bevel;stroke-opacity:1;font-family:Helvetica"
     id="g44"
     font-style="normal"
     font-weight="400"
     font-size="12"
     transform="matrix(0.47550888,0,0,0.53536955,9.9678773,7.1376552)">
    <polyline
       style="fill:none"
       id="polyline46"
       points="370,264 370,252 "
       vector-effect="none" />
    <polyline
       style="fill:none"
       id="polyline48"
       points="370,216 370,204 "
       vector-effect="none" />
    <path
       inkscape:connector-curvature="0"
       id="path50"
       d="m 370,240 c -3.314,0 -6,2.686 -6,6 0,3.314 2.686,6 6,6"
       vector-effect="none" />
    <path
       inkscape:connector-curvature="0"
       id="path52"
       d="m 370,228 c -3.314,0 -6,2.686 -6,6 0,3.314 2.686,6 6,6"
       vector-effect="none" />
    <path
       inkscape:connector-curvature="0"
       id="path54"
       d="m 370,216 c -3.314,0 -6,2.686 -6,6 0,3.314 2.686,6 6,6"
       vector-effect="none" />
  </g>
  <g
     style="font-size:12px;font-style:normal;font-weight:400;fill:none;stroke:#000080;stroke-width:2;stroke-linecap:square;stroke-linejoin:bevel;stroke-opacity:1;font-family:Helvetica"
     id="g56"
     font-style="normal"
     font-weight="400"
     font-size="12"
     transform="matrix(0.47550888,0,0,0.53536955,9.9678773,7.1376552)" />
  <g
     style="font-size:12px;font-style:normal;font-weight:400;fill:none;stroke:#000080;stroke-width:4;stroke-linecap:square;stroke-linejoin:bevel;stroke-opacity:1;font-family:Helvetica"
     id="g58"
     font-style="normal"
     font-weight="400"
     font-size="12"
     transform="matrix(0.47550888,0,0,0.53536955,9.9678773,7.1376552)">
    <polyline
       style="fill:none"
       id="polyline60"
       points="359,178 381,178 "
       vector-effect="none" />
    <polyline
       style="fill:none"
       id="polyline62"
       points="359,170 381,170 "
       vector-effect="none" />
  </g>
  <g
     style="font-size:12px;font-style:normal;font-weight:400;fill:none;stroke:#000080;stroke-width:2;stroke-linecap:square;stroke-linejoin:bevel;stroke-opacity:1;font-family:Helvetica"
     id="g64"
     font-style="normal"
     font-weight="400"
     font-size="12"
     transform="matrix(0.47550888,0,0,0.53536955,9.9678773,7.1376552)">
    <polyline
       style="fill:none"
       id="polyline66"
       points="370,204 370,178 "
       vector-effect="none" />
    <polyline
       style="fill:none"
       id="polyline68"
       points="370,170 370,144 "
       vector-effect="none" />
  </g>
  <g
     style="font-size:12px;font-style:normal;font-weight:400;fill:none;stroke:#000080;stroke-width:2;stroke-linecap:square;stroke-linejoin:bevel;stroke-opacity:1;font-family:Helvetica"
     id="g70"
     font-style="normal"
     font-weight="400"
     font-size="12"
     transform="matrix(0.47550888,0,0,0.53536955,9.9678773,7.1376552)" />
  <g
     style="font-size:12px;font-style:normal;font-weight:400;fill:none;stroke:#000080;stroke-width:2;stroke-linecap:square;stroke-linejoin:bevel;stroke-opacity:1;font-family:Helvetica"
     id="g72"
     font-style="normal"
     font-weight="400"
     font-size="12"
     transform="matrix(0.47550888,0,0,0.53536955,9.9678773,7.1376552)">
    <polyline
       style="fill:none"
       id="polyline74"
       points="125,264 125,252 "
       vector-effect="none" />
    <polyline
       style="fill:none"
       id="polyline76"
       points="125,216 125,204 "
       vector-effect="none" />
    <path
       inkscape:connector-curvature="0"
       id="path78"
       d="m 125,240 c -3.314,0 -6,2.686 -6,6 0,3.314 2.686,6 6,6"
       vector-effect="none" />
    <path
       inkscape:connector-curvature="0"
       id="path80"
       d="m 125,228 c -3.314,0 -6,2.686 -6,6 0,3.314 2.686,6 6,6"
       vector-effect="none" />
    <path
       inkscape:connector-curvature="0"
       id="path82"
       d="m 125,216 c -3.314,0 -6,2.686 -6,6 0,3.314 2.686,6 6,6"
       vector-effect="none" />
  </g>
  <g
     style="font-size:12px;font-style:normal;font-weight:400;fill:none;stroke:#000080;stroke-width:2;stroke-linecap:square;stroke-linejoin:bevel;stroke-opacity:1;font-family:Helvetica"
     id="g84"
     font-style="normal"
     font-weight="400"
     font-size="12"
     transform="matrix(0.47550888,0,0,0.53536955,9.9678773,7.1376552)" />
  <g
     style="font-size:12px;font-style:normal;font-weight:400;fill:none;stroke:#000080;stroke-width:4;stroke-linecap:square;stroke-linejoin:bevel;stroke-opacity:1;font-family:Helvetica"
     id="g86"
     font-style="normal"
     font-weight="400"
     font-size="12"
     transform="matrix(0.47550888,0,0,0.53536955,9.9678773,7.1376552)">
    <polyline
       style="fill:none"
       id="polyline88"
       points="114,178 136,178 "
       vector-effect="none" />
    <polyline
       style="fill:none"
       id="polyline90"
       points="114,170 136,170 "
       vector-effect="none" />
  </g>
  <g
     style="font-size:12px;font-style:normal;font-weight:400;fill:none;stroke:#000080;stroke-width:2;stroke-linecap:square;stroke-linejoin:bevel;stroke-opacity:1;font-family:Helvetica"
     id="g92"
     font-style="normal"
     font-weight="400"
     font-size="12"
     transform="matrix(0.47550888,0,0,0.53536955,9.9678773,7.1376552)">
    <polyline
       style="fill:none"
       id="polyline94"
       points="125,204 125,178 "
       vector-effect="none" />
    <polyline
       style="fill:none"
       id="polyline96"
       points="125,170 125,144 "
       vector-effect="none" />
  </g>
  <g
     style="font-size:12px;font-style:normal;font-weight:400;fill:none;stroke:#000080;stroke-width:2;stroke-linecap:square;stroke-linejoin:bevel;stroke-opacity:1;font-family:Helvetica"
     id="g98"
     font-style="normal"
     font-weight="400"
     font-size="12"
     transform="matrix(0.47550888,0,0,0.53536955,9.9678773,7.1376552)" />
  <g
     style="font-size:12px;font-style:normal;font-weight:400;fill:none;stroke:#000080;stroke-width:4;stroke-linecap:square;stroke-linejoin:bevel;stroke-opacity:1;font-family:Helvetica"
     id="g100"
     font-style="normal"
     font-weight="400"
     font-size="12"
     transform="matrix(0.47550888,0,0,0.53536955,9.9678773,7.1376552)">
    <polyline
       style="fill:none"
       id="polyline102"
       points="191,83 191,105 "
       vector-effect="none" />
    <polyline
       style="fill:none"
       id="polyline104"
       points="199,83 199,105 "
       vector-effect="none" />
  </g>
  <g
     style="font-size:12px;font-style:normal;font-weight:400;fill:none;stroke:#000080;stroke-width:2;stroke-linecap:square;stroke-linejoin:bevel;stroke-opacity:1;font-family:Helvetica"
     id="g106"
     font-style="normal"
     font-weight="400"
     font-size="12"
     transform="matrix(0.47550888,0,0,0.53536955,9.9678773,7.1376552)">
    <polyline
       style="fill:none"
       id="polyline108"
       points="165,94 191,94 "
       vector-effect="none" />
    <polyline
       style="fill:none"
       id="polyline110"
       points="199,94 225,94 "
       vector-effect="none" />
  </g>
  <g
     style="font-size:12px;font-style:normal;font-weight:400;fill:none;stroke:#000080;stroke-width:2;stroke-linecap:square;stroke-linejoin:bevel;stroke-opacity:1;font-family:Helvetica"
     id="g112"
     font-style="normal"
     font-weight="400"
     font-size="12"
     transform="matrix(0.47550888,0,0,0.53536955,9.9678773,7.1376552)" />
  <g
     style="font-size:12px;font-style:normal;font-weight:400;fill:none;stroke:#000080;stroke-width:2;stroke-linecap:square;stroke-linejoin:bevel;stroke-opacity:1;font-family:Helvetica"
     id="g114"
     font-style="normal"
     font-weight="400"
     font-size="12"
     transform="matrix(0.47550888,0,0,0.53536955,9.9678773,7.1376552)">
    <polyline
       style="fill:none"
       id="polyline116"
       points="165,59 177,59 "
       vector-effect="none" />
    <polyline
       style="fill:none"
       id="polyline118"
       points="213,59 225,59 "
       vector-effect="none" />
    <path
       inkscape:connector-curvature="0"
       id="path120"
       d="m 189,59 c 0,-3.3137 -2.686,-6 -6,-6 -3.314,0 -6,2.6863 -6,6"
       vector-effect="none" />
    <path
       inkscape:connector-curvature="0"
       id="path122"
       d="m 201,59 c 0,-3.3137 -2.686,-6 -6,-6 -3.314,0 -6,2.6863 -6,6"
       vector-effect="none" />
    <path
       inkscape:connector-curvature="0"
       id="path124"
       d="m 213,59 c 0,-3.3137 -2.686,-6 -6,-6 -3.314,0 -6,2.6863 -6,6"
       vector-effect="none" />
  </g>
  <g
     style="font-size:12px;font-style:normal;font-weight:400;fill:none;stroke:#000080;stroke-width:2;stroke-linecap:square;stroke-linejoin:bevel;stroke-opacity:1;font-family:Helvetica"
     id="g126"
     font-style="normal"
     font-weight="400"
     font-size="12"
     transform="matrix(0.47550888,0,0,0.53536955,9.9678773,7.1376552)" />
  <g
     style="font-size:12px;font-style:normal;font-weight:400;fill:none;stroke:#000080;stroke-width:4;stroke-linecap:square;stroke-linejoin:bevel;stroke-opacity:1;font-family:Helvetica"
     id="g128"
     font-style="normal"
     font-weight="400"
     font-size="12"
     transform="matrix(0.47550888,0,0,0.53536955,9.9678773,7.1376552)">
    <polyline
       style="fill:none"
       id="polyline130"
       points="296,83 296,105 "
       vector-effect="none" />
    <polyline
       style="fill:none"
       id="polyline132"
       points="304,83 304,105 "
       vector-effect="none" />
  </g>
  <g
     style="font-size:12px;font-style:normal;font-weight:400;fill:none;stroke:#000080;stroke-width:2;stroke-linecap:square;stroke-linejoin:bevel;stroke-opacity:1;font-family:Helvetica"
     id="g134"
     font-style="normal"
     font-weight="400"
     font-size="12"
     transform="matrix(0.47550888,0,0,0.53536955,9.9678773,7.1376552)">
    <polyline
       style="fill:none"
       id="polyline136"
       points="270,94 296,94 "
       vector-effect="none" />
    <polyline
       style="fill:none"
       id="polyline138"
       points="304,94 330,94 "
       vector-effect="none" />
  </g>
  <g
     style="font-size:12px;font-style:normal;font-weight:400;fill:none;stroke:#000080;stroke-width:2;stroke-linecap:square;stroke-linejoin:bevel;stroke-opacity:1;font-family:Helvetica"
     id="g140"
     font-style="normal"
     font-weight="400"
     font-size="12"
     transform="matrix(0.47550888,0,0,0.53536955,9.9678773,7.1376552)" />
  <g
     style="font-size:12px;font-style:normal;font-weight:400;fill:none;stroke:#000080;stroke-width:2;stroke-linecap:square;stroke-linejoin:bevel;stroke-opacity:1;font-family:Helvetica"
     id="g142"
     font-style="normal"
     font-weight="400"
     font-size="12"
     transform="matrix(0.47550888,0,0,0.53536955,9.9678773,7.1376552)">
    <polyline
       style="fill:none"
       id="polyline144"
       points="270,59 282,59 "
       vector-effect="none" />
    <polyline
       style="fill:none"
       id="polyline146"
       points="318,59 330,59 "
       vector-effect="none" />
    <path
       inkscape:connector-curvature="0"
       id="path148"
       d="m 294,59 c 0,-3.3137 -2.686,-6 -6,-6 -3.314,0 -6,2.6863 -6,6"
       vector-effect="none" />
    <path
       inkscape:connector-curvature="0"
       id="path150"
       d="m 306,59 c 0,-3.3137 -2.686,-6 -6,-6 -3.314,0 -6,2.6863 -6,6"
       vector-effect="none" />
    <path
       inkscape:connector-curvature="0"
       id="path152"
       d="m 318,59 c 0,-3.3137 -2.686,-6 -6,-6 -3.314,0 -6,2.6863 -6,6"
       vector-effect="none" />
  </g>
  <g
     style="font-size:12px;font-style:normal;font-weight:400;fill:none;stroke:#000080;stroke-width:2;stroke-linecap:square;stroke-linejoin:bevel;stroke-opacity:1;font-family:Helvetica"
     id="g154"
     font-style="normal"
     font-weight="400"
     font-size="12"
     transform="matrix(0.47550888,0,0,0.53536955,9.9678773,7.1376552)" />
  <g
     style="font-size:12px;font-style:normal;font-weight:400;fill:none;stroke:#000080;stroke-width:2;stroke-linecap:square;stroke-linejoin:bevel;stroke-opacity:1;font-family:Helvetica"
     id="g156"
     font-style="normal"
     font-weight="400"
     font-size="12"
     transform="matrix(0.47550888,0,0,0.53536955,9.9678773,7.1376552)">
    <polyline
       style="fill:none"
       id="polyline158"
       points="15,94 125,94 "
       vector-effect="none" />
    <polyline
       style="fill:none"
       id="polyline160"
       points="125,94 125,144 "
       vector-effect="none" />
    <polyline
       style="fill:none"
       id="polyline162"
       points="125,94 165,94 "
       vector-effect="none" />
    <polyline
       style="fill:none"
       id="polyline164"
       points="225,94 270,94 "
       vector-effect="none" />
    <polyline
       style="fill:none"
       id="polyline166"
       points="330,94 370,94 "
       vector-effect="none" />
    <polyline
       style="fill:none"
       id="polyline168"
       points="370,94 370,144 "
       vector-effect="none" />
    <polyline
       style="fill:none"
       id="polyline170"
       points="370,94 480,94 "
       vector-effect="none" />
    <polyline
       style="fill:none"
       id="polyline172"
       points="225,59 225,94 "
       vector-effect="none" />
    <polyline
       style="fill:none"
       id="polyline174"
       points="165,59 165,94 "
       vector-effect="none" />
    <polyline
       style="fill:none"
       id="polyline176"
       points="330,59 330,94 "
       vector-effect="none" />
    <polyline
       style="fill:none"
       id="polyline178"
       points="270,59 270,94 "
       vector-effect="none" />
  </g>
  <g
     style="font-size:12px;font-style:normal;font-weight:400;fill:#000080;fill-opacity:1;stroke:none;font-family:Helvetica"
     id="g180"
     font-style="normal"
     font-weight="400"
     font-size="12"
     transform="matrix(0.47550888,0,0,0.53536955,9.9678773,7.1376552)">
    <path
       style="fill-rule:evenodd"
       inkscape:connector-curvature="0"
       id="path182"
       d="m 123,202 4,0 0,4 -4,0 0,-4"
       vector-effect="non-scaling-stroke" />
  </g>
  <g
     style="font-size:12px;font-style:normal;font-weight:400;fill:#000080;fill-opacity:1;stroke:none;font-family:Helvetica"
     id="g184"
     font-style="normal"
     font-weight="400"
     font-size="12"
     transform="matrix(0.47550888,0,0,0.53536955,9.9678773,7.1376552)">
    <path
       style="fill-rule:evenodd"
       inkscape:connector-curvature="0"
       id="path186"
       d="m 123,142 4,0 0,4 -4,0 0,-4"
       vector-effect="non-scaling-stroke" />
  </g>
  <g
     style="font-size:12px;font-style:normal;font-weight:400;fill:#000080;fill-opacity:1;stroke:none;font-family:Helvetica"
     id="g188"
     font-style="normal"
     font-weight="400"
     font-size="12"
     transform="matrix(0.47550888,0,0,0.53536955,9.9678773,7.1376552)">
    <path
       style="fill-rule:evenodd"
       inkscape:connector-curvature="0"
       id="path190"
       d="m 123,262 4,0 0,4 -4,0 0,-4"
       vector-effect="non-scaling-stroke" />
  </g>
  <g
     style="font-size:12px;font-style:normal;font-weight:400;fill:#000080;fill-opacity:1;stroke:#000080;stroke-width:1;stroke-linecap:square;stroke-linejoin:bevel;stroke-opacity:1;font-family:Helvetica"
     id="g192"
     font-style="normal"
     font-weight="400"
     font-size="12"
     transform="matrix(0.47550888,0,0,0.53536955,9.9678773,7.1376552)">
    <path
       style="fill-rule:evenodd"
       inkscape:connector-curvature="0"
       id="path194"
       d="m 168,94 c 0,1.6569 -1.343,3 -3,3 -1.657,0 -3,-1.3431 -3,-3 0,-1.6569 1.343,-3 3,-3 1.657,0 3,1.3431 3,3"
       vector-effect="none" />
  </g>
  <g
     style="font-size:12px;font-style:normal;font-weight:400;fill:#000080;fill-opacity:1;stroke:#000080;stroke-width:1;stroke-linecap:square;stroke-linejoin:bevel;stroke-opacity:1;font-family:Helvetica"
     id="g196"
     font-style="normal"
     font-weight="400"
     font-size="12"
     transform="matrix(0.47550888,0,0,0.53536955,9.9678773,7.1376552)">
    <path
       style="fill-rule:evenodd"
       inkscape:connector-curvature="0"
       id="path198"
       d="m 228,94 c 0,1.6569 -1.343,3 -3,3 -1.657,0 -3,-1.3431 -3,-3 0,-1.6569 1.343,-3 3,-3 1.657,0 3,1.3431 3,3"
       vector-effect="none" />
  </g>
  <g
     style="font-size:12px;font-style:normal;font-weight:400;fill:#000080;fill-opacity:1;stroke:#000080;stroke-width:1;stroke-linecap:square;stroke-linejoin:bevel;stroke-opacity:1;font-family:Helvetica"
     id="g200"
     font-style="normal"
     font-weight="400"
     font-size="12"
     transform="matrix(0.47550888,0,0,0.53536955,9.9678773,7.1376552)">
    <path
       style="fill-rule:evenodd"
       inkscape:connector-curvature="0"
       id="path202"
       d="m 273,94 c 0,1.6569 -1.343,3 -3,3 -1.657,0 -3,-1.3431 -3,-3 0,-1.6569 1.343,-3 3,-3 1.657,0 3,1.3431 3,3"
       vector-effect="none" />
  </g>
  <g
     style="font-size:12px;font-style:normal;font-weight:400;fill:#000080;fill-opacity:1;stroke:#000080;stroke-width:1;stroke-linecap:square;stroke-linejoin:bevel;stroke-opacity:1;font-family:Helvetica"
     id="g204"
     font-style="normal"
     font-weight="400"
     font-size="12"
     transform="matrix(0.47550888,0,0,0.53536955,9.9678773,7.1376552)">
    <path
       style="fill-rule:evenodd"
       inkscape:connector-curvature="0"
       id="path206"
       d="m 333,94 c 0,1.6569 -1.343,3 -3,3 -1.657,0 -3,-1.3431 -3,-3 0,-1.6569 1.343,-3 3,-3 1.657,0 3,1.3431 3,3"
       vector-effect="none" />
  </g>
  <g
     style="font-size:12px;font-style:normal;font-weight:400;fill:#000080;fill-opacity:1;stroke:none;font-family:Helvetica"
     id="g208"
     font-style="normal"
     font-weight="400"
     font-size="12"
     transform="matrix(0.47550888,0,0,0.53536955,9.9678773,7.1376552)">
    <path
       style="fill-rule:evenodd"
       inkscape:connector-curvature="0"
       id="path210"
       d="m 368,202 4,0 0,4 -4,0 0,-4"
       vector-effect="non-scaling-stroke" />
  </g>
  <g
     style="font-size:12px;font-style:normal;font-weight:400;fill:#000080;fill-opacity:1;stroke:none;font-family:Helvetica"
     id="g212"
     font-style="normal"
     font-weight="400"
     font-size="12"
     transform="matrix(0.47550888,0,0,0.53536955,9.9678773,7.1376552)">
    <path
       style="fill-rule:evenodd"
       inkscape:connector-curvature="0"
       id="path214"
       d="m 368,142 4,0 0,4 -4,0 0,-4"
       vector-effect="non-scaling-stroke" />
  </g>
  <g
     style="font-size:12px;font-style:normal;font-weight:400;fill:#000080;fill-opacity:1;stroke:none;font-family:Helvetica"
     id="g216"
     font-style="normal"
     font-weight="400"
     font-size="12"
     transform="matrix(0.47550888,0,0,0.53536955,9.9678773,7.1376552)">
    <path
       style="fill-rule:evenodd"
       inkscape:connector-curvature="0"
       id="path218"
       d="m 368,262 4,0 0,4 -4,0 0,-4"
       vector-effect="non-scaling-stroke" />
  </g>
  <g
     style="font-size:12px;font-style:normal;font-weight:400;fill:none;stroke:#ff0000;stroke-width:1;stroke-linecap:square;stroke-linejoin:bevel;stroke-opacity:1;font-family:Helvetica"
     id="g220"
     font-style="normal"
     font-weight="400"
     font-size="12"
     transform="matrix(0.47550888,0,0,0.53536955,9.9678773,7.1376552)">
    <path
       inkscape:connector-curvature="0"
       id="path222"
       d="m 19,94 c 0,2.2091 -1.7909,4 -4,4 -2.2091,0 -4,-1.7909 -4,-4 0,-2.2091 1.7909,-4 4,-4 2.2091,0 4,1.7909 4,4"
       vector-effect="none" />
  </g>
  <g
     style="font-size:12px;font-style:normal;font-weight:400;fill:#000080;fill-opacity:1;stroke:#000080;stroke-width:1;stroke-linecap:square;stroke-linejoin:bevel;stroke-opacity:1;font-family:Helvetica"
     id="g224"
     font-style="normal"
     font-weight="400"
     font-size="12"
     transform="matrix(0.47550888,0,0,0.53536955,9.9678773,7.1376552)">
    <path
       style="fill-rule:evenodd"
       inkscape:connector-curvature="0"
       id="path226"
       d="m 128,94 c 0,1.6569 -1.343,3 -3,3 -1.657,0 -3,-1.3431 -3,-3 0,-1.6569 1.343,-3 3,-3 1.657,0 3,1.3431 3,3"
       vector-effect="none" />
  </g>
  <g
     style="font-size:12px;font-style:normal;font-weight:400;fill:#000080;fill-opacity:1;stroke:#000080;stroke-width:1;stroke-linecap:square;stroke-linejoin:bevel;stroke-opacity:1;font-family:Helvetica"
     id="g228"
     font-style="normal"
     font-weight="400"
     font-size="12"
     transform="matrix(0.47550888,0,0,0.53536955,9.9678773,7.1376552)">
    <path
       style="fill-rule:evenodd"
       inkscape:connector-curvature="0"
       id="path230"
       d="m 373,94 c 0,1.6569 -1.343,3 -3,3 -1.657,0 -3,-1.3431 -3,-3 0,-1.6569 1.343,-3 3,-3 1.657,0 3,1.3431 3,3"
       vector-effect="none" />
  </g>
  <g
     style="font-size:12px;font-style:normal;font-weight:400;fill:none;stroke:#ff0000;stroke-width:1;stroke-linecap:square;stroke-linejoin:bevel;stroke-opacity:1;font-family:Helvetica"
     id="g232"
     font-style="normal"
     font-weight="400"
     font-size="12"
     transform="matrix(0.47550888,0,0,0.53536955,9.9678773,7.1376552)">
    <path
       inkscape:connector-curvature="0"
       id="path234"
       d="m 484,94 c 0,2.2091 -1.791,4 -4,4 -2.209,0 -4,-1.7909 -4,-4 0,-2.2091 1.791,-4 4,-4 2.209,0 4,1.7909 4,4"
       vector-effect="none" />
  </g>
  <g
     style="font-size:12px;font-style:normal;font-weight:400;fill:#000080;fill-opacity:1;stroke:none;font-family:Helvetica"
     id="g236"
     font-style="normal"
     font-weight="400"
     font-size="12"
     transform="matrix(0.47550888,0,0,0.53536955,9.9678773,7.1376552)">
    <path
       style="fill-rule:evenodd"
       inkscape:connector-curvature="0"
       id="path238"
       d="m 163,57 4,0 0,4 -4,0 0,-4"
       vector-effect="non-scaling-stroke" />
  </g>
  <g
     style="font-size:12px;font-style:normal;font-weight:400;fill:#000080;fill-opacity:1;stroke:none;font-family:Helvetica"
     id="g240"
     font-style="normal"
     font-weight="400"
     font-size="12"
     transform="matrix(0.47550888,0,0,0.53536955,9.9678773,7.1376552)">
    <path
       style="fill-rule:evenodd"
       inkscape:connector-curvature="0"
       id="path242"
       d="m 223,57 4,0 0,4 -4,0 0,-4"
       vector-effect="non-scaling-stroke" />
  </g>
  <g
     style="font-size:12px;font-style:normal;font-weight:400;fill:#000080;fill-opacity:1;stroke:none;font-family:Helvetica"
     id="g244"
     font-style="normal"
     font-weight="400"
     font-size="12"
     transform="matrix(0.47550888,0,0,0.53536955,9.9678773,7.1376552)">
    <path
       style="fill-rule:evenodd"
       inkscape:connector-curvature="0"
       id="path246"
       d="m 268,57 4,0 0,4 -4,0 0,-4"
       vector-effect="non-scaling-stroke" />
  </g>
  <g
     style="font-size:12px;font-style:normal;font-weight:400;fill:#000080;fill-opacity:1;stroke:none;font-family:Helvetica"
     id="g248"
     font-style="normal"
     font-weight="400"
     font-size="12"
     transform="matrix(0.47550888,0,0,0.53536955,9.9678773,7.1376552)">
    <path
       style="fill-rule:evenodd"
       inkscape:connector-curvature="0"
       id="path250"
       d="m 328,57 4,0 0,4 -4,0 0,-4"
       vector-effect="non-scaling-stroke" />
  </g>
</svg>
